<?xml version="1.0" standalone="no"?>
<!DOCTYPE svg PUBLIC "-//W3C//DTD SVG 1.1//EN" "http://www.w3.org/Graphics/SVG/1.1/DTD/svg11.dtd" >
<svg>
<metadata>
Created by FontForge 20090622 at Fri Nov 11 10:54:51 2016
 By deploy user
Copyright (c) 2012, Vicente Lamonaca (produccion.taller@gmail.com www.tipografia-montevideo.info www.tipotype.com)
</metadata>
<defs>
<font id="Economica-Regular" horiz-adv-x="500" >
  <font-face 
    font-family="Economica"
    font-weight="400"
    font-stretch="normal"
    units-per-em="1000"
    panose-1="2 0 5 6 4 0 0 2 0 4"
    ascent="800"
    descent="-200"
    x-height="537"
    cap-height="720"
    bbox="-49 -200 679 927"
    underline-thickness="24"
    underline-position="-25"
    unicode-range="U+0020-U+FB04"
  />
<missing-glyph horiz-adv-x="190" 
 />
    <glyph glyph-name="fi" unicode="fi" horiz-adv-x="411" 
d="M82 -200l1 658l4 25h-53v54h53l-4 25v16q0 44 0.5 61.5t6 40.5t13 29t27.5 14t43.5 8.5t66.5 0.5h101v-50h-101q-73 0 -85 -13t-12 -91v-16l-4 -25h152q36 0 43 -6.5t7 -39.5v-491q-44 0 -51.5 6t-7.5 40v437h-144l4 -25v-601q-1 -43 -8.5 -50t-51.5 -7z" />
    <glyph glyph-name="fl" unicode="fl" horiz-adv-x="405" 
d="M81 -200l1 658l4 25h-53v54h53l-4 25v16q0 44 0.5 61.5t6 40.5t13 29t27.5 14t43.5 8.5t66.5 0.5h42q44 0 51.5 -6t7.5 -40v-686q-44 0 -51.5 6t-7.5 40v636h-42q-73 0 -85 -13t-12 -91v-16l-4 -25h69v-54h-70l4 -25v-601q-1 -43 -8.5 -50t-51.5 -7z" />
    <glyph glyph-name="f_f_i" unicode="ffi" horiz-adv-x="642" 
d="M280 -200l1 658l4 25h-164l5 -30v-596q-1 -43 -8.5 -50t-51.5 -7l1 653l5 30h-54v54h54l-5 30v11v12q0 35 0.5 49.5t5 35t14 28t28 16t45 10.5t67.5 2v-47q-28 0 -42.5 -0.5t-27.5 -5t-17.5 -8t-8.5 -18t-4 -25v-38.5v-11v-11l-5 -30h163l-4 25v16q0 44 0.5 61.5t6 40.5
t13 29t27.5 14t43.5 8.5t66.5 0.5h101v-50h-101q-73 0 -85 -13t-12 -91v-16l-4 -25h152q36 0 43 -6.5t7 -39.5v-491q-44 0 -51.5 6t-7.5 40v437h-144l4 -25v-601q-1 -43 -8.5 -50t-51.5 -7z" />
    <glyph glyph-name="f_f_l" unicode="ffl" horiz-adv-x="623" 
d="M283 -200l1 658l4 25h-167l5 -30v-596q-1 -43 -8.5 -50t-51.5 -7l1 653l5 30h-54v54h54l-5 30v11v12q0 35 0.5 49.5t5 35t14 28t28 16t45 10.5t67.5 2v-47q-28 0 -42.5 -0.5t-27.5 -5t-17.5 -8t-8.5 -18t-4 -25v-38.5v-11v-11l-5 -30h166l-4 25v16q0 44 0.5 61.5t6 40.5
t13 29t27.5 14t43.5 8.5t66.5 0.5h42q44 0 51.5 -6t7.5 -40v-686q-44 0 -51.5 6t-7.5 40v636h-42q-73 0 -85 -13t-12 -91v-16l-4 -25h69v-54h-70l4 -25v-601q-1 -43 -8.5 -50t-51.5 -7z" />
    <glyph glyph-name="f_t" unicode="ft" horiz-adv-x="415" 
d="M400 0l-69 -5q-63 0 -81 38q-17 34 -17 160v35v230l4 25h-132l5 -30v-596q-1 -43 -8 -50t-51 -7l1 653l5 30h-54v54h54l-5 30v11q0 28 0.5 41.5t2.5 32.5t6.5 27.5t12.5 19.5t20 15.5t30 9t41 6t55 1.5v-47q-78 0 -93.5 -15.5t-15.5 -90.5v-11l-5 -30h131l-4 35v44
q44 0 51.5 -6t7.5 -40l-4 -33h92q0 -37 -6.5 -45.5t-41.5 -8.5h-44l4 -25v-230q0 -114 6 -148t34 -34h68v-46z" />
    <glyph glyph-name="f_u" unicode="fu" horiz-adv-x="579" 
d="M235 684q-78 0 -93.5 -15.5t-15.5 -90.5v-11l-5 -30h140q42 0 49.5 -6t7.5 -40v-218q0 -147 12 -185q14 -42 51 -42l99 46l-5 25v420q44 0 51.5 -5.5t7.5 -40.5v-491q-44 0 -51.5 5t-7.5 35l-90 -47q-80 0 -105 52q-20 42 -21 179v47v212h-139l5 -30v-596q-1 -43 -8 -50
t-51 -7l1 653l5 30h-54v54h54l-5 30v11q0 28 0.5 41.5t2.5 32.5t6.5 27.5t12.5 19.5t20 15.5t30 9t41 6t55 1.5h45v-47h-45z" />
    <glyph glyph-name="x_t" unicode="xt" horiz-adv-x="566" 
d="M546 0l-69 -5q-63 0 -81 38q-17 34 -17 160v35v230l4 25h-118q-18 -59 -72 -202l105 -281h-57l-79 226h-12l-78 -226q-31 0 -41 1.5t-10 9.5q0 1 12 35l87 246l-89 245q42 0 52 -5.5t23 -38.5l49 -146h12l57 190h1h158l-4 35v44q44 0 51.5 -6t7.5 -40l-4 -33h92
q0 -37 -6.5 -45.5t-41.5 -8.5h-44l4 -25v-230q0 -114 6 -148t34 -34h68v-46z" />
    <glyph glyph-name="o_t" unicode="ot" horiz-adv-x="599" 
d="M593 0l-69 -5q-63 0 -81 38q-17 34 -17 160v35v230l4 32h-137q9 -20 14 -55.5t5.5 -66.5t0.5 -97v-4q0 -47 -0.5 -68.5t-2 -56t-4.5 -49t-9.5 -36t-15.5 -30t-23 -18.5t-32.5 -13t-43.5 -3q-22 0 -39.5 3.5t-30.5 8t-23 17t-16.5 21.5t-11 31t-7 36t-3.5 46.5t-1 52v62.5
v62.5t1 51.5t3.5 45.5t7 35.5t11 30.5t16.5 20.5t23.5 16t30.5 7.5t39 3.5h9h239l-4 28v44q44 0 51.5 -6t7.5 -40l-4 -26h92q0 -37 -6.5 -45.5t-41.5 -8.5h-44l4 -32v-230q0 -114 6 -148t34 -34h68v-46zM182 46q50 0 63 43q9 34 9 159q0 151 -3 175q-8 55 -43 65
q-11 3 -26 3q-50 0 -63 -41q-10 -30 -10 -155v-13q0 -146 5 -174q9 -53 48 -60q9 -2 20 -2z" />
    <glyph glyph-name="c_s" unicode="cs" horiz-adv-x="595" 
d="M428 -4l-127 18l-120 -21q-25 0 -43.5 3t-32.5 13t-23 18.5t-15.5 30.5t-9.5 37t-4.5 49.5t-2 56.5t-0.5 70q0 62 0.5 89.5t4 67t10.5 55t20.5 33t34.5 23t51 5.5l83 -13q0 -52 -50 -43l-33 3q-42 0 -54 -44q-9 -34 -9 -176q0 -144 12 -180q14 -45 61 -45l117 24l129 -16
q60 0 56 118q-1 32 -71 86q-52 39 -81 74t-29 77q0 30 1 44t7 35t18 30.5t35.5 17t58.5 7.5l95 -14q0 -52 -50 -43l-41 6q-25 0 -39.5 -5t-20.5 -17.5t-7.5 -23t-1.5 -30.5q0 -38 78 -100q36 -27 54.5 -43t36 -42t17.5 -50q0 -25 -1 -42.5t-4.5 -41.5t-11 -40t-19.5 -31
t-32 -22.5t-47 -7.5z" />
    <glyph glyph-name="E_S" unicode="ES" horiz-adv-x="776" 
d="M508 -7l-159 7h-274v720h243v-53h-181l4 -25v-199l-4 -25h167v-57h-167l4 -25v-252l-4 -25h372q22 0 39 4t28.5 9t19 17t11.5 19.5t5.5 25.5t2 26.5t0 30.5t-0.5 30q0 28 -25.5 60.5t-62 64l-73.5 64.5t-62.5 74t-25.5 82q0 30 0.5 42.5t3 35t8.5 32t17.5 23.5t29 19
t43 9.5t60.5 4.5l106 -20q0 -21 -6 -30.5t-14 -10.5t-24 0l-56 6q-36 0 -58 -7t-31.5 -23.5t-12 -31.5t-2.5 -42q0 -28 18.5 -56.5t46.5 -52l60 -51.5l60 -53.5t46.5 -59t18.5 -67.5q0 -103 -9 -138q-26 -96 -145 -102h-17z" />
    <glyph glyph-name="E_s" unicode="Es" horiz-adv-x="620" 
d="M469 -4l-121 4h-273v720h253v-53h-191l4 -25v-199l-4 -25h147v-57h-147l4 -25v-254l-4 -25h211l120 -3q60 0 56 118q-1 32 -71 86q-52 39 -81 74t-29 77q0 30 1 44t7 35t18 30.5t35.5 17t58.5 7.5l95 -14q0 -52 -50 -43l-41 6q-25 0 -39.5 -5t-20.5 -17.5t-7.5 -23
t-1.5 -30.5q0 -38 78 -100q36 -27 54.5 -43t36 -42t17.5 -50q0 -25 -1 -42.5t-4.5 -41.5t-11 -40t-19.5 -31t-32 -22.5t-47 -7.5z" />
    <glyph glyph-name=".notdef" horiz-adv-x="190" 
 />
    <glyph glyph-name=".null" horiz-adv-x="0" 
 />
    <glyph glyph-name="nonmarkingreturn" horiz-adv-x="333" 
 />
    <glyph glyph-name="space" unicode=" " horiz-adv-x="190" 
 />
    <glyph glyph-name="exclam" unicode="!" horiz-adv-x="161" 
d="M126 48q0 -18 -13.5 -31t-31.5 -13q-19 0 -33 13t-14 31v4q1 18 15 30t31 12q19 0 32.5 -13.5t13.5 -32.5zM64 188l7 492q0 26 7 34.5t28 8.5q7 0 35 -2l-18 -491q-1 -18 -1.5 -23t-3 -12t-8 -8t-15.5 -1q-5 0 -31 2z" />
    <glyph glyph-name="quotedbl" unicode="&#x22;" horiz-adv-x="332" 
d="M96 510l-39 20q15 66 14.5 91.5t-9 44.5t-8.5 21q0 19 12 32t30 13q19 0 30.5 -13.5t11.5 -33.5q0 -19 -10.5 -62.5t-21.5 -78.5zM240 510l-39 20q15 66 14.5 91.5t-9 44.5t-8.5 21q0 19 12 32t30 13q19 0 30.5 -13.5t11.5 -33.5q0 -19 -10.5 -62.5t-21.5 -78.5z" />
    <glyph glyph-name="numbersign" unicode="#" horiz-adv-x="655" 
d="M591 239h-174l-96 -239h-68l96 239h-145l-96 -239h-68l96 239h-114v63h139l57 142h-153v63h179l90 225h68l-90 -225h145l90 225h68l-90 -225h109v-63h-135l-57 -142h149v-63zM374 302l57 142h-145l-57 -142h145z" />
    <glyph glyph-name="dollar" unicode="$" horiz-adv-x="392" 
d="M178 -75l-1 68q-11 1 -102 17v46q7 -1 50 -5.5t65 -4.5q20 0 33 6t20 13.5t10 24t3.5 26.5t0.5 33v11q0 22 -30 51.5t-66.5 55t-66.5 63t-30 73.5q0 27 1 41.5t6.5 35t16.5 31.5t32.5 20.5t52.5 11.5l1 88q36 0 41.5 -5.5t6.5 -40.5l1 -48l64 -9q0 -52 -50 -43l-35 6
q-28 0 -45.5 -6t-24 -20t-8 -24.5t-1.5 -32.5q0 -24 31.5 -54.5t68.5 -55t68.5 -60.5t31.5 -70q0 -30 -0.5 -45.5t-5.5 -41.5t-14.5 -40t-28.5 -27t-47 -18l-1 -117q-36 0 -41.5 5.5t-6.5 40.5z" />
    <glyph glyph-name="percent" unicode="%" horiz-adv-x="611" 
d="M142 415q-53 0 -74 33.5t-21 133.5q0 68 10.5 101.5t28.5 43t56 9.5q37 0 55.5 -9.5t29 -43t10.5 -101.5q0 -100 -21 -133.5t-74 -33.5zM142 463q27 0 38 22t11 95q0 51 -6.5 75t-15 28.5t-27.5 4.5t-27.5 -4.5t-15 -28.5t-6.5 -75q0 -73 11 -95t38 -22zM438 -7
q-53 0 -74 33.5t-21 133.5q0 68 10.5 101.5t28.5 43t56 9.5q37 0 55.5 -9.5t29 -43t10.5 -101.5q0 -100 -21 -133.5t-74 -33.5zM438 41q27 0 38 22t11 95q0 51 -6.5 75t-15 28.5t-27.5 4.5t-27.5 -4.5t-15 -28.5t-6.5 -75q0 -73 11 -95t38 -22zM182 0h-68l294 732h68z" />
    <glyph glyph-name="ampersand" unicode="&#x26;" horiz-adv-x="536" 
d="M366 207v134l4 25h-53v54h53l-4 25v44q46 0 55 -6t9 -40l-4 -23h81q0 -36 -7.5 -45t-42.5 -9h-31l4 -25v-134q0 -107 -45.5 -160.5t-145.5 -53.5t-145.5 53t-45.5 162q0 63 24.5 112t61.5 77q-25 18 -35.5 28t-21 37.5t-10.5 67.5q0 171 142 171l120 -9q0 -10 -0.5 -15
t-0.5 -10.5t-2.5 -8t-3 -4.5t-6.5 -3t-8.5 -2t-12.5 -2t-16 -2h-70q-39 0 -58.5 -22.5t-19.5 -92.5q0 -37 5 -59t19 -32t27.5 -12t40.5 -2v-59q-48 0 -80 -42.5t-32 -116.5q0 -158 128 -158q127 0 127 158z" />
    <glyph glyph-name="quotesingle" unicode="'" horiz-adv-x="165" 
d="M71 505l-39 25q12 43 18 74.5t6 43.5t-1.5 24.5t-1.5 14.5q0 19 13.5 32t32.5 13t32.5 -13.5t13.5 -33.5q0 -19 -18.5 -64t-36.5 -81z" />
    <glyph glyph-name="parenleft" unicode="(" horiz-adv-x="248" 
d="M237 -110q-113 0 -153 73q-34 61 -37 234q-1 39 -1 129q0 223 14 296q21 107 92 136q35 14 85 14q0 -35 -6.5 -41t-43.5 -6q-50 0 -66 -88q-12 -66 -12 -292q0 -249 9 -312q14 -89 61 -95q4 -1 8 -1q37 0 43.5 -6t6.5 -41z" />
    <glyph glyph-name="parenright" unicode=")" horiz-adv-x="249" 
d="M11 -110q0 35 6.5 41t43.5 6q53 0 65.5 78.5t12.5 291.5q0 252 -10 317q-19 97 -68 101q-37 0 -43.5 6t-6.5 41q113 0 154 -78q33 -66 36 -247q1 -38 1 -121q0 -220 -13 -290q-20 -103 -89 -131q-35 -15 -89 -15z" />
    <glyph glyph-name="asterisk" unicode="*" horiz-adv-x="302" 
d="M234 520l-45 -25l-40 78l-38 -76l-44 25l47 70l-85 -5v51l87 -5l-49 73l44 26l40 -78l38 77l44 -26l-47 -72l84 5l1 -51l-88 5z" />
    <glyph glyph-name="plus" unicode="+" horiz-adv-x="243" 
d="M147 208h-51v67l4 25h-85v51h85l-4 25v66h51v-66l-4 -25h86v-51h-86l4 -25v-67z" />
    <glyph glyph-name="comma" unicode="," horiz-adv-x="154" 
d="M65 -114l-33 18q21 51 24.5 81t-3 45t-6.5 16q0 19 13.5 32t32.5 13q40 0 40 -40q0 -19 -17 -60t-34 -73z" />
    <glyph glyph-name="hyphen" unicode="-" horiz-adv-x="336" 
d="M274 300h-214v51h214v-51z" />
    <glyph glyph-name="period" unicode="." horiz-adv-x="177" 
d="M89 0q-19 0 -32.5 13.5t-13.5 32.5t13.5 32t32.5 13t32.5 -13t13.5 -32t-13.5 -32.5t-32.5 -13.5z" />
    <glyph glyph-name="slash" unicode="/" horiz-adv-x="372" 
d="M73 -200h-64l294 932h64z" />
    <glyph glyph-name="zero" unicode="0" horiz-adv-x="410" 
d="M206 -7q-89 0 -120 69q-25 57 -26 228v76q0 198 13 258q18 83 79 101q23 7 54 7q89 0 118 -65q25 -55 27 -221v-80q0 -200 -13 -261q-18 -87 -81 -106q-22 -6 -51 -6zM206 59q56 0 69 65.5t13 240.5t-13 238.5t-69 63.5q-54 0 -70 -66q-13 -51 -13 -235q0 -187 13 -238
q16 -69 70 -69z" />
    <glyph glyph-name="one" unicode="1" horiz-adv-x="410" 
d="M118 57h55v610l-63 -10v53l63 10h5q43 0 50.5 -6t7.5 -40v-617h107v-57h-283q0 41 7.5 49t50.5 8z" />
    <glyph glyph-name="two" unicode="2" horiz-adv-x="410" 
d="M335 0h-273v229q0 38 21 77t51 71l60 63t51 65.5t21 67.5q0 28 -2 42t-11.5 30.5t-32 23t-60.5 6.5h-50q-37 0 -43.5 6t-6.5 41l106 10q36 0 62.5 -4.5t45 -10t30 -18.5t18 -23t9.5 -32t3.5 -35.5t0.5 -42.5q0 -50 -32.5 -102t-71 -89t-71 -79.5t-32.5 -74.5v-139l-4 -25
h211v-57z" />
    <glyph glyph-name="three" unicode="3" horiz-adv-x="410" 
d="M60 10v49q7 -1 45 -5.5t59 -4.5q59 0 71 32.5t12 159.5q0 126 -10 154q-12 32 -54 35q-8 1 -19 1h-49l98 236h-152v53h239l-97 -237q27 -2 44.5 -7t30 -18.5t18.5 -26t9.5 -43t4 -54.5t0.5 -74q0 -154 -9 -192q-12 -53 -58 -67q-27 -8 -74 -8q-16 0 -34 2.5t-41 7.5
t-34 7z" />
    <glyph glyph-name="four" unicode="4" horiz-adv-x="410" 
d="M294 0h-2q-43 0 -50.5 6t-7.5 40v177l4 25h-218l200 472h74v-395l-4 -25h44v-52h-44l4 -25v-223zM238 300l-4 25v295h-8l-114 -320h126z" />
    <glyph glyph-name="five" unicode="5" horiz-adv-x="410" 
d="M169 -7l-109 7v46h104q59 0 71 34t12 161q0 126 -10 154q-12 32 -54 35q-8 1 -19 1h-103v289h239v-53h-180l4 -25v-133l-4 -25h76q19 0 34 -3t26.5 -6.5t20 -14t14 -18t9.5 -26.5t6 -31.5t3 -41t1 -46v-56.5v-55.5t-1 -46t-2.5 -40t-5.5 -31t-9 -26.5t-12.5 -18.5
t-17.5 -15l-24 -8.5t-30.5 -6t-38.5 -1z" />
    <glyph glyph-name="six" unicode="6" horiz-adv-x="410" 
d="M189 438l-63 -23q-1 -15 -3 -118q0 -153 9 -191q13 -53 57 -53q59 0 71 33t12 162q0 127 -12 158.5t-71 31.5zM130 466l59 25q22 0 39.5 -1t32 -5.5t24.5 -8t18.5 -14.5l13.5 -17.5t8.5 -25.5l5.5 -30.5t3 -39.5t1 -45.5v-55.5q0 -143 -12 -182q-15 -48 -67 -60
q-25 -6 -67 -6q-31 0 -53 7t-36.5 26.5t-22.5 39t-11.5 60t-4.5 72.5t-1 92q0 54 0.5 89t2.5 81t6 75t10.5 63t17 54t25 38.5t34.5 26.5t45 8l120 -10q0 -35 -6.5 -41t-43.5 -6h-70q-36 0 -48 -42t-23 -167z" />
    <glyph glyph-name="seven" unicode="7" horiz-adv-x="410" 
d="M124 0h-64l227 667h-207v53h276v-53z" />
    <glyph glyph-name="eight" unicode="8" horiz-adv-x="410" 
d="M146 397q-67 49 -67 162q0 181 132 181q59 0 95 -42.5t36 -138.5q0 -124 -65 -171q85 -64 85 -180q0 -103 -40.5 -159t-110.5 -56q-71 0 -111 55t-40 160q0 63 24.5 112t61.5 77zM211 49q87 0 87 158q0 73 -26 116t-61 43q-36 0 -62 -43t-26 -116q0 -158 88 -158z
M211 425q35 0 51.5 30t16.5 104q0 72 -16.5 98.5t-51.5 26.5q-36 0 -52 -26t-16 -99q0 -74 16.5 -104t51.5 -30z" />
    <glyph glyph-name="nine" unicode="9" horiz-adv-x="410" 
d="M206 294l64 32q2 38 2 109q0 170 -8 202q-9 35 -38 40q-8 2 -20 2q-59 0 -71 -33t-12 -162q0 -127 12 -158.5t71 -31.5zM184 0l-120 10v47h120q34 0 53 51.5t29 166.5l-60 -34q-22 0 -39.5 1t-32 5.5t-24.5 8t-18.5 14.5l-13.5 17.5t-8.5 25.5l-5.5 30.5t-3 39.5t-1 45.5
v55.5q0 143 12 182q15 48 67 60q25 6 67 6q22 0 38 -2.5t29 -6t22.5 -14.5l16.5 -19.5t11 -30t6.5 -38t3.5 -50.5t1.5 -60.5t0.5 -75.5v-72t-1 -66t-3.5 -63.5l-6 -56t-9 -51.5t-13.5 -42.5t-19.5 -36t-25.5 -25t-32.5 -17.5t-40.5 -5z" />
    <glyph glyph-name="colon" unicode=":" horiz-adv-x="181" 
d="M87 0q-19 0 -32.5 13.5t-13.5 32.5t13.5 32t32.5 13t32.5 -13t13.5 -32t-13.5 -32.5t-32.5 -13.5zM94 446q-19 0 -32.5 13.5t-13.5 32.5t13.5 32t32.5 13t32.5 -13t13.5 -32t-13.5 -32.5t-32.5 -13.5z" />
    <glyph glyph-name="semicolon" unicode=";" horiz-adv-x="153" 
d="M88 446q-19 0 -32.5 13.5t-13.5 32.5t13.5 32t32.5 13t32.5 -13t13.5 -32t-13.5 -32.5t-32.5 -13.5zM65 -114l-33 18q21 51 24.5 81t-3 45t-6.5 16q0 19 13.5 32t32.5 13q40 0 40 -40q0 -19 -17 -60t-34 -73z" />
    <glyph glyph-name="less" unicode="&#x3c;" horiz-adv-x="237" 
d="M198 57h-55l-133 231v26l133 223h54l-138 -236z" />
    <glyph glyph-name="equal" unicode="=" horiz-adv-x="363" 
d="M333 351h-273v51h273v-51zM333 247h-273v51h273v-51z" />
    <glyph glyph-name="greater" unicode="&#x3e;" horiz-adv-x="236" 
d="M93 57h-55l139 244l-138 236h54l133 -223v-26z" />
    <glyph glyph-name="question" unicode="?" horiz-adv-x="339" 
d="M106 0q-19 0 -32.5 13.5t-13.5 32.5t13.5 32t32.5 13t32.5 -13t13.5 -32t-13.5 -32.5t-32.5 -13.5zM133 198h-58v31q0 38 17 77t41 71l48 63t41 65.5t17 67.5q0 53 -20 77.5t-92 24.5h-40q-37 0 -43.5 6t-6.5 41l96 10q35 0 61.5 -4t44.5 -10t30 -18.5t18.5 -22.5
t9.5 -31t3.5 -34.5t0.5 -41.5q0 -51 -26.5 -102.5t-57.5 -87t-57.5 -77.5t-26.5 -74v-31z" />
    <glyph glyph-name="at" unicode="@" horiz-adv-x="556" 
d="M320 236l-2 11v103q-76 0 -76 -20l-1 -66q-1 -58 7 -60zM428 -16h-236q-82 0 -111 62q-27 57 -29 236v117q0 68 22 97t102 35l242 13q58 3 77.5 -22t19.5 -75v-157q0 -33 -0.5 -48.5t-4.5 -34t-11.5 -25.5t-22.5 -14.5t-36 -9t-54 -1.5q-35 0 -47.5 7.5t-19.5 24.5
l-62 -37q-20 0 -29.5 0.5t-19 6t-12.5 11t-6 24t-3 35v54.5v36q0 81 136 83h46v-173l-7 -19h24q53 0 63 13t10 65v165q0 38 -40 36l-243 -16q-24 -1 -38 -7t-20 -17.5t-7 -20.5t-1 -27q0 -219 13 -291.5t72 -72.5h181q39 0 45.5 -7t6.5 -46z" />
    <glyph glyph-name="A" unicode="A" horiz-adv-x="435" 
d="M410 0h-5q-45 0 -53.5 6t-16.5 40l-44 199h-152l-54 -245h-5h-27.5t-15.5 2t-10 5t-2 9q0 8 158 704h64zM284 300l-9 25l-50 267h-19l-49 -267l-9 -25h136z" />
    <glyph glyph-name="B" unicode="B" horiz-adv-x="421" 
d="M199 -7l-124 7v722l104 10q37 0 65 -5t46.5 -12t31 -23t19 -28t9.5 -37t3.5 -41t0.5 -49q0 -45 -1 -65t-8 -42t-22 -35q22 -12 35 -32t18.5 -52t6.5 -54t1 -63q0 -32 -0.5 -49t-4 -42.5t-10.5 -38.5t-20.5 -29t-33 -23.5t-48.5 -13t-68 -5.5zM134 419h35q23 0 39.5 0.5
t30 4t21.5 6t14 11.5t8.5 14.5t4.5 21.5t2 26.5v33.5q0 31 -0.5 45t-4 34t-10.5 28t-20.5 17t-34 11.5t-50.5 2.5h-35l4 -25v-206zM134 50h65q36 0 58.5 6.5t35.5 15t18.5 30.5t6.5 38.5t1 53.5v34.5t-0.5 29t-2 26.5t-4 20.5t-6.5 19t-10 13.5t-14 11.5t-18.5 7t-24 5.5
t-30.5 1h-75l4 -25v-262z" />
    <glyph glyph-name="C" unicode="C" horiz-adv-x="377" 
d="M337 67v-57q-11 -2 -44.5 -9.5t-56.5 -7.5q-28 0 -51 6.5t-39.5 16t-29.5 29t-21.5 35.5t-14.5 46.5t-9 50.5t-4.5 59.5t-1.5 62v67.5v61t1 55.5t3.5 54l6.5 47t10.5 43.5l15.5 35t21.5 30.5t29 21t37.5 14.5t46 4l100 -20q0 -29 -12.5 -37t-37.5 -6l-50 6
q-20 0 -35.5 -5.5t-27 -19t-19.5 -26.5t-12.5 -39l-7.5 -44.5t-4.5 -54t-1.5 -56.5v-64v-63t1.5 -57t4.5 -54l7.5 -44t12.5 -39t19.5 -27t27 -19.5t35.5 -5.5q23 0 55 4.5t46 5.5z" />
    <glyph glyph-name="D" unicode="D" horiz-adv-x="472" 
d="M236 -7l-161 7v722l161 10q25 0 46 -4t37.5 -14.5t29 -21t21.5 -30.5l15.5 -35t10.5 -43.5l6.5 -47t3.5 -54t1 -55.5v-61v-67.5t-1.5 -62t-4.5 -59.5t-9 -50.5t-14.5 -46.5t-21.5 -35.5t-29.5 -29t-39.5 -16t-51 -6.5zM134 50h102q20 0 35.5 6t27 20t19.5 28t12.5 40.5
l7.5 45t4.5 55t1.5 57.5v64v64t-1.5 56.5t-4.5 54l-7.5 44.5t-12.5 39t-19.5 26.5t-27 19t-35.5 5.5h-102l4 -25v-575z" />
    <glyph glyph-name="E" unicode="E" horiz-adv-x="385" 
d="M348 0h-273v720h263v-53h-201l4 -25v-199l-4 -25h187v-57h-187l4 -25v-254l-4 -25h211v-57z" />
    <glyph glyph-name="F" unicode="F" horiz-adv-x="375" 
d="M141 0h-8q-43 0 -50.5 6t-7.5 40v674h263v-53h-201l4 -25v-199l-4 -25h187v-57h-187l4 -25v-336z" />
    <glyph glyph-name="G" unicode="G" horiz-adv-x="446" 
d="M327 60l-4 25v222q0 43 6 50.5t40 7.5h17v-355q-15 -2 -44 -7t-52 -7.5t-44 -2.5q-28 0 -51 6.5t-39.5 16t-29.5 29t-21.5 35.5t-14.5 46.5t-9 50.5t-4.5 59.5t-1.5 62v67.5v61t1 55.5t3.5 54l6.5 47t10.5 43.5l15.5 35t21.5 30.5t29 21t37.5 14.5t46 4l120 -20
q0 -29 -12.5 -37t-37.5 -6l-70 6q-20 0 -35.5 -5.5t-27 -19t-19.5 -26.5t-12.5 -39l-7.5 -44.5t-4.5 -54t-1.5 -56.5v-64v-64t1.5 -57.5t4.5 -55l7.5 -45t12.5 -40.5t19.5 -28t27 -20t35.5 -6q16 0 46 4.5t35 5.5z" />
    <glyph glyph-name="H" unicode="H" horiz-adv-x="457" 
d="M382 0h-4q-43 0 -50.5 6t-7.5 40v290l4 25h-191l4 -25v-290q0 -34 -7.5 -40t-50.5 -6h-4v720h4q43 0 50.5 -6t7.5 -40v-231l-4 -25h191l-4 25v277h4q43 0 50.5 -6t7.5 -40v-674z" />
    <glyph glyph-name="I" unicode="I" horiz-adv-x="213" 
d="M138 0h-5q-43 0 -50.5 6t-7.5 40v674h5q43 0 50.5 -6t7.5 -40v-674z" />
    <glyph glyph-name="J" unicode="J" horiz-adv-x="246" 
d="M15 -200v50q19 0 34 4.5t25.5 17t18 23.5t12.5 35t7.5 40.5t4 51t1.5 55v62.5v581h5q43 0 50.5 -6t7.5 -40v-535q0 -169 -15 -227q-23 -90 -102 -107q-22 -5 -49 -5z" />
    <glyph glyph-name="K" unicode="K" horiz-adv-x="412" 
d="M375 0h-4q-47 0 -61 6.5t-30 39.5l-129 317l149 357h4q32 0 42.5 -2t10.5 -10q0 -4 -138 -345zM79 0h-4v720h4q43 0 50.5 -6t7.5 -40v-628q0 -34 -7.5 -40t-50.5 -6z" />
    <glyph glyph-name="L" unicode="L" horiz-adv-x="361" 
d="M324 0h-249v720h8q43 0 50.5 -6t7.5 -40v-592l-4 -25h129q43 0 50.5 -6t7.5 -40v-11z" />
    <glyph glyph-name="M" unicode="M" horiz-adv-x="584" 
d="M508 0h-4q-43 0 -50 5.5t-8 40.5l4 532h-11l-4 -18l-101 -213l-24 -46h-40l-25 45l-103 214l-3 18h-10l3 -532q0 -34 -7 -40t-50 -6h-4v720h5q43 0 52.5 -6t26.5 -40l127 -274h15l149 320h5q43 0 50 -6t7 -40v-674z" />
    <glyph glyph-name="N" unicode="N" horiz-adv-x="455" 
d="M384 0h-4q-43 0 -52 6t-22 40l-162 475l-5 27h-7v-502q0 -34 -7 -40t-50 -6h-4v720h5q42 0 51 -5.5t22 -40.5l162 -486l5 -27h7v559h4q43 0 50 -6t7 -40v-674z" />
    <glyph glyph-name="O" unicode="O" horiz-adv-x="481" 
d="M241 -7q-104 0 -140 85.5t-36 287.5q0 201 36 283.5t140 82.5t139.5 -82.5t35.5 -283.5q0 -202 -35.5 -287.5t-139.5 -85.5zM241 50q63 0 85.5 76.5t22.5 238.5q0 79 -4.5 133t-16.5 95.5t-33.5 61.5t-53.5 20q-63 0 -86 -74.5t-23 -234.5q0 -107 8 -172t32.5 -104.5
t68.5 -39.5z" />
    <glyph glyph-name="P" unicode="P" horiz-adv-x="459" 
d="M80 0h-5v722l134 10q39 0 68.5 -5t49 -12t33 -23t20 -28t10 -37t4 -41t0.5 -49q0 -45 -1.5 -67t-11 -51.5t-28.5 -43t-54.5 -23.5t-89.5 -10h-75l4 -25v-271q0 -34 -8 -40t-50 -6zM134 399h75q30 0 50.5 2.5t34 11.5t20.5 17t10.5 28t4 34t0.5 45t-0.5 45t-4 34t-10.5 28
t-20.5 17t-34 11.5t-50.5 2.5h-75l4 -25v-226z" />
    <glyph glyph-name="Q" unicode="Q" horiz-adv-x="468" 
d="M568 -116v-19q0 -27 -7.5 -31.5t-51.5 -4.5q-30 0 -189.5 23.5t-194.5 23.5q-3 0 -7 -0.5t-5 -0.5l-13 2v17q0 23 7 27l94 76q-78 15 -107 101.5t-29 267.5q0 199 37 282.5t139 83.5t138.5 -83.5t36.5 -282.5q0 -170 -24.5 -255.5t-90.5 -108.5l-110 -79q27 -2 168.5 -20
t179.5 -18q12 0 16 1zM241 50q64 0 88 77t24 238q0 79 -5 133t-17 95.5t-34 61.5t-56 20q-65 0 -89 -74.5t-24 -234.5q0 -79 5 -134t17.5 -98t35 -63.5t55.5 -20.5z" />
    <glyph glyph-name="R" unicode="R" horiz-adv-x="453" 
d="M416 0h-4q-51 0 -63 6t-27 40l-135 296h-53l4 -25v-271h1q0 -34 -7.5 -40t-50.5 -6h-6v722l114 10q35 0 61 -5t43.5 -12t29.5 -23t18 -28t9 -37t3.5 -41t0.5 -49q0 -38 -1.5 -62.5t-7.5 -51t-17 -42t-30.5 -26t-47.5 -12.5zM134 399h55q30 0 49 6t29.5 13.5t15 28.5
t5.5 37t1 53t-1 53t-5.5 37t-15 28.5t-29.5 13.5t-49 6h-51v-25v-226z" />
    <glyph glyph-name="S" unicode="S" horiz-adv-x="391" 
d="M182 -7l-145 20v56l146 -10q22 0 39 4t28.5 9t19 17t11.5 19.5t5.5 25.5t2 26.5t0 30.5t-0.5 30q0 28 -25.5 60.5t-62 64l-73.5 64.5t-62.5 74t-25.5 82q0 30 0.5 42.5t3 35t8.5 32t17.5 23.5t29 19t43 9.5t60.5 4.5l106 -20q0 -21 -6 -30.5t-14 -10.5t-24 0l-56 6
q-36 0 -58 -7t-31.5 -23.5t-12 -31.5t-2.5 -42q0 -28 18.5 -56.5t46.5 -52l60 -51.5l60 -53.5t46.5 -59t18.5 -67.5q0 -103 -9 -138q-26 -96 -145 -102h-17z" />
    <glyph glyph-name="T" unicode="T" horiz-adv-x="333" 
d="M141 0h-8v642l4 25h-112v53h283v-53h-113l4 -25v-596q0 -34 -7.5 -40t-50.5 -6z" />
    <glyph glyph-name="U" unicode="U" horiz-adv-x="468" 
d="M333 297v423h7q43 0 50.5 -6t7.5 -40v-377q0 -159 -14 -209q-20 -71 -86 -88q-27 -7 -63 -7q-26 0 -47 4t-37 9.5t-28 19.5t-20 24.5t-13 34.5l-8 39.5t-4.5 49.5t-1.5 54.5v64.5v4v423h7q43 0 50.5 -6t7.5 -40v-377v-19q0 -51 0.5 -73.5t3 -55t8 -46t16 -28.5t27 -20
t39.5 -5q64 0 83 52q15 40 15 181v14z" />
    <glyph glyph-name="V" unicode="V" horiz-adv-x="416" 
d="M242 0h-64l-153 720h15q37 0 45 -6t15 -40l108 -547h13l109 593h15q28 0 36.5 -2t8.5 -13q0 -52 -148 -705z" />
    <glyph glyph-name="W" unicode="W" horiz-adv-x="609" 
d="M460 0h-64l-82 409h-13l-84 -409h-64l-123 720h17q38 0 46 -6t14 -40l71 -546h13l69 338l16 54h62l15 -55l69 -337h13l80 592h17q29 0 37.5 -2t8.5 -13q0 -56 -118 -705z" />
    <glyph glyph-name="X" unicode="X" horiz-adv-x="383" 
d="M355 0h-21q-33 0 -40.5 5.5t-19.5 40.5l-71 237h-19l-76 -237q-14 -34 -21 -40t-39 -6h-23l132 356l-122 364h23q32 0 40 -6t20 -40l75 -253h19l88 299h6q31 0 41 -2t10 -10q0 -31 -124 -352z" />
    <glyph glyph-name="Y" unicode="Y" horiz-adv-x="375" 
d="M221 0h-5q-43 0 -50.5 6t-7.5 40v301l-133 373h15q38 0 46.5 -5.5t20.5 -40.5l81 -242h5l101 288h11q27 0 35.5 -1.5t8.5 -9.5q0 -33 -128 -362v-347z" />
    <glyph glyph-name="Z" unicode="Z" horiz-adv-x="370" 
d="M320 0h-283v57l227 610h-217q0 40 6 46.5t40 6.5h240v-53l-230 -610h159q43 0 50.5 -8t7.5 -49z" />
    <glyph glyph-name="bracketleft" unicode="[" horiz-adv-x="201" 
d="M193 -70h-80q-40 0 -46.5 6t-6.5 40v796h80q40 0 46.5 -6t6.5 -40h-80v-750h27q40 0 46.5 -6t6.5 -40z" />
    <glyph glyph-name="backslash" unicode="\" horiz-adv-x="372" 
d="M363 -200h-64l-294 932h64z" />
    <glyph glyph-name="bracketright" unicode="]" horiz-adv-x="204" 
d="M88 -70h-80q0 34 6.5 40t46.5 6h27v750h-80q0 34 6.5 40t46.5 6h80v-796q0 -34 -6.5 -40t-46.5 -6z" />
    <glyph glyph-name="asciicircum" unicode="^" horiz-adv-x="411" 
d="M373 607l-168 76l-167 -76v55l154 70h26l155 -71v-54z" />
    <glyph glyph-name="underscore" unicode="_" horiz-adv-x="613" 
d="M552 -1h-492v51h492v-51z" />
    <glyph glyph-name="grave" unicode="`" horiz-adv-x="172" 
d="M124 587l-115 114l7 7q24 24 32 24q10 0 43 -33l68 -76z" />
    <glyph glyph-name="a" unicode="a" horiz-adv-x="342" 
d="M234 352l-4 25v38v18q0 40 -9.5 50.5t-45.5 10.5l-50 -10q-10 -2 -15 -2q-35 0 -35 45l100 17q24 0 41.5 -2.5t30 -5.5t20 -12.5t12 -16.5t6 -24.5t2 -29.5t0.5 -38v-415q-45 0 -53 6.5t-8 43.5q-10 -6 -27.5 -22t-33 -25.5t-31.5 -9.5q-50 0 -65 23q-18 27 -19 147v82
q0 33 15 55.5t42.5 33t56.5 14.5t66 4h4zM230 94l-4 25v152l4 25h-4q-58 0 -87.5 -8.5t-29.5 -34.5q0 -183 8 -200q4 -7 16 -7q16 0 32.5 8t35 21.5t29.5 18.5z" />
    <glyph glyph-name="b" unicode="b" horiz-adv-x="373" 
d="M192 -7l-79 60q0 -40 -7.5 -46.5t-50.5 -6.5v732q43 0 50.5 -6t7.5 -40v-170l74 28q22 0 40 -3.5t31.5 -8t23.5 -16.5t17 -22t11.5 -30.5t7 -36t3.5 -46t1.5 -52.5t0.5 -62q0 -154 -12 -198q-16 -59 -72 -72q-20 -4 -47 -4zM109 92l82 -46q48 0 62 44q11 34 11 177
q0 139 -11 176q-15 48 -62 48l-82 -25l4 -25v-324z" />
    <glyph glyph-name="c" unicode="c" horiz-adv-x="313" 
d="M268 10l-87 -17q-25 0 -43.5 3t-32.5 13t-23 18.5t-15.5 30.5t-9.5 37t-4.5 49.5t-2 56.5t-0.5 70v61.5t1 51.5t3.5 45.5t7 35.5t11 30.5l16 20.5t23 16.5t30.5 8t39 3.5l83 -13q0 -52 -50 -43l-33 3q-48 0 -62 -44q-11 -34 -11 -176q0 -144 12 -180q14 -45 61 -45l87 10
v-46z" />
    <glyph glyph-name="d" unicode="d" horiz-adv-x="378" 
d="M260 53l-79 -60q-83 0 -109 50q-21 41 -22 173v51q0 40 0.5 62t1.5 52.5t3.5 46t7 36t11.5 30.5t17 22t23.5 16.5t31.5 8t40 3.5l74 -28v216q44 0 51 -6t7 -40v-686q-44 0 -51 6.5t-7 46.5zM264 91l-4 25v324l4 25l-82 26q-18 0 -30.5 -5.5t-20.5 -20t-12.5 -28.5
t-6.5 -43.5t-2.5 -51t-0.5 -64.5q0 -148 9 -183q21 -46 64 -49z" />
    <glyph glyph-name="e" unicode="e" horiz-adv-x="353" 
d="M306 61v-51q-77 -17 -117 -17q-21 0 -37.5 1.5t-30 8l-23.5 11t-18 18l-13 22t-8 29.5l-5 34t-3 42.5t-1 47.5v56v57t1 48.5t3 43.5t5 35t8 31.5t13 23.5t18 19.5t23.5 12t30 8.5t37.5 2t38 -3t28.5 -12t20 -17t14 -26t8.5 -30.5t4.5 -39t1.5 -43v-51.5l4 -54l-204 -5
l4 -25q0 -44 0.5 -63.5t2.5 -47t7 -38t14 -22.5t23 -15.5t34 -3.5q61 0 117 13zM252 317l-5 26q0 80 -11 114t-47 34q-22 0 -37 -7t-22.5 -16.5t-11 -32t-4 -40t-0.5 -53.5l-4 -25h142z" />
    <glyph glyph-name="f" unicode="f" horiz-adv-x="231" 
d="M66 -200l1 653l5 30h-54v54h54l-5 30v11q0 28 0.5 41.5t2.5 32.5t6.5 27.5t12.5 19.5t20 15.5t30 9t41 6t55 1.5v-47q-78 0 -93.5 -15.5t-15.5 -90.5v-11l-5 -30h90v-54h-91l5 -30v-596q-1 -43 -8 -50t-51 -7z" />
    <glyph glyph-name="g" unicode="g" horiz-adv-x="398" 
d="M207 -200h-45q-37 0 -43.5 6t-6.5 41l95 7q28 0 44.5 4.5t24 16t9 23t1.5 34.5q0 17 -1.5 26t-8.5 18.5t-23 13t-43 3.5q-113 0 -134 9q-22 9 -24 46q-1 10 -1 32q0 47 12.5 69.5t38.5 34.5q-29 21 -40 50.5t-11 114.5q0 39 1.5 63t6.5 49t14.5 38t25.5 24.5t40.5 16
t58.5 4.5h155q0 -37 -6.5 -43.5t-44.5 -6.5q16 -30 19 -56t3 -139q0 -45 -3 -69.5t-15.5 -46.5t-38 -30.5t-69.5 -8.5q-24 0 -38 -0.5t-25 -3.5t-16 -5.5t-8 -11.5t-3 -15v-23v-8q0 -20 15 -24t87 -4q84 0 108.5 -20t24.5 -97q0 -76 -25 -104t-111 -28zM198 197q49 0 60 25
t11 108q0 101 -8 124q-13 37 -63 37q-58 0 -73 -25t-15 -117q0 -84 16.5 -118t71.5 -34z" />
    <glyph glyph-name="h" unicode="h" horiz-adv-x="395" 
d="M281 46v221q0 128 -10 176t-53 48l-98 -35l4 -25v-385q0 -34 -7.5 -40t-51.5 -6v732q43 0 50.5 -6t7.5 -40v-179l95 37q78 0 102 -52q19 -42 20 -182v-44v-266q-44 0 -51.5 6t-7.5 40z" />
    <glyph glyph-name="i" unicode="i" horiz-adv-x="203" 
d="M102 629q-19 0 -32.5 13.5t-13.5 32.5q-1 19 13 32t33 13t32.5 -13t13.5 -32t-13.5 -32.5t-32.5 -13.5zM73 42v495q44 0 51.5 -5.5t7.5 -40.5v-495q-44 0 -51.5 5.5t-7.5 40.5z" />
    <glyph glyph-name="j" unicode="j" horiz-adv-x="193" 
d="M87 629q-19 0 -32.5 13.5t-13.5 32.5t13.5 32t32.5 13t32.5 -13t13.5 -32t-13.5 -32.5t-32.5 -13.5zM-49 -200v44q32 0 52.5 7t32 17t17 33t6.5 42t1 57v537q44 0 50.5 -5.5t6.5 -40.5v-491q0 -30 -0.5 -44.5t-3.5 -40t-9 -38.5t-18 -30.5t-29.5 -26t-44 -14.5t-61.5 -6z
" />
    <glyph glyph-name="k" unicode="k" horiz-adv-x="355" 
d="M65 46v686q44 0 51.5 -6t7.5 -40v-686q-44 0 -51.5 6t-7.5 40zM335 0h-65l-134 293l120 244h61l-121 -244z" />
    <glyph glyph-name="l" unicode="l" horiz-adv-x="179" 
d="M65 42v690q44 0 51.5 -6t7.5 -40v-690q-44 0 -51.5 5.5t-7.5 40.5z" />
    <glyph glyph-name="m" unicode="m" horiz-adv-x="603" 
d="M488 46v221v8q0 148 -9 182t-57 34l-93 -31l4 -25v-169v-266q-43 0 -50.5 5.5t-7.5 40.5l-1 221v45q0 37 -0.5 54t-2 43t-5.5 37t-11 23.5t-18.5 17t-27.5 4.5l-94 -35l4 -25v-431q-44 0 -51.5 6t-7.5 40v491q44 0 51.5 -3.5t7.5 -26.5l90 37q72 0 106 -42l107 42
q74 0 96 -24q26 -27 29 -131q1 -34 1 -123v-266q-45 0 -52.5 6t-7.5 40z" />
    <glyph glyph-name="n" unicode="n" horiz-adv-x="390" 
d="M276 46v221q0 159 -9 190t-42 34h-12l-98 -35l4 -25v-431q-44 0 -51.5 6t-7.5 40v491q44 0 51.5 -3.5t7.5 -26.5l90 37q76 0 99 -31q24 -32 26 -146q1 -29 1 -101v-266q-44 0 -51.5 6t-7.5 40z" />
    <glyph glyph-name="o" unicode="o" horiz-adv-x="374" 
d="M187 -7q-26 0 -45.5 3t-34 13t-24 18.5t-16 30.5t-10 37t-5 49.5t-2 56.5t-0.5 70t0.5 69.5t2 56t5 49t10 36t16 29.5t24 17.5t34 12.5t45.5 3q23 0 40.5 -3.5t31.5 -7.5t24 -16.5l17 -21t11 -30l6.5 -35t4 -45.5t1.5 -52v-62v-4v-61.5t-1.5 -51.5t-4 -45.5l-6.5 -35.5
t-11 -30.5l-17 -21t-24 -17t-31.5 -8t-40.5 -3.5zM187 46q19 0 32 4.5t21.5 17t13 25t7 40t3 50t0.5 65.5q0 151 -7 184q-11 50 -50 57q-9 2 -20 2q-19 0 -32.5 -4t-22 -17.5t-13.5 -25.5t-7 -41.5t-2.5 -52t-0.5 -68.5q0 -147 9 -182q12 -49 56 -53q6 -1 13 -1z" />
    <glyph glyph-name="p" unicode="p" horiz-adv-x="380" 
d="M55 -154v691q43 0 50.5 -2.5t7.5 -17.5l80 27q38 0 63 -11.5t40 -30.5t22.5 -57t9.5 -76t2 -103q0 -55 -1.5 -89.5t-6.5 -69t-14 -53t-24.5 -34t-38.5 -21.5t-56 -6l-76 46v-239q-43 0 -50.5 6t-7.5 40zM109 91l78 -45q53 0 68.5 46.5t15.5 174.5q0 120 -16 172t-67 52
l-78 -25l4 -25v-174v-151z" />
    <glyph glyph-name="q" unicode="q" horiz-adv-x="385" 
d="M267 -154v193l-76 -46q-33 0 -56 6t-38.5 21.5t-24.5 34t-14 53t-6.5 69t-1.5 89.5q0 65 2 103t9.5 76t22.5 57t40 30.5t63 11.5l80 -27v20q43 0 50.5 -5.5t7.5 -40.5v-691q-43 0 -50.5 6t-7.5 40zM272 91l-6 25v151v172l5 25l-79 27q-51 0 -67 -52t-16 -172
q0 -128 15.5 -174.5t68.5 -46.5z" />
    <glyph glyph-name="r" unicode="r" horiz-adv-x="269" 
d="M60 46v491q44 0 51.5 -3.5t7.5 -26.5v-11l80 48q17 0 50 -7q0 -35 -6.5 -40.5t-43.5 -5.5l-85 -47l5 -25v-419q-44 0 -51.5 6t-7.5 40z" />
    <glyph glyph-name="s" unicode="s" horiz-adv-x="334" 
d="M51 11v53q4 0 50.5 -5t69.5 -5q60 0 56 118q-1 32 -71 86q-52 39 -81 74t-29 77q0 30 1 44t7 35t18 30.5t35.5 17t58.5 7.5l95 -14q0 -52 -50 -43l-41 6q-25 0 -39.5 -5t-20.5 -17.5t-7.5 -23t-1.5 -30.5q0 -38 78 -100q36 -27 54.5 -43t36 -42t17.5 -50q0 -25 -1 -42.5
t-4.5 -41.5t-11 -40t-19.5 -31t-32 -22.5t-47 -7.5q-17 0 -37.5 2.5t-46 6.5z" />
    <glyph glyph-name="t" unicode="t" horiz-adv-x="229" 
d="M224 0l-69 -5q-63 0 -81 38q-17 34 -17 160v35v230l4 25h-43v54h43l-4 35v44q44 0 51.5 -6t7.5 -40l-4 -33h92q0 -37 -6.5 -45.5t-41.5 -8.5h-44l4 -25v-230q0 -114 6 -148t34 -34h68v-46z" />
    <glyph glyph-name="u" unicode="u" horiz-adv-x="385" 
d="M271 40l-90 -47q-80 0 -105 52q-20 42 -21 179v47v266q44 0 51.5 -5.5t7.5 -40.5v-218q0 -147 12 -185q14 -42 51 -42l99 46l-5 25v420q44 0 51.5 -5.5t7.5 -40.5v-491q-44 0 -51.5 5t-7.5 35z" />
    <glyph glyph-name="v" unicode="v" horiz-adv-x="327" 
d="M122 0l-102 537q42 0 51 -6t15 -40l73 -411h13l82 457q20 0 27.5 -0.5t14.5 -2.5t8.5 -5.5t1.5 -11.5q0 -51 -97 -517h-87z" />
    <glyph glyph-name="w" unicode="w" horiz-adv-x="533" 
d="M333 0l-61 397h-7l-61 -397h-87l-97 537q44 0 52 -6t15 -40l67 -411h8l68 372l12 31h56l10 -31l67 -372h8l78 457q35 0 43 -3t8 -18q0 -52 -92 -516h-87z" />
    <glyph glyph-name="x" unicode="x" horiz-adv-x="318" 
d="M298 0h-57l-79 226h-12l-78 -226q-31 0 -41 1.5t-10 9.5q0 1 12 35l87 246l-89 245q42 0 52 -5.5t23 -38.5l49 -146h12l57 190q29 0 39 -2t10 -10q0 -35 -80 -244z" />
    <glyph glyph-name="y" unicode="y" horiz-adv-x="317" 
d="M26 -200v47q47 0 73.5 32.5t26.5 81.5q0 20 -106 576q44 0 52 -6t15 -40l70 -421h13l73 467q20 0 27.5 -0.5t15 -2.5t9 -5.5t1.5 -11.5q0 -51 -97 -517q-2 -9 -7 -37t-7.5 -38t-9.5 -32.5t-14 -31.5l-19.5 -24t-28 -21t-37.5 -11t-50 -5z" />
    <glyph glyph-name="z" unicode="z" horiz-adv-x="333" 
d="M293 0h-253v53l183 430h-163q0 41 6 47.5t40 6.5h185v-54l-192 -430h136q43 0 50.5 -6.5t7.5 -46.5z" />
    <glyph glyph-name="braceleft" unicode="{" horiz-adv-x="240" 
d="M220 -70h-80q-40 0 -46.5 6t-6.5 40v213l-71 154v26l71 155v248h80q40 0 46.5 -6t6.5 -40h-80v-202l-75 -168l75 -167v-213h27q40 0 46.5 -6t6.5 -40z" />
    <glyph glyph-name="bar" unicode="|" horiz-adv-x="190" 
d="M64 -154v886q44 0 51.5 -6t7.5 -40v-886q-44 0 -51.5 6t-7.5 40z" />
    <glyph glyph-name="braceright" unicode="}" horiz-adv-x="239" 
d="M100 -70h-80q0 34 6.5 40t46.5 6h27v213l75 167l-75 168v202h-80q0 34 6.5 40t46.5 6h80v-248l71 -155v-26l-71 -154v-213q0 -34 -6.5 -40t-46.5 -6z" />
    <glyph glyph-name="asciitilde" unicode="~" horiz-adv-x="377" 
d="M323 349v-21q0 -22 -7.5 -26t-51.5 -4q-24 0 -101.5 6.5t-101.5 1.5l-13 2v21q0 23 7.5 26.5t51.5 3.5q23 0 101 -6.5t102 -1.5z" />
    <glyph glyph-name="uni00A0" unicode="&#xa0;" horiz-adv-x="190" 
 />
    <glyph glyph-name="exclamdown" unicode="&#xa1;" horiz-adv-x="162" 
d="M127 497q0 -19 -13.5 -32.5t-32.5 -13.5t-32.5 13.5t-13.5 32.5t13.5 32t32.5 13t32.5 -13t13.5 -32zM32 -178l20 491q2 35 6 40q6 6 50 6l-10 -491q-1 -34 -10.5 -40t-55.5 -6z" />
    <glyph glyph-name="cent" unicode="&#xa2;" horiz-adv-x="371" 
d="M311 56v-46l-88 -15v-113q-37 0 -43.5 6t-6.5 40v66q-28 3 -47 10.5t-31.5 25.5t-19 34t-10 52.5t-4 63t-0.5 81.5v14q0 49 0.5 71.5t2 57.5t6 49.5t12.5 35t20 29t29.5 16t41.5 9.5v91q37 0 43.5 -6t6.5 -40v-46l88 -5q0 -35 -6.5 -40.5t-43.5 -5.5h-59q-55 0 -71 -44
q-12 -41 -12 -176q0 -139 12 -176q17 -48 71 -49q21 0 61.5 4.5t47.5 5.5z" />
    <glyph glyph-name="sterling" unicode="&#xa3;" horiz-adv-x="381" 
d="M331 -1h-241v206l7 13q-38 3 -61 3q-15 0 -31 -2l-13 2v21q0 22 7.5 26t51.5 4q7 0 45 -2l-6 14v278q43 0 50.5 -6t7.5 -40v-239l-6 -13q39 -3 70 -3q22 0 35 3l13 -2v-21q0 -23 -7.5 -26.5t-51.5 -3.5q-12 0 -58 2l5 -12v-120l-4 -25h129q43 0 50.5 -6t7.5 -40v-11z" />
    <glyph glyph-name="currency" unicode="&#xa4;" horiz-adv-x="486" 
d="M330 378q0 31 -23.5 54t-55.5 23q-33 0 -56 -22.5t-23 -54.5q0 -33 23 -55.5t56 -22.5q32 0 55.5 22.5t23.5 55.5zM358 233l-34 35l1 1q-35 -22 -74 -22q-37 0 -69 19l-75 -65q-24 24 -23.5 32.5t26.5 35.5l35 34q-27 37 -27 75q0 42 24 72l-65 75q24 24 32.5 23.5
t35.5 -26.5l34 -35q34 21 72 21q40 0 75 -24l75 65q24 -24 23.5 -32.5t-26.5 -35.5l-35 -34q21 -32 21 -69q0 -38 -23 -73l65 -75q-24 -24 -32.5 -23.5t-35.5 26.5z" />
    <glyph glyph-name="yen" unicode="&#xa5;" horiz-adv-x="402" 
d="M228 0h-5q-41 0 -47.5 6t-6.5 40v31l5 10q-42 3 -67 3q-15 0 -31 -2l-13 2v21q0 23 7.5 26.5t51.5 3.5q9 0 51 -2l-4 10v22l5 12q-42 3 -67 3q-15 0 -31 -2l-13 2v21q0 23 7.5 26.5t51.5 3.5q7 0 53 -2l-6 28l-135 274h15q32 0 41 -6t26 -40l78 -158h12l93 204h15
q27 0 35.5 -1.5t8.5 -9.5q0 -6 -130 -263l-6 -34q40 -3 64 -3q22 0 35 3l13 -2v-21q0 -22 -7.5 -26t-51.5 -4q-11 0 -51 2l4 -10v-26l-4 -9q37 -3 62 -3q22 0 35 3l13 -2v-21q0 -22 -7.5 -26t-51.5 -4q-11 0 -51 2l4 -11v-71z" />
    <glyph glyph-name="brokenbar" unicode="&#xa6;" horiz-adv-x="176" 
d="M60 368v364q45 0 54 -6t9 -40v-364q-47 0 -55 6t-8 40zM60 -150v364q45 0 54 -6t9 -40v-364q-47 0 -55 6t-8 40z" />
    <glyph glyph-name="section" unicode="&#xa7;" horiz-adv-x="326" 
d="M34 20v46q13 -2 39 -8t46.5 -9t39.5 -3q21 0 35 6.5t21.5 15t11 26.5t4 30t0.5 36q0 21 -31 52t-68 58.5t-68 67t-31 75.5q0 31 1 46.5t8.5 34t23.5 29.5q-31 39 -31 77q0 36 2.5 53.5t14.5 39t41 30t77 8.5l95 -14q0 -54 -51 -45l-41 6q-29 0 -45.5 -4.5t-23.5 -16.5
t-8.5 -21.5t-1.5 -30.5q0 -20 20.5 -44t50 -47.5l59 -48.5t50 -54.5t20.5 -57.5q0 -94 -23 -128q21 -31 21 -59q0 -33 -1 -50.5t-8 -45t-20 -41.5t-39.5 -25t-65.5 -11q-19 0 -39.5 4.5t-45.5 12t-39 10.5zM109 478q-17 -12 -17 -60q0 -16 14 -35.5t29.5 -33.5t45.5 -38.5
l45 -37.5q7 20 7 74q0 13 -12.5 30t-27 30t-42.5 36z" />
    <glyph glyph-name="dieresis" unicode="&#xa8;" horiz-adv-x="341" 
d="M99 629q-19 0 -32.5 13.5t-13.5 32.5t13.5 32t32.5 13t32.5 -13t13.5 -32t-13.5 -32.5t-32.5 -13.5zM242 629q-19 0 -32.5 13.5t-13.5 32.5t13.5 32t32.5 13t32.5 -13t13.5 -32t-13.5 -32.5t-32.5 -13.5z" />
    <glyph glyph-name="copyright" unicode="&#xa9;" horiz-adv-x="653" 
d="M406 144l-86 -13q-26 0 -43.5 8.5t-27 19.5t-14 37t-5 45t-0.5 59q0 33 0.5 49t3 39.5t8 34t15 22t25.5 16t38 4.5l75 -5q0 -27 -4 -31.5t-28 -4.5h-43q-17 0 -26.5 -7t-13.5 -26.5t-5 -36t-1 -54.5t1 -54.5t5 -36t13.5 -26.5t26.5 -7l86 10v-42zM326 0
q-122 0 -203.5 85.5t-81.5 209.5q0 123 81.5 209t203.5 86q121 0 203 -86t82 -209q0 -124 -82 -209.5t-203 -85.5zM326 51q100 0 167 71t67 173t-67 173t-167 71t-167 -71t-67 -173t67 -173t167 -71z" />
    <glyph glyph-name="ordfeminine" unicode="&#xaa;" horiz-adv-x="271" 
d="M165 462v88q-38 0 -56 -5t-18 -22q0 -81 7 -88q3 -3 16 -3zM169 429l-57 -40q-22 0 -30.5 2t-18 6.5t-11.5 21.5t-3.5 38t-1.5 65q0 75 122 75v46v8v8t-0.5 6.5t-1 7t-2.5 5.5t-4 5t-5.5 3.5t-7.5 3t-10 1.5t-13 1h-35q-26 0 -30.5 4t-4.5 28l70 9q31 0 49 -5.5
t25.5 -19.5t9 -26t1.5 -39v-249q-31 0 -36 4.5t-5 30.5z" />
    <glyph glyph-name="guillemotleft" unicode="&#xab;" horiz-adv-x="323" 
d="M160 135h-55l-70 154v26l71 155h54l-76 -168zM273 135h-55l-70 154v26l71 155h54l-76 -168z" />
    <glyph glyph-name="logicalnot" unicode="&#xac;" horiz-adv-x="356" 
d="M249 222v80h-220v53h266v-80q0 -40 -5.5 -46.5t-40.5 -6.5z" />
    <glyph glyph-name="registered" unicode="&#xae;" horiz-adv-x="653" 
d="M360 178l-54 103h-14l1 -13v-87q0 -22 -5.5 -25.5t-39.5 -3.5v308l72 5q36 0 56.5 -4.5t29.5 -19t10.5 -27t1.5 -41.5t-0.5 -38.5t-6.5 -24t-20 -20t-40 -8.5l69 -130q-30 0 -40 5t-20 21zM292 322h28q37 0 44.5 8.5t7.5 42.5q0 35 -7 42.5t-45 7.5h-28q0 -1 0.5 -3
l0.5 -2v-83zM326 0q-122 0 -203.5 85.5t-81.5 209.5q0 123 81.5 209t203.5 86q121 0 203 -86t82 -209q0 -124 -82 -209.5t-203 -85.5zM326 51q100 0 167 71t67 173t-67 173t-167 71t-167 -71t-67 -173t67 -173t167 -71z" />
    <glyph glyph-name="macron" unicode="&#xaf;" horiz-adv-x="336" 
d="M274 669h-214v51h214v-51z" />
    <glyph glyph-name="degree" unicode="&#xb0;" horiz-adv-x="348" 
d="M307 601q0 -54 -39.5 -92.5t-93.5 -38.5t-93.5 38.5t-39.5 92.5t39.5 92t93.5 38t93.5 -38t39.5 -92zM253 601q0 31 -23.5 54t-55.5 23q-33 0 -56 -22.5t-23 -54.5q0 -33 23 -55.5t56 -22.5q32 0 55.5 22.5t23.5 55.5z" />
    <glyph glyph-name="plusminus" unicode="&#xb1;" horiz-adv-x="279" 
d="M164 316h-51v67l4 25h-85v51h85l-4 25v66h51v-66l-4 -25h86v-51h-86l4 -25v-67zM246 216h-214v51h214v-51z" />
    <glyph glyph-name="twosuperior" unicode="&#xb2;" horiz-adv-x="270" 
d="M212 423h-148v97q0 22 15 41t33.5 31t33.5 28.5t15 34.5q0 12 -1.5 18.5t-9.5 12t-24 5.5h-31q-24 0 -28 4.5t-4 34.5l65 5q54 -1 68 -20t14 -63q0 -29 -23.5 -53t-48 -44t-26.5 -38v-50h100v-44z" />
    <glyph glyph-name="threesuperior" unicode="&#xb3;" horiz-adv-x="256" 
d="M65 425v41q53 -5 64 -5q18 0 21.5 12.5t3.5 61.5q0 48 -3.5 59.5t-21.5 11.5h-35l42 82h-71v44h137l-53 -94q38 -10 45.5 -27t7.5 -76q0 -72 -12.5 -95t-59.5 -23q-6 0 -65 8z" />
    <glyph glyph-name="acute" unicode="&#xb4;" horiz-adv-x="173" 
d="M163 701l-115 -114l-35 36l68 76q33 33 42 33q7 0 33 -24z" />
    <glyph glyph-name="mu" unicode="&#xb5;" horiz-adv-x="380" 
d="M60 -193v732q44 0 51.5 -5.5t7.5 -40.5v-386l-6 -22l100 -37q15 0 27 3t21 12t15 17t9.5 26.5l6 31t3.5 39.5t1 43.5v51.5v221q0 35 7.5 40.5t51.5 5.5v-266q0 -153 -13 -198q-17 -61 -76 -75q-22 -5 -53 -5l-101 39l6 -30v-151q0 -35 -7.5 -40.5t-50.5 -5.5z" />
    <glyph glyph-name="paragraph" unicode="&#xb6;" horiz-adv-x="510" 
d="M376 0h-63v649l5 19h-99l5 -19v-649h-63v470q-54 1 -92.5 39t-38.5 92q0 53 38.5 91t92.5 39h319v-63h-109l5 -19v-649z" />
    <glyph glyph-name="periodcentered" unicode="&#xb7;" horiz-adv-x="176" 
d="M89 255q-19 0 -32.5 13.5t-13.5 32.5t13.5 32t32.5 13t32.5 -13t13.5 -32t-13.5 -32.5t-32.5 -13.5z" />
    <glyph glyph-name="cedilla" unicode="&#xb8;" horiz-adv-x="177" 
d="M116 -154h-35q-40 0 -46.5 6t-6.5 40h87v109h46v-109q0 -30 -7.5 -38t-37.5 -8z" />
    <glyph glyph-name="onesuperior" unicode="&#xb9;" horiz-adv-x="184" 
d="M132 423h-49v264l-44 -11v46l33 11h28q24 0 28 -5.5t4 -37.5v-267z" />
    <glyph glyph-name="ordmasculine" unicode="&#xba;" horiz-adv-x="282" 
d="M135 391q-56 0 -73 33t-17 144q0 76 7.5 109.5t25 44t57.5 10.5t57.5 -10.5t25 -44t7.5 -109.5q0 -111 -17 -144t-73 -33zM135 442q28 0 36 20.5t8 103.5q0 57 -4.5 81t-12 29t-27.5 5t-27.5 -5t-12 -29t-4.5 -81q0 -82 8 -103t36 -21z" />
    <glyph glyph-name="guillemotright" unicode="&#xbb;" horiz-adv-x="323" 
d="M218 135h-55l76 167l-76 168h54l71 -155v-26zM105 135h-55l76 167l-76 168h54l71 -155v-26z" />
    <glyph glyph-name="onequarter" unicode="&#xbc;" horiz-adv-x="277" 
d="M177 0h-40v57l5 18h-125l112 231h48v-178l-5 -15h28v-38h-28l5 -18v-57zM142 113l-5 15v101l-60 -116h65zM171 423h-49v264l-45 -11v46l34 11h28q24 0 28 -5.5t4 -37.5v-267zM242 342h-203v47h203v-47z" />
    <glyph glyph-name="onehalf" unicode="&#xbd;" horiz-adv-x="302" 
d="M233 0h-148v97q0 21 15 40.5t33.5 33t33.5 30t15 31.5q0 12 -1.5 18.5t-9.5 12t-24 5.5h-31q-24 0 -28 4.5t-4 34.5l65 5q54 -1 68 -20t14 -63q0 -29 -23.5 -53t-48 -44t-26.5 -38v-50h100v-44zM188 423h-49v264l-44 -11v46l33 11h28q24 0 28 -5.5t4 -37.5v-267zM262 342
h-203v47h203v-47z" />
    <glyph glyph-name="threequarters" unicode="&#xbe;" horiz-adv-x="282" 
d="M242 342h-203v47h203v-47zM181 0h-40v57l5 18h-125l112 231h48v-178l-5 -15h28v-38h-28l5 -18v-57zM146 113l-5 15v101l-60 -116h65zM65 425v41q53 -5 64 -5q18 0 21.5 12.5t3.5 61.5q0 48 -3.5 59.5t-21.5 11.5h-35l42 82h-71v44h137l-53 -94q38 -11 45.5 -27.5
t7.5 -75.5q0 -72 -12.5 -95t-59.5 -23q-6 0 -65 8z" />
    <glyph glyph-name="questiondown" unicode="&#xbf;" horiz-adv-x="339" 
d="M279 496q0 -19 -13.5 -32t-32.5 -13t-32.5 13t-13.5 32t13.5 32.5t32.5 13.5t32.5 -13.5t13.5 -32.5zM302 -180l-96 -10q-35 0 -61.5 4t-44.5 10t-30 18.5t-18.5 22.5t-9.5 31t-3.5 34.5t-0.5 41.5q0 42 17.5 83t42 74l49 63.5t42 62t17.5 58.5v31h58v-31q0 -38 -17 -77
t-41 -71l-48 -63t-41 -65.5t-17 -67.5q0 -53 20 -77.5t92 -24.5h40q37 0 43.5 -6t6.5 -41z" />
    <glyph glyph-name="Agrave" unicode="&#xc0;" horiz-adv-x="435" 
d="M410 0h-5q-45 0 -53.5 6t-16.5 40l-44 199h-152l-54 -245h-5h-27.5t-15.5 2t-10 5t-2 9q0 8 158 704h64zM284 300l-9 25l-50 267h-19l-49 -267l-9 -25h136zM186 782l-115 114l7 7q24 24 32 24q10 0 43 -33l68 -76z" />
    <glyph glyph-name="Aacute" unicode="&#xc1;" horiz-adv-x="435" 
d="M410 0h-5q-45 0 -53.5 6t-16.5 40l-44 199h-152l-54 -245h-5h-27.5t-15.5 2t-10 5t-2 9q0 8 158 704h64zM284 300l-9 25l-50 267h-19l-49 -267l-9 -25h136zM345 896l-115 -114l-35 36l68 76q33 33 42 33q7 0 33 -24z" />
    <glyph glyph-name="Acircumflex" unicode="&#xc2;" horiz-adv-x="435" 
d="M410 0h-5q-45 0 -53.5 6t-16.5 40l-44 199h-152l-54 -245h-5h-27.5t-15.5 2t-10 5t-2 9q0 8 158 704h64zM284 300l-9 25l-50 267h-19l-49 -267l-9 -25h136zM335 812l-118 66l-117 -66v55l104 60h26l105 -61v-54z" />
    <glyph glyph-name="Atilde" unicode="&#xc3;" horiz-adv-x="435" 
d="M410 0h-5q-45 0 -53.5 6t-16.5 40l-44 199h-152l-54 -245h-5h-27.5t-15.5 2t-10 5t-2 9q0 8 158 704h64zM284 300l-9 25l-50 267h-19l-49 -267l-9 -25h136zM348 845v-21q0 -22 -7.5 -26t-51.5 -4q-23 0 -59 2t-60.5 2t-43.5 -4l-13 2v21q0 23 7.5 26.5t51.5 3.5
q23 0 59 -2t60.5 -2t43.5 4z" />
    <glyph glyph-name="Adieresis" unicode="&#xc4;" horiz-adv-x="435" 
d="M410 0h-5q-45 0 -53.5 6t-16.5 40l-44 199h-152l-54 -245h-5h-27.5t-15.5 2t-10 5t-2 9q0 8 158 704h64zM284 300l-9 25l-50 267h-19l-49 -267l-9 -25h136zM143 823q-19 0 -32.5 13.5t-13.5 32.5t13.5 32t32.5 13t32.5 -13t13.5 -32t-13.5 -32.5t-32.5 -13.5zM286 823
q-19 0 -32.5 13.5t-13.5 32.5t13.5 32t32.5 13t32.5 -13t13.5 -32t-13.5 -32.5t-32.5 -13.5z" />
    <glyph glyph-name="Aring" unicode="&#xc5;" horiz-adv-x="435" 
d="M410 0h-5q-45 0 -53.5 6t-16.5 40l-44 199h-152l-54 -245h-5h-27.5t-15.5 2t-10 5t-2 9q0 8 158 704h64zM284 300l-9 25l-50 267h-19l-49 -267l-9 -25h136zM297 833q0 -34 -24.5 -58t-58.5 -24t-58.5 24t-24.5 58t24.5 57.5t58.5 23.5t58.5 -23.5t24.5 -57.5zM255 833
q0 16 -12 28t-29 12t-29 -11.5t-12 -28.5t12 -29t29 -12t29 12t12 29z" />
    <glyph glyph-name="AE" unicode="&#xc6;" horiz-adv-x="629" 
d="M590 0h-283v220l4 25h-148l-54 -245h-5h-27.5t-15.5 2t-10 5t-2 9q0 8 5 30l143 674h383v-53h-211l4 -25v-199l-4 -25h197v-57h-197l4 -25v-254l-4 -25h221v-57zM311 300l-4 25v342h-67l-59 -342l-9 -25h139z" />
    <glyph glyph-name="Ccedilla" unicode="&#xc7;" horiz-adv-x="377" 
d="M214 -154h-35q-40 0 -46.5 6t-6.5 40h87v102q-24 2 -44 10.5t-34.5 19t-25.5 30.5t-18.5 35.5t-12.5 45.5t-7.5 49.5t-4 57.5t-1.5 59.5v64.5v61t1 55.5t3.5 54l6.5 47t10.5 43.5l15.5 35t21.5 30.5t29 21t37.5 14.5t46 4l100 -20q0 -29 -12.5 -37t-37.5 -6l-50 6
q-20 0 -35.5 -5.5t-27 -19t-19.5 -26.5t-12.5 -39l-7.5 -44.5t-4.5 -54t-1.5 -56.5v-64v-63t1.5 -57t4.5 -54l7.5 -44t12.5 -39t19.5 -27t27 -19.5t35.5 -5.5q23 0 55 4.5t46 5.5v-57q-15 -2 -39.5 -8t-38.5 -8v-102q0 -30 -7.5 -38t-37.5 -8z" />
    <glyph glyph-name="Egrave" unicode="&#xc8;" horiz-adv-x="385" 
d="M348 0h-273v720h263v-53h-201l4 -25v-199l-4 -25h187v-57h-187l4 -25v-254l-4 -25h211v-57zM243 782l-115 114l7 7q24 24 32 24q10 0 43 -33l68 -76z" />
    <glyph glyph-name="Eacute" unicode="&#xc9;" horiz-adv-x="385" 
d="M348 0h-273v720h263v-53h-201l4 -25v-199l-4 -25h187v-57h-187l4 -25v-254l-4 -25h211v-57zM336 896l-115 -114l-35 36l68 76q33 33 42 33q7 0 33 -24z" />
    <glyph glyph-name="Ecircumflex" unicode="&#xca;" horiz-adv-x="385" 
d="M348 0h-273v720h263v-53h-201l4 -25v-199l-4 -25h187v-57h-187l4 -25v-254l-4 -25h211v-57zM322 812l-118 66l-117 -66v55l104 60h26l105 -61v-54z" />
    <glyph glyph-name="Edieresis" unicode="&#xcb;" horiz-adv-x="385" 
d="M348 0h-273v720h263v-53h-201l4 -25v-199l-4 -25h187v-57h-187l4 -25v-254l-4 -25h211v-57zM144 824q-19 0 -32.5 13.5t-13.5 32.5t13.5 32t32.5 13t32.5 -13t13.5 -32t-13.5 -32.5t-32.5 -13.5zM287 824q-19 0 -32.5 13.5t-13.5 32.5t13.5 32t32.5 13t32.5 -13t13.5 -32
t-13.5 -32.5t-32.5 -13.5z" />
    <glyph glyph-name="Igrave" unicode="&#xcc;" horiz-adv-x="213" 
d="M138 0h-5q-43 0 -50.5 6t-7.5 40v674h5q43 0 50.5 -6t7.5 -40v-674zM131 782l-115 114l7 7q24 24 32 24q10 0 43 -33l68 -76z" />
    <glyph glyph-name="Iacute" unicode="&#xcd;" horiz-adv-x="213" 
d="M138 0h-5q-43 0 -50.5 6t-7.5 40v674h5q43 0 50.5 -6t7.5 -40v-674zM237 896l-115 -114l-35 36l68 76q33 33 42 33q7 0 33 -24z" />
    <glyph glyph-name="Icircumflex" unicode="&#xce;" horiz-adv-x="213" 
d="M138 0h-5q-43 0 -50.5 6t-7.5 40v674h5q43 0 50.5 -6t7.5 -40v-674zM226 812l-118 66l-117 -66v55l104 60h26l105 -61v-54z" />
    <glyph glyph-name="Idieresis" unicode="&#xcf;" horiz-adv-x="213" 
d="M138 0h-5q-43 0 -50.5 6t-7.5 40v674h5q43 0 50.5 -6t7.5 -40v-674zM36 824q-19 0 -32.5 13.5t-13.5 32.5t13.5 32t32.5 13t32.5 -13t13.5 -32t-13.5 -32.5t-32.5 -13.5zM179 824q-19 0 -32.5 13.5t-13.5 32.5t13.5 32t32.5 13t32.5 -13t13.5 -32t-13.5 -32.5
t-32.5 -13.5z" />
    <glyph glyph-name="Eth" unicode="&#xd0;" horiz-adv-x="463" 
d="M241 -7l-181 7v722l181 10q25 0 46 -4t37.5 -14.5t29 -21t21.5 -30.5l15.5 -35t10.5 -43.5l6.5 -47t3.5 -54t1 -55.5v-61v-67.5t-1.5 -62t-4.5 -59.5t-9 -50.5t-14.5 -46.5t-21.5 -35.5t-29.5 -29t-39.5 -16t-51 -6.5zM118 50h123q20 0 35.5 6t27 20t19.5 28t12.5 40.5
l7.5 45t4.5 55t1.5 57.5v64v64t-1.5 56.5t-4.5 54l-7.5 44.5t-12.5 39t-19.5 26.5t-27 19t-35.5 5.5h-127l9 -39v-182l-5 -34h128v-51h-128l5 -38v-253z" />
    <glyph glyph-name="Ntilde" unicode="&#xd1;" horiz-adv-x="455" 
d="M384 0h-4q-43 0 -52 6t-22 40l-162 475l-5 27h-7v-502q0 -34 -7 -40t-50 -6h-4v720h5q42 0 51 -5.5t22 -40.5l162 -486l5 -27h7v559h4q43 0 50 -6t7 -40v-674zM348 845v-21q0 -22 -7.5 -26t-51.5 -4q-23 0 -59 2t-60.5 2t-43.5 -4l-13 2v21q0 23 7.5 26.5t51.5 3.5
q23 0 59 -2t60.5 -2t43.5 4z" />
    <glyph glyph-name="Ograve" unicode="&#xd2;" horiz-adv-x="481" 
d="M241 -7q-104 0 -140 85.5t-36 287.5q0 201 36 283.5t140 82.5t139.5 -82.5t35.5 -283.5q0 -202 -35.5 -287.5t-139.5 -85.5zM241 50q63 0 85.5 76.5t22.5 238.5q0 79 -4.5 133t-16.5 95.5t-33.5 61.5t-53.5 20q-63 0 -86 -74.5t-23 -234.5q0 -107 8 -172t32.5 -104.5
t68.5 -39.5zM261 782l-115 114l7 7q24 24 32 24q10 0 43 -33l68 -76z" />
    <glyph glyph-name="Oacute" unicode="&#xd3;" horiz-adv-x="481" 
d="M241 -7q-104 0 -140 85.5t-36 287.5q0 201 36 283.5t140 82.5t139.5 -82.5t35.5 -283.5q0 -202 -35.5 -287.5t-139.5 -85.5zM241 50q63 0 85.5 76.5t22.5 238.5q0 79 -4.5 133t-16.5 95.5t-33.5 61.5t-53.5 20q-63 0 -86 -74.5t-23 -234.5q0 -107 8 -172t32.5 -104.5
t68.5 -39.5zM343 896l-115 -114l-35 36l68 76q33 33 42 33q7 0 33 -24z" />
    <glyph glyph-name="Ocircumflex" unicode="&#xd4;" horiz-adv-x="481" 
d="M241 -7q-104 0 -140 85.5t-36 287.5q0 201 36 283.5t140 82.5t139.5 -82.5t35.5 -283.5q0 -202 -35.5 -287.5t-139.5 -85.5zM241 50q63 0 85.5 76.5t22.5 238.5q0 79 -4.5 133t-16.5 95.5t-33.5 61.5t-53.5 20q-63 0 -86 -74.5t-23 -234.5q0 -107 8 -172t32.5 -104.5
t68.5 -39.5zM373 812l-118 66l-117 -66v55l104 60h26l105 -61v-54z" />
    <glyph glyph-name="Otilde" unicode="&#xd5;" horiz-adv-x="481" 
d="M241 -7q-104 0 -140 85.5t-36 287.5q0 201 36 283.5t140 82.5t139.5 -82.5t35.5 -283.5q0 -202 -35.5 -287.5t-139.5 -85.5zM241 50q63 0 85.5 76.5t22.5 238.5q0 79 -4.5 133t-16.5 95.5t-33.5 61.5t-53.5 20q-63 0 -86 -74.5t-23 -234.5q0 -107 8 -172t32.5 -104.5
t68.5 -39.5zM363 901v-21q0 -23 -7.5 -26.5t-51.5 -3.5q-23 0 -59 2t-60.5 2t-43.5 -4l-13 2v21q0 22 7.5 26t51.5 4q23 0 59 -2t60.5 -2t43.5 4z" />
    <glyph glyph-name="Odieresis" unicode="&#xd6;" horiz-adv-x="481" 
d="M241 -7q-104 0 -140 85.5t-36 287.5q0 201 36 283.5t140 82.5t139.5 -82.5t35.5 -283.5q0 -202 -35.5 -287.5t-139.5 -85.5zM241 50q63 0 85.5 76.5t22.5 238.5q0 79 -4.5 133t-16.5 95.5t-33.5 61.5t-53.5 20q-63 0 -86 -74.5t-23 -234.5q0 -107 8 -172t32.5 -104.5
t68.5 -39.5zM171 824q-19 0 -32.5 13.5t-13.5 32.5t13.5 32t32.5 13t32.5 -13t13.5 -32t-13.5 -32.5t-32.5 -13.5zM314 824q-19 0 -32.5 13.5t-13.5 32.5t13.5 32t32.5 13t32.5 -13t13.5 -32t-13.5 -32.5t-32.5 -13.5z" />
    <glyph glyph-name="multiply" unicode="&#xd7;" horiz-adv-x="271" 
d="M186 224l-47 47l-15 21l-67 -67l-36 36l67 67l-20 15l-47 46l36 36l47 -46l14 -21l68 68l36 -36l-67 -68l20 -15l47 -47z" />
    <glyph glyph-name="Oslash" unicode="&#xd8;" horiz-adv-x="476" 
d="M141 -50h-68l44 109q-46 77 -46 307q0 201 36 283.5t140 82.5q27 0 49 -6l31 76h68l-42 -105q39 -36 54 -114.5t15 -216.5q0 -202 -35.5 -287.5t-139.5 -85.5q-48 0 -81 18zM247 50q64 0 88 77.5t24 237.5q0 158 -24.5 234t-87.5 76t-88 -75.5t-25 -233.5
q0 -160 24.5 -238t88.5 -78z" />
    <glyph glyph-name="Ugrave" unicode="&#xd9;" horiz-adv-x="468" 
d="M333 297v423h7q43 0 50.5 -6t7.5 -40v-377q0 -159 -14 -209q-20 -71 -86 -88q-27 -7 -63 -7q-26 0 -47 4t-37 9.5t-28 19.5t-20 24.5t-13 34.5l-8 39.5t-4.5 49.5t-1.5 54.5v64.5v4v423h7q43 0 50.5 -6t7.5 -40v-377v-19q0 -51 0.5 -73.5t3 -55t8 -46t16 -28.5t27 -20
t39.5 -5q64 0 83 52q15 40 15 181v14zM264 782l-115 114l7 7q24 24 32 24q10 0 43 -33l68 -76z" />
    <glyph glyph-name="Uacute" unicode="&#xda;" horiz-adv-x="468" 
d="M333 297v423h7q43 0 50.5 -6t7.5 -40v-377q0 -159 -14 -209q-20 -71 -86 -88q-27 -7 -63 -7q-26 0 -47 4t-37 9.5t-28 19.5t-20 24.5t-13 34.5l-8 39.5t-4.5 49.5t-1.5 54.5v64.5v4v423h7q43 0 50.5 -6t7.5 -40v-377v-19q0 -51 0.5 -73.5t3 -55t8 -46t16 -28.5t27 -20
t39.5 -5q64 0 83 52q15 40 15 181v14zM346 896l-115 -114l-35 36l68 76q33 33 42 33q7 0 33 -24z" />
    <glyph glyph-name="Ucircumflex" unicode="&#xdb;" horiz-adv-x="468" 
d="M333 297v423h7q43 0 50.5 -6t7.5 -40v-377q0 -159 -14 -209q-20 -71 -86 -88q-27 -7 -63 -7q-26 0 -47 4t-37 9.5t-28 19.5t-20 24.5t-13 34.5l-8 39.5t-4.5 49.5t-1.5 54.5v64.5v4v423h7q43 0 50.5 -6t7.5 -40v-377v-19q0 -51 0.5 -73.5t3 -55t8 -46t16 -28.5t27 -20
t39.5 -5q64 0 83 52q15 40 15 181v14zM358 812l-118 66l-117 -66v55l104 60h26l105 -61v-54z" />
    <glyph glyph-name="Udieresis" unicode="&#xdc;" horiz-adv-x="468" 
d="M333 297v423h7q43 0 50.5 -6t7.5 -40v-377q0 -159 -14 -209q-20 -71 -86 -88q-27 -7 -63 -7q-26 0 -47 4t-37 9.5t-28 19.5t-20 24.5t-13 34.5l-8 39.5t-4.5 49.5t-1.5 54.5v64.5v4v423h7q43 0 50.5 -6t7.5 -40v-377v-19q0 -51 0.5 -73.5t3 -55t8 -46t16 -28.5t27 -20
t39.5 -5q64 0 83 52q15 40 15 181v14zM170 824q-19 0 -32.5 13.5t-13.5 32.5t13.5 32t32.5 13t32.5 -13t13.5 -32t-13.5 -32.5t-32.5 -13.5zM313 824q-19 0 -32.5 13.5t-13.5 32.5t13.5 32t32.5 13t32.5 -13t13.5 -32t-13.5 -32.5t-32.5 -13.5z" />
    <glyph glyph-name="Yacute" unicode="&#xdd;" horiz-adv-x="375" 
d="M221 0h-5q-43 0 -50.5 6t-7.5 40v301l-133 373h15q38 0 46.5 -5.5t20.5 -40.5l81 -242h5l101 288h11q27 0 35.5 -1.5t8.5 -9.5q0 -33 -128 -362v-347zM329 896l-115 -114l-35 36l68 76q33 33 42 33q7 0 33 -24z" />
    <glyph glyph-name="Thorn" unicode="&#xde;" horiz-adv-x="395" 
d="M214 -7l-96 46v-239q-44 0 -51 6t-7 40v844q0 34 7 40t51 6v-159l100 27q23 0 41 -4t31.5 -9.5t24 -19t17 -24t11 -33.5t7 -38t4 -47.5t1.5 -52v-60.5q0 -54 -0.5 -81t-3 -68.5t-8 -62t-15.5 -46t-25 -37t-37 -20t-52 -8.5zM114 91l98 -45q57 0 74 77q10 48 10 194v52
t-1 45t-3.5 41l-6 32.5t-9.5 28t-15 18.5t-21 13.5t-27 3.5l-98 -25l4 -25v-385z" />
    <glyph glyph-name="germandbls" unicode="&#xdf;" horiz-adv-x="524" 
d="M347 -7l-124 7v53h125q19 0 32.5 5.5t20 12t9.5 22t3.5 25t0.5 31.5v11q0 19 -19.5 41.5t-48 44t-56.5 45t-48 53t-20 59.5q0 25 1 39.5t5.5 35.5t14 32.5t27 20.5t43.5 9q10 0 14.5 3.5t8 26.5t3.5 71q0 38 -74 38h-47q-72 0 -84 -12.5t-12 -89.5l-1 -519
q-1 -44 -8.5 -51t-53.5 -7l1 577q0 44 0.5 61.5t6 40.5t13 29t27.5 14t44 8.5t67 0.5h53q5 0 13.5 -0.5t30 -4.5t37.5 -11.5t29.5 -23t13.5 -37.5q0 -82 -7.5 -118t-19.5 -43t-44 -7q-26 0 -34 -15.5t-8 -46.5v-17q0 -20 20.5 -43t50 -45l59 -46t50 -55.5t20.5 -65.5
q0 -32 -1 -48.5t-8 -41.5t-20.5 -37.5t-40 -22t-65.5 -9.5z" />
    <glyph glyph-name="agrave" unicode="&#xe0;" horiz-adv-x="342" 
d="M234 352l-4 25v38v18q0 40 -9.5 50.5t-45.5 10.5l-50 -10q-10 -2 -15 -2q-35 0 -35 45l100 17q24 0 41.5 -2.5t30 -5.5t20 -12.5t12 -16.5t6 -24.5t2 -29.5t0.5 -38v-415q-45 0 -53 6.5t-8 43.5q-10 -6 -27.5 -22t-33 -25.5t-31.5 -9.5q-50 0 -65 23q-18 27 -19 147v82
q0 33 15 55.5t42.5 33t56.5 14.5t66 4h4zM230 94l-4 25v152l4 25h-4q-58 0 -87.5 -8.5t-29.5 -34.5q0 -183 8 -200q4 -7 16 -7q16 0 32.5 8t35 21.5t29.5 18.5zM216 593l-115 114l7 7q24 24 32 24q10 0 43 -33l68 -76z" />
    <glyph glyph-name="aacute" unicode="&#xe1;" horiz-adv-x="342" 
d="M234 352l-4 25v38v18q0 40 -9.5 50.5t-45.5 10.5l-50 -10q-10 -2 -15 -2q-35 0 -35 45l100 17q24 0 41.5 -2.5t30 -5.5t20 -12.5t12 -16.5t6 -24.5t2 -29.5t0.5 -38v-415q-45 0 -53 6.5t-8 43.5q-10 -6 -27.5 -22t-33 -25.5t-31.5 -9.5q-50 0 -65 23q-18 27 -19 147v82
q0 33 15 55.5t42.5 33t56.5 14.5t66 4h4zM230 94l-4 25v152l4 25h-4q-58 0 -87.5 -8.5t-29.5 -34.5q0 -183 8 -200q4 -7 16 -7q16 0 32.5 8t35 21.5t29.5 18.5zM280 707l-115 -114l-35 36l68 76q33 33 42 33q7 0 33 -24z" />
    <glyph glyph-name="acircumflex" unicode="&#xe2;" horiz-adv-x="342" 
d="M234 352l-4 25v38v18q0 40 -9.5 50.5t-45.5 10.5l-50 -10q-10 -2 -15 -2q-35 0 -35 45l100 17q24 0 41.5 -2.5t30 -5.5t20 -12.5t12 -16.5t6 -24.5t2 -29.5t0.5 -38v-415q-45 0 -53 6.5t-8 43.5q-10 -6 -27.5 -22t-33 -25.5t-31.5 -9.5q-50 0 -65 23q-18 27 -19 147v82
q0 33 15 55.5t42.5 33t56.5 14.5t66 4h4zM230 94l-4 25v152l4 25h-4q-58 0 -87.5 -8.5t-29.5 -34.5q0 -183 8 -200q4 -7 16 -7q16 0 32.5 8t35 21.5t29.5 18.5zM294 627l-118 66l-117 -66v55l104 60h26l105 -61v-54z" />
    <glyph glyph-name="atilde" unicode="&#xe3;" horiz-adv-x="342" 
d="M234 352l-4 25v38v18q0 40 -9.5 50.5t-45.5 10.5l-50 -10q-10 -2 -15 -2q-35 0 -35 45l100 17q24 0 41.5 -2.5t30 -5.5t20 -12.5t12 -16.5t6 -24.5t2 -29.5t0.5 -38v-415q-45 0 -53 6.5t-8 43.5q-10 -6 -27.5 -22t-33 -25.5t-31.5 -9.5q-50 0 -65 23q-18 27 -19 147v82
q0 33 15 55.5t42.5 33t56.5 14.5t66 4h4zM230 94l-4 25v152l4 25h-4q-58 0 -87.5 -8.5t-29.5 -34.5q0 -183 8 -200q4 -7 16 -7q16 0 32.5 8t35 21.5t29.5 18.5zM300 690v-21q0 -23 -7.5 -26.5t-51.5 -3.5q-23 0 -59 2t-60.5 2t-43.5 -4l-13 2v21q0 22 7.5 26t51.5 4
q23 0 59 -2t60.5 -2t43.5 4z" />
    <glyph glyph-name="adieresis" unicode="&#xe4;" horiz-adv-x="342" 
d="M234 352l-4 25v38v18q0 40 -9.5 50.5t-45.5 10.5l-50 -10q-10 -2 -15 -2q-35 0 -35 45l100 17q24 0 41.5 -2.5t30 -5.5t20 -12.5t12 -16.5t6 -24.5t2 -29.5t0.5 -38v-415q-45 0 -53 6.5t-8 43.5q-10 -6 -27.5 -22t-33 -25.5t-31.5 -9.5q-50 0 -65 23q-18 27 -19 147v82
q0 33 15 55.5t42.5 33t56.5 14.5t66 4h4zM230 94l-4 25v152l4 25h-4q-58 0 -87.5 -8.5t-29.5 -34.5q0 -183 8 -200q4 -7 16 -7q16 0 32.5 8t35 21.5t29.5 18.5zM107 620q-19 0 -32.5 13.5t-13.5 32.5t13.5 32t32.5 13t32.5 -13t13.5 -32t-13.5 -32.5t-32.5 -13.5zM250 620
q-19 0 -32.5 13.5t-13.5 32.5t13.5 32t32.5 13t32.5 -13t13.5 -32t-13.5 -32.5t-32.5 -13.5z" />
    <glyph glyph-name="aring" unicode="&#xe5;" horiz-adv-x="342" 
d="M234 352l-4 25v38v18q0 40 -9.5 50.5t-45.5 10.5l-50 -10q-10 -2 -15 -2q-35 0 -35 45l100 17q24 0 41.5 -2.5t30 -5.5t20 -12.5t12 -16.5t6 -24.5t2 -29.5t0.5 -38v-415q-45 0 -53 6.5t-8 43.5q-10 -6 -27.5 -22t-33 -25.5t-31.5 -9.5q-50 0 -65 23q-18 27 -19 147v82
q0 33 15 55.5t42.5 33t56.5 14.5t66 4h4zM230 94l-4 25v152l4 25h-4q-58 0 -87.5 -8.5t-29.5 -34.5q0 -183 8 -200q4 -7 16 -7q16 0 32.5 8t35 21.5t29.5 18.5zM259 668q0 -34 -24.5 -58t-58.5 -24t-58.5 24t-24.5 58t24.5 57.5t58.5 23.5t58.5 -23.5t24.5 -57.5zM217 668
q0 16 -12 28t-29 12t-29 -11.5t-12 -28.5t12 -29t29 -12t29 12t12 29z" />
    <glyph glyph-name="ae" unicode="&#xe6;" horiz-adv-x="588" 
d="M442 330l-5 45q-1 66 -15 91t-58 25q-37 0 -45 -26t-7 -107v-3l-4 -25h134zM503 59v-49q-87 -17 -139 -17q-46 0 -63 13.5t-33 50.5l-123 -64q-60 0 -72 36t-12 173v23q0 107 185 107h4l-4 25v58q0 6 0.5 19t0.5 19t-2 15t-8 13t-17 7t-27 3q-64 -9 -67 -9q-35 0 -35 45
l102 17q70 0 95 -31q32 31 76 31q28 0 49 -5t35 -11t23.5 -22t14.5 -28t7 -40t2.5 -46t0.5 -57l5 -54l-199 -5l4 -25q0 -135 9 -166q12 -39 49 -39q54 0 139 13zM246 93v158l4 25h-4q-60 0 -93.5 -8.5t-33.5 -34.5q0 -30 -1 -77q-1 -71 3 -90.5t23 -19.5z" />
    <glyph glyph-name="ccedilla" unicode="&#xe7;" horiz-adv-x="335" 
d="M156 -154h-35q-40 0 -46.5 6t-6.5 40h87v103q-20 2 -35 6.5t-26 15.5t-18.5 20t-12.5 31t-7.5 36.5t-4 47.5t-1.5 53.5v65.5v61.5t1 51.5t3.5 45.5t7 35.5t11 30.5l16 20.5t23 16.5t30.5 8t39 3.5l83 -13q0 -52 -50 -43l-33 3q-48 0 -62 -44q-11 -34 -11 -176
q0 -144 12 -180q14 -45 61 -45l87 10v-46l-67 -13v-105q0 -30 -7.5 -38t-37.5 -8z" />
    <glyph glyph-name="egrave" unicode="&#xe8;" horiz-adv-x="353" 
d="M306 61v-51q-77 -17 -117 -17q-21 0 -37.5 1.5t-30 8l-23.5 11t-18 18l-13 22t-8 29.5l-5 34t-3 42.5t-1 47.5v56v57t1 48.5t3 43.5t5 35t8 31.5t13 23.5t18 19.5t23.5 12t30 8.5t37.5 2t38 -3t28.5 -12t20 -17t14 -26t8.5 -30.5t4.5 -39t1.5 -43v-51.5l4 -54l-204 -5
l4 -25q0 -44 0.5 -63.5t2.5 -47t7 -38t14 -22.5t23 -15.5t34 -3.5q61 0 117 13zM252 317l-5 26q0 80 -11 114t-47 34q-22 0 -37 -7t-22.5 -16.5t-11 -32t-4 -40t-0.5 -53.5l-4 -25h142zM227 595l-115 114l7 7q24 24 32 24q10 0 43 -33l68 -76z" />
    <glyph glyph-name="eacute" unicode="&#xe9;" horiz-adv-x="353" 
d="M306 61v-51q-77 -17 -117 -17q-21 0 -37.5 1.5t-30 8l-23.5 11t-18 18l-13 22t-8 29.5l-5 34t-3 42.5t-1 47.5v56v57t1 48.5t3 43.5t5 35t8 31.5t13 23.5t18 19.5t23.5 12t30 8.5t37.5 2t38 -3t28.5 -12t20 -17t14 -26t8.5 -30.5t4.5 -39t1.5 -43v-51.5l4 -54l-204 -5
l4 -25q0 -44 0.5 -63.5t2.5 -47t7 -38t14 -22.5t23 -15.5t34 -3.5q61 0 117 13zM252 317l-5 26q0 80 -11 114t-47 34q-22 0 -37 -7t-22.5 -16.5t-11 -32t-4 -40t-0.5 -53.5l-4 -25h142zM293 709l-115 -114l-35 36l68 76q33 33 42 33q7 0 33 -24z" />
    <glyph glyph-name="ecircumflex" unicode="&#xea;" horiz-adv-x="353" 
d="M306 61v-51q-77 -17 -117 -17q-21 0 -37.5 1.5t-30 8l-23.5 11t-18 18l-13 22t-8 29.5l-5 34t-3 42.5t-1 47.5v56v57t1 48.5t3 43.5t5 35t8 31.5t13 23.5t18 19.5t23.5 12t30 8.5t37.5 2t38 -3t28.5 -12t20 -17t14 -26t8.5 -30.5t4.5 -39t1.5 -43v-51.5l4 -54l-204 -5
l4 -25q0 -44 0.5 -63.5t2.5 -47t7 -38t14 -22.5t23 -15.5t34 -3.5q61 0 117 13zM252 317l-5 26q0 80 -11 114t-47 34q-22 0 -37 -7t-22.5 -16.5t-11 -32t-4 -40t-0.5 -53.5l-4 -25h142zM300 629l-118 66l-117 -66v55l104 60h26l105 -61v-54z" />
    <glyph glyph-name="edieresis" unicode="&#xeb;" horiz-adv-x="353" 
d="M306 61v-51q-77 -17 -117 -17q-21 0 -37.5 1.5t-30 8l-23.5 11t-18 18l-13 22t-8 29.5l-5 34t-3 42.5t-1 47.5v56v57t1 48.5t3 43.5t5 35t8 31.5t13 23.5t18 19.5t23.5 12t30 8.5t37.5 2t38 -3t28.5 -12t20 -17t14 -26t8.5 -30.5t4.5 -39t1.5 -43v-51.5l4 -54l-204 -5
l4 -25q0 -44 0.5 -63.5t2.5 -47t7 -38t14 -22.5t23 -15.5t34 -3.5q61 0 117 13zM252 317l-5 26q0 80 -11 114t-47 34q-22 0 -37 -7t-22.5 -16.5t-11 -32t-4 -40t-0.5 -53.5l-4 -25h142zM113 622q-19 0 -32.5 13.5t-13.5 32.5t13.5 32t32.5 13t32.5 -13t13.5 -32t-13.5 -32.5
t-32.5 -13.5zM256 622q-19 0 -32.5 13.5t-13.5 32.5t13.5 32t32.5 13t32.5 -13t13.5 -32t-13.5 -32.5t-32.5 -13.5z" />
    <glyph glyph-name="igrave" unicode="&#xec;" horiz-adv-x="211" 
d="M72 42v495q44 0 51.5 -5.5t7.5 -40.5v-495q-44 0 -51.5 5.5t-7.5 40.5zM121 597l-115 114l7 7q24 24 32 24q10 0 43 -33l68 -76z" />
    <glyph glyph-name="iacute" unicode="&#xed;" horiz-adv-x="220" 
d="M75 42v495q44 0 51.5 -5.5t7.5 -40.5v-495q-44 0 -51.5 5.5t-7.5 40.5zM210 709l-115 -114l-35 36l68 76q33 33 42 33q7 0 33 -24z" />
    <glyph glyph-name="icircumflex" unicode="&#xee;" horiz-adv-x="246" 
d="M90 42v495q44 0 51.5 -5.5t7.5 -40.5v-495q-44 0 -51.5 5.5t-7.5 40.5zM240 625l-118 66l-117 -66v55l104 60h26l105 -61v-54z" />
    <glyph glyph-name="idieresis" unicode="&#xef;" horiz-adv-x="260" 
d="M108 42v495q44 0 51.5 -5.5t7.5 -40.5v-495q-44 0 -51.5 5.5t-7.5 40.5zM66 622q-19 0 -32.5 13.5t-13.5 32.5t13.5 32t32.5 13t32.5 -13t13.5 -32t-13.5 -32.5t-32.5 -13.5zM209 622q-19 0 -32.5 13.5t-13.5 32.5t13.5 32t32.5 13t32.5 -13t13.5 -32t-13.5 -32.5
t-32.5 -13.5z" />
    <glyph glyph-name="eth" unicode="&#xf0;" horiz-adv-x="376" 
d="M262 297l-2 109l-84 32q-59 0 -71 -31.5t-12 -158.5q0 -129 12 -162t71 -33q62 0 74 37.5t12 193.5v13zM176 491l80 -34q-10 118 -32 168t-70 50v57q25 0 46 -5t37 -17.5t28.5 -25t21.5 -36t15.5 -42.5t11 -51.5t6.5 -56t3.5 -63.5t1.5 -66v-72v-68.5t-1.5 -56.5t-3 -48
t-5.5 -37.5t-9.5 -31t-14 -21.5t-19 -16.5t-25 -9.5t-31.5 -6.5t-40 -1.5q-91 0 -119 36q-25 32 -27 139v73v55.5t1 45.5t3 39.5l5.5 30.5t8.5 25.5l13.5 17.5t18.5 14.5t24.5 8t32 5.5t39.5 1z" />
    <glyph glyph-name="ntilde" unicode="&#xf1;" horiz-adv-x="390" 
d="M276 46v221q0 159 -9 190t-42 34h-12l-98 -35l4 -25v-431q-44 0 -51.5 6t-7.5 40v491q44 0 51.5 -3.5t7.5 -26.5l90 37q76 0 99 -31q24 -32 26 -146q1 -29 1 -101v-266q-44 0 -51.5 6t-7.5 40zM320 690v-21q0 -23 -7.5 -26.5t-51.5 -3.5q-23 0 -59 2t-60.5 2t-43.5 -4
l-13 2v21q0 22 7.5 26t51.5 4q23 0 59 -2t60.5 -2t43.5 4z" />
    <glyph glyph-name="ograve" unicode="&#xf2;" horiz-adv-x="374" 
d="M187 -7q-26 0 -45.5 3t-34 13t-24 18.5t-16 30.5t-10 37t-5 49.5t-2 56.5t-0.5 70t0.5 69.5t2 56t5 49t10 36t16 29.5t24 17.5t34 12.5t45.5 3q23 0 40.5 -3.5t31.5 -7.5t24 -16.5l17 -21t11 -30l6.5 -35t4 -45.5t1.5 -52v-62v-4v-61.5t-1.5 -51.5t-4 -45.5l-6.5 -35.5
t-11 -30.5l-17 -21t-24 -17t-31.5 -8t-40.5 -3.5zM187 46q19 0 32 4.5t21.5 17t13 25t7 40t3 50t0.5 65.5q0 151 -7 184q-11 50 -50 57q-9 2 -20 2q-19 0 -32.5 -4t-22 -17.5t-13.5 -25.5t-7 -41.5t-2.5 -52t-0.5 -68.5q0 -147 9 -182q12 -49 56 -53q6 -1 13 -1zM228 599
l-115 114l7 7q24 24 32 24q10 0 43 -33l68 -76z" />
    <glyph glyph-name="oacute" unicode="&#xf3;" horiz-adv-x="374" 
d="M187 -7q-26 0 -45.5 3t-34 13t-24 18.5t-16 30.5t-10 37t-5 49.5t-2 56.5t-0.5 70t0.5 69.5t2 56t5 49t10 36t16 29.5t24 17.5t34 12.5t45.5 3q23 0 40.5 -3.5t31.5 -7.5t24 -16.5l17 -21t11 -30l6.5 -35t4 -45.5t1.5 -52v-62v-4v-61.5t-1.5 -51.5t-4 -45.5l-6.5 -35.5
t-11 -30.5l-17 -21t-24 -17t-31.5 -8t-40.5 -3.5zM187 46q19 0 32 4.5t21.5 17t13 25t7 40t3 50t0.5 65.5q0 151 -7 184q-11 50 -50 57q-9 2 -20 2q-19 0 -32.5 -4t-22 -17.5t-13.5 -25.5t-7 -41.5t-2.5 -52t-0.5 -68.5q0 -147 9 -182q12 -49 56 -53q6 -1 13 -1zM294 713
l-115 -114l-35 36l68 76q33 33 42 33q7 0 33 -24z" />
    <glyph glyph-name="ocircumflex" unicode="&#xf4;" horiz-adv-x="374" 
d="M187 -7q-26 0 -45.5 3t-34 13t-24 18.5t-16 30.5t-10 37t-5 49.5t-2 56.5t-0.5 70t0.5 69.5t2 56t5 49t10 36t16 29.5t24 17.5t34 12.5t45.5 3q23 0 40.5 -3.5t31.5 -7.5t24 -16.5l17 -21t11 -30l6.5 -35t4 -45.5t1.5 -52v-62v-4v-61.5t-1.5 -51.5t-4 -45.5l-6.5 -35.5
t-11 -30.5l-17 -21t-24 -17t-31.5 -8t-40.5 -3.5zM187 46q19 0 32 4.5t21.5 17t13 25t7 40t3 50t0.5 65.5q0 151 -7 184q-11 50 -50 57q-9 2 -20 2q-19 0 -32.5 -4t-22 -17.5t-13.5 -25.5t-7 -41.5t-2.5 -52t-0.5 -68.5q0 -147 9 -182q12 -49 56 -53q6 -1 13 -1zM305 629
l-118 66l-117 -66v55l104 60h26l105 -61v-54z" />
    <glyph glyph-name="otilde" unicode="&#xf5;" horiz-adv-x="374" 
d="M312 688v-21q0 -23 -7.5 -26.5t-51.5 -3.5q-27 0 -83.5 6t-79.5 2l-13 2v21q0 22 7.5 26t51.5 4q26 0 83 -6.5t80 -1.5zM187 -7q-26 0 -45.5 3t-34 13t-24 18.5t-16 30.5t-10 37t-5 49.5t-2 56.5t-0.5 70t0.5 69.5t2 56t5 49t10 36t16 29.5t24 17.5t34 12.5t45.5 3
q23 0 40.5 -3.5t31.5 -7.5t24 -16.5l17 -21t11 -30l6.5 -35t4 -45.5t1.5 -52v-62v-4v-61.5t-1.5 -51.5t-4 -45.5l-6.5 -35.5t-11 -30.5l-17 -21t-24 -17t-31.5 -8t-40.5 -3.5zM187 46q19 0 32 4.5t21.5 17t13 25t7 40t3 50t0.5 65.5q0 151 -7 184q-11 50 -50 57q-9 2 -20 2
q-19 0 -32.5 -4t-22 -17.5t-13.5 -25.5t-7 -41.5t-2.5 -52t-0.5 -68.5q0 -147 9 -182q12 -49 56 -53q6 -1 13 -1z" />
    <glyph glyph-name="odieresis" unicode="&#xf6;" horiz-adv-x="374" 
d="M187 -7q-26 0 -45.5 3t-34 13t-24 18.5t-16 30.5t-10 37t-5 49.5t-2 56.5t-0.5 70t0.5 69.5t2 56t5 49t10 36t16 29.5t24 17.5t34 12.5t45.5 3q23 0 40.5 -3.5t31.5 -7.5t24 -16.5l17 -21t11 -30l6.5 -35t4 -45.5t1.5 -52v-62v-4v-61.5t-1.5 -51.5t-4 -45.5l-6.5 -35.5
t-11 -30.5l-17 -21t-24 -17t-31.5 -8t-40.5 -3.5zM187 46q19 0 32 4.5t21.5 17t13 25t7 40t3 50t0.5 65.5q0 151 -7 184q-11 50 -50 57q-9 2 -20 2q-19 0 -32.5 -4t-22 -17.5t-13.5 -25.5t-7 -41.5t-2.5 -52t-0.5 -68.5q0 -147 9 -182q12 -49 56 -53q6 -1 13 -1zM118 620
q-19 0 -32.5 13.5t-13.5 32.5t13.5 32t32.5 13t32.5 -13t13.5 -32t-13.5 -32.5t-32.5 -13.5zM261 620q-19 0 -32.5 13.5t-13.5 32.5t13.5 32t32.5 13t32.5 -13t13.5 -32t-13.5 -32.5t-32.5 -13.5z" />
    <glyph glyph-name="divide" unicode="&#xf7;" horiz-adv-x="275" 
d="M131 0q-19 0 -32.5 13.5t-13.5 32.5t13.5 32t32.5 13t32.5 -13t13.5 -32t-13.5 -32.5t-32.5 -13.5zM138 446q-19 0 -32.5 13.5t-13.5 32.5t13.5 32t32.5 13t32.5 -13t13.5 -32t-13.5 -32.5t-32.5 -13.5zM244 270h-214v51h214v-51z" />
    <glyph glyph-name="oslash" unicode="&#xf8;" horiz-adv-x="400" 
d="M120 -94h-68l47 117q-26 27 -32 79t-6 169q0 48 0.5 69.5t2 56t5 49t10 36t16 29.5t24 17.5t34 12.5t45.5 3q21 0 39 -3l39 97h68l-49 -122q27 -25 33 -76.5t6 -168.5v-4v-61.5t-1.5 -51.5t-4 -45.5l-6.5 -35.5t-11 -30.5l-17 -21t-24 -17t-31.5 -8t-40.5 -3.5
q-16 0 -42 4zM198 46q19 0 32 4.5t21.5 17t13 25t7 40t3 50t0.5 65.5q0 151 -7 184q-11 50 -50 57q-9 2 -20 2q-19 0 -32.5 -4t-22 -17.5t-13.5 -25.5t-7 -41.5t-2.5 -52t-0.5 -68.5q0 -147 9 -182q12 -49 56 -53q6 -1 13 -1z" />
    <glyph glyph-name="ugrave" unicode="&#xf9;" horiz-adv-x="385" 
d="M271 40l-90 -47q-80 0 -105 52q-20 42 -21 179v47v266q44 0 51.5 -5.5t7.5 -40.5v-218q0 -147 12 -185q14 -42 51 -42l99 46l-5 25v420q44 0 51.5 -5.5t7.5 -40.5v-491q-44 0 -51.5 5t-7.5 35zM227 591l-115 114l7 7q24 24 32 24q10 0 43 -33l68 -76z" />
    <glyph glyph-name="uacute" unicode="&#xfa;" horiz-adv-x="385" 
d="M271 40l-90 -47q-80 0 -105 52q-20 42 -21 179v47v266q44 0 51.5 -5.5t7.5 -40.5v-218q0 -147 12 -185q14 -42 51 -42l99 46l-5 25v420q44 0 51.5 -5.5t7.5 -40.5v-491q-44 0 -51.5 5t-7.5 35zM298 713l-115 -114l-35 36l68 76q33 33 42 33q7 0 33 -24z" />
    <glyph glyph-name="ucircumflex" unicode="&#xfb;" horiz-adv-x="385" 
d="M271 40l-90 -47q-80 0 -105 52q-20 42 -21 179v47v266q44 0 51.5 -5.5t7.5 -40.5v-218q0 -147 12 -185q14 -42 51 -42l99 46l-5 25v420q44 0 51.5 -5.5t7.5 -40.5v-491q-44 0 -51.5 5t-7.5 35zM312 627l-118 66l-117 -66v55l104 60h26l105 -61v-54z" />
    <glyph glyph-name="udieresis" unicode="&#xfc;" horiz-adv-x="385" 
d="M271 40l-90 -47q-80 0 -105 52q-20 42 -21 179v47v266q44 0 51.5 -5.5t7.5 -40.5v-218q0 -147 12 -185q14 -42 51 -42l99 46l-5 25v420q44 0 51.5 -5.5t7.5 -40.5v-491q-44 0 -51.5 5t-7.5 35zM126 618q-19 0 -32.5 13.5t-13.5 32.5t13.5 32t32.5 13t32.5 -13t13.5 -32
t-13.5 -32.5t-32.5 -13.5zM269 618q-19 0 -32.5 13.5t-13.5 32.5t13.5 32t32.5 13t32.5 -13t13.5 -32t-13.5 -32.5t-32.5 -13.5z" />
    <glyph glyph-name="yacute" unicode="&#xfd;" horiz-adv-x="317" 
d="M26 -200v47q47 0 73.5 32.5t26.5 81.5q0 20 -106 576q44 0 52 -6t15 -40l70 -421h13l73 467q20 0 27.5 -0.5t15 -2.5t9 -5.5t1.5 -11.5q0 -51 -97 -517q-2 -9 -7 -37t-7.5 -38t-9.5 -32.5t-14 -31.5l-19.5 -24t-28 -21t-37.5 -11t-50 -5zM248 717l-115 -114l-35 36l68 76
q33 33 42 33q7 0 33 -24z" />
    <glyph glyph-name="thorn" unicode="&#xfe;" horiz-adv-x="386" 
d="M118 90l88 -44q55 0 70 44q13 41 13 177q0 48 -0.5 68t-2.5 53t-7 46t-14 29.5t-23.5 22t-35.5 5.5l-88 -24v-377zM60 -200v200v732q43 0 50.5 -6t7.5 -40v-170l84 28q27 0 47.5 -3t36 -13t26 -19t17.5 -30t11 -37t5.5 -49t2 -56.5t0.5 -69.5q0 -152 -12 -196
q-17 -59 -74 -73q-23 -5 -55 -5l-89 60v-200q0 -40 -7 -46.5t-51 -6.5z" />
    <glyph glyph-name="ydieresis" unicode="&#xff;" horiz-adv-x="317" 
d="M26 -200v47q47 0 73.5 32.5t26.5 81.5q0 20 -106 576q44 0 52 -6t15 -40l70 -421h13l73 467q20 0 27.5 -0.5t15 -2.5t9 -5.5t1.5 -11.5q0 -51 -97 -517q-2 -9 -7 -37t-7.5 -38t-9.5 -32.5t-14 -31.5l-19.5 -24t-28 -21t-37.5 -11t-50 -5zM92 620q-19 0 -32.5 13.5
t-13.5 32.5t13.5 32t32.5 13t32.5 -13t13.5 -32t-13.5 -32.5t-32.5 -13.5zM235 620q-19 0 -32.5 13.5t-13.5 32.5t13.5 32t32.5 13t32.5 -13t13.5 -32t-13.5 -32.5t-32.5 -13.5z" />
    <glyph glyph-name="dotlessi" unicode="&#x131;" horiz-adv-x="207" 
d="M144 128h-53v275h-80q0 35 6.5 40.5t46.5 5.5h80v-321z" />
    <glyph glyph-name="Lslash" unicode="&#x141;" horiz-adv-x="361" 
d="M324 0h-249v720h8q43 0 50.5 -6t7.5 -40v-592l-4 -25h129q43 0 50.5 -6t7.5 -40v-11zM269 300h-273v51h273v-51z" />
    <glyph glyph-name="lslash" unicode="&#x142;" horiz-adv-x="287" 
d="M113 42v690q44 0 51.5 -6t7.5 -40v-690q-44 0 -51.5 5.5t-7.5 40.5zM279 300h-273v51h273v-51z" />
    <glyph glyph-name="OE" unicode="&#x152;" horiz-adv-x="653" 
d="M625 0h-293l-91 -7q-114 0 -152 69q-31 55 -34 209v95q0 186 13 245q20 86 87 109q34 12 86 12l91 -12h283v-53h-217l3 -25v-199l-4 -25h204v-57h-203l4 -25v-254l-4 -25h227v-57zM332 57v606l-91 12q-18 0 -33 -3t-27 -11t-21 -15t-15.5 -23l-11 -27.5t-7.5 -35.5
t-4.5 -39t-2.5 -47t-1 -50.5v-57.5q0 -48 0.5 -71.5t1.5 -61.5t4.5 -55.5l9 -43.5t14.5 -37.5t22 -24.5t30.5 -17.5t40.5 -4.5z" />
    <glyph glyph-name="oe" unicode="&#x153;" horiz-adv-x="628" 
d="M552 59v-49q-76 -17 -119 -17q-47 0 -72 10t-42 34q-31 -44 -116 -44q-27 0 -48 3t-36.5 13t-26 19t-17.5 30.5t-11 36.5t-5.5 49t-2 57t-0.5 70v62.5t1.5 51.5t4 45.5t7.5 35.5t12.5 30t18.5 21t25.5 16t34 7.5t43.5 3.5q86 0 116 -40q17 22 42 31t72 9q23 0 40.5 -3
t30 -12t21.5 -17t14.5 -26t9 -30.5t4.5 -39t1.5 -43t0.5 -51.5l4 -54l-219 -6l5 -29q-1 -114 8 -142q14 -41 67 -45h13q60 0 119 13zM501 317l-5 50q-1 81 -10 100q-12 24 -53 24q-32 0 -50 -9.5t-24.5 -28.5t-7.5 -47.5t0 -66.5l-5 -22h155zM203 46q22 0 37 4.5t24.5 19.5
t14.5 27.5t7.5 45t3 55t0.5 73.5q0 136 -11 172q-24 45 -76 48q-58 0 -75 -44q-13 -44 -13 -176q0 -51 0.5 -73.5t3 -55t7.5 -45t15 -27.5t25 -19.5t37 -4.5z" />
    <glyph glyph-name="Scaron" unicode="&#x160;" horiz-adv-x="391" 
d="M183 59l-146 10v-56l145 -20q36 0 63.5 7.5t45.5 17t30.5 30t18.5 35t9 43.5t3.5 43.5t0.5 46.5v17q0 34 -18.5 67.5t-46.5 59l-60 53.5l-60 51.5t-46.5 52t-18.5 56.5q0 27 2.5 42t12 31.5t31.5 23.5t58 7l56 -6q16 -1 24 0t14 10.5t6 30.5l-106 20q-35 0 -60.5 -4.5
t-43 -9.5t-29 -19t-17.5 -23.5t-8.5 -32t-3 -35t-0.5 -42.5q0 -41 25.5 -82t62.5 -74l73.5 -64.5t62 -64t25.5 -60.5q0 -8 0.5 -30t0 -30.5t-2 -26.5t-5.5 -25.5t-11.5 -19.5t-19 -17t-28.5 -9t-39 -4zM318 873l-105 -51h-26l-104 50v55l117 -56l118 56v-54z" />
    <glyph glyph-name="scaron" unicode="&#x161;" horiz-adv-x="334" 
d="M51 11v53q4 0 50.5 -5t69.5 -5q60 0 56 118q-1 32 -71 86q-52 39 -81 74t-29 77q0 30 1 44t7 35t18 30.5t35.5 17t58.5 7.5l95 -14q0 -52 -50 -43l-41 6q-25 0 -39.5 -5t-20.5 -17.5t-7.5 -23t-1.5 -30.5q0 -38 78 -100q36 -27 54.5 -43t36 -42t17.5 -50q0 -25 -1 -42.5
t-4.5 -41.5t-11 -40t-19.5 -31t-32 -22.5t-47 -7.5q-17 0 -37.5 2.5t-46 6.5zM288 678l-105 -51h-26l-104 50v55l117 -56l118 56v-54z" />
    <glyph glyph-name="Ydieresis" unicode="&#x178;" horiz-adv-x="375" 
d="M221 0h-5q-43 0 -50.5 6t-7.5 40v301l-133 373h15q38 0 46.5 -5.5t20.5 -40.5l81 -242h5l101 288h11q27 0 35.5 -1.5t8.5 -9.5q0 -33 -128 -362v-347zM133 812q-19 0 -32.5 13.5t-13.5 32.5t13.5 32t32.5 13t32.5 -13t13.5 -32t-13.5 -32.5t-32.5 -13.5zM276 812
q-19 0 -32.5 13.5t-13.5 32.5t13.5 32t32.5 13t32.5 -13t13.5 -32t-13.5 -32.5t-32.5 -13.5z" />
    <glyph glyph-name="Zcaron" unicode="&#x17d;" horiz-adv-x="370" 
d="M320 0h-283v57l227 610h-217q0 40 6 46.5t40 6.5h240v-53l-230 -610h159q43 0 50.5 -8t7.5 -49zM315 873l-105 -51h-26l-104 50v55l117 -56l118 56v-54z" />
    <glyph glyph-name="zcaron" unicode="&#x17e;" horiz-adv-x="333" 
d="M293 0h-253v53l183 430h-163q0 41 6 47.5t40 6.5h185v-54l-192 -430h136q43 0 50.5 -6.5t7.5 -46.5zM302 678l-105 -51h-26l-104 50v55l117 -56l118 56v-54z" />
    <glyph glyph-name="florin" unicode="&#x192;" horiz-adv-x="281" 
d="M110 -58l1 320l4 25h-53v54h53l-4 25v16q0 36 0.5 53t4.5 41.5t11.5 35.5t22 19.5t36.5 8.5l85 -3q0 -31 -6.5 -36.5t-43.5 -6.5l-28 -1q-22 -1 -22 -111v-16l-4 -25h99v-54h-100l4 -25v-372q-20 0 -28.5 1t-17.5 5.5t-11.5 15.5t-2.5 30z" />
    <glyph glyph-name="circumflex" unicode="&#x2c6;" horiz-adv-x="352" 
d="M293 617l-118 66l-117 -66v55l104 60h26l105 -61v-54z" />
    <glyph glyph-name="caron" unicode="&#x2c7;" horiz-adv-x="347" 
d="M291 678l-105 -51h-26l-104 50v55l117 -56l118 56v-54z" />
    <glyph glyph-name="breve" unicode="&#x2d8;" horiz-adv-x="352" 
d="M313 607l-138 76l-137 -76v55l124 70h26l125 -71v-54z" />
    <glyph glyph-name="dotaccent" unicode="&#x2d9;" horiz-adv-x="176" 
d="M92 641q-19 0 -32.5 13.5t-13.5 32.5t13.5 32t32.5 13t32.5 -13t13.5 -32t-13.5 -32.5t-32.5 -13.5z" />
    <glyph glyph-name="ring" unicode="&#x2da;" horiz-adv-x="249" 
d="M207 650q0 -34 -24.5 -58t-58.5 -24t-58.5 24t-24.5 58t24.5 57.5t58.5 23.5t58.5 -23.5t24.5 -57.5zM165 650q0 16 -12 28t-29 12t-29 -11.5t-12 -28.5t12 -29t29 -12t29 12t12 29z" />
    <glyph glyph-name="ogonek" unicode="&#x2db;" horiz-adv-x="203" 
d="M186 -200h-65l-94 87v26l40 87h54l-45 -100z" />
    <glyph glyph-name="tilde" unicode="&#x2dc;" horiz-adv-x="377" 
d="M303 718v-21q0 -23 -7.5 -26.5t-51.5 -3.5q-23 0 -59 2t-60.5 2t-43.5 -4l-13 2v21q0 22 7.5 26t51.5 4q23 0 59 -2t60.5 -2t43.5 4z" />
    <glyph glyph-name="hungarumlaut" unicode="&#x2dd;" horiz-adv-x="382" 
d="M182 701l-115 -114l-35 36l68 76q33 33 42 33q7 0 33 -24zM353 701l-115 -114l-35 36l68 76q33 33 42 33q7 0 33 -24z" />
    <glyph glyph-name="Delta" unicode="&#x394;" 
 />
    <glyph glyph-name="Delta" unicode="&#x2206;" 
 />
    <glyph glyph-name="Omega" unicode="&#x3a9;" 
 />
    <glyph glyph-name="Omega" unicode="&#x2126;" 
 />
    <glyph glyph-name="pi" unicode="&#x3c0;" 
 />
    <glyph glyph-name="endash" unicode="&#x2013;" horiz-adv-x="395" 
d="M333 300h-273v51h273v-51z" />
    <glyph glyph-name="emdash" unicode="&#x2014;" horiz-adv-x="613" 
d="M552 300h-492v51h492v-51z" />
    <glyph glyph-name="quoteleft" unicode="&#x2018;" horiz-adv-x="166" 
d="M97 732l39 -25q-12 -43 -18 -74.5t-6 -43.5t1.5 -24.5t1.5 -14.5q0 -19 -13.5 -32t-32.5 -13t-32.5 13.5t-13.5 33.5q0 19 18.5 64t36.5 80z" />
    <glyph glyph-name="quoteright" unicode="&#x2019;" horiz-adv-x="164" 
d="M69 505l-39 25q12 43 18 74.5t6 43.5t-1.5 24.5t-1.5 14.5q0 19 13.5 32t32.5 13t32.5 -13.5t13.5 -33.5q0 -19 -18.5 -64t-36.5 -81z" />
    <glyph glyph-name="quotesinglbase" unicode="&#x201a;" horiz-adv-x="164" 
d="M69 -136l-39 25q12 43 18 74.5t6 43.5t-1.5 24.5t-1.5 14.5q0 19 13.5 32t32.5 13t32.5 -13.5t13.5 -33.5q0 -19 -18.5 -64t-36.5 -80z" />
    <glyph glyph-name="quotedblleft" unicode="&#x201c;" horiz-adv-x="343" 
d="M259 732l39 -25q-12 -43 -18 -74.5t-6 -43.5t1.5 -24.5t1.5 -14.5q0 -19 -13.5 -32t-32.5 -13t-32.5 13.5t-13.5 33.5q0 19 18.5 64t36.5 80zM115 732l39 -25q-12 -43 -18 -74.5t-6 -43.5t1.5 -24.5t1.5 -14.5q0 -19 -13.5 -32t-32.5 -13t-32.5 13.5t-13.5 33.5
q0 19 18.5 64t36.5 80z" />
    <glyph glyph-name="quotedblright" unicode="&#x201d;" horiz-adv-x="343" 
d="M85 505l-39 25q12 43 18 74.5t6 43.5t-1.5 24.5t-1.5 14.5q0 19 13.5 32t32.5 13t32.5 -13.5t13.5 -33.5q0 -19 -18.5 -64t-36.5 -81zM229 505l-39 25q12 43 18 74.5t6 43.5t-1.5 24.5t-1.5 14.5q0 19 13.5 32t32.5 13t32.5 -13.5t13.5 -33.5q0 -19 -18.5 -64t-36.5 -81z
" />
    <glyph glyph-name="quotedblbase" unicode="&#x201e;" horiz-adv-x="345" 
d="M85 -136l-39 25q12 43 18 74.5t6 43.5t-1.5 24.5t-1.5 14.5q0 19 13.5 32t32.5 13t32.5 -13.5t13.5 -33.5q0 -19 -18.5 -64t-36.5 -80zM231 -136l-39 25q12 43 18 74.5t6 43.5t-1.5 24.5t-1.5 14.5q0 19 13.5 32t32.5 13t32.5 -13.5t13.5 -33.5q0 -19 -18.5 -64
t-36.5 -80z" />
    <glyph glyph-name="dagger" unicode="&#x2020;" horiz-adv-x="288" 
d="M175 0h-63v327l4 25h-108v51h108l-4 25v304h63v-304l-4 -25h110v-51h-110l4 -25v-327z" />
    <glyph glyph-name="daggerdbl" unicode="&#x2021;" horiz-adv-x="292" 
d="M177 0h-63v317l4 25h-108v51h108l-4 25l4 38h-108v51h108l-4 25v200h63v-200l-4 -25h110v-51h-110l4 -35l-4 -28h110v-51h-110l4 -25v-317z" />
    <glyph glyph-name="bullet" unicode="&#x2022;" horiz-adv-x="222" 
d="M111 232q-28 0 -48.5 20.5t-20.5 48.5t20 48t49 20q28 0 48.5 -20t20.5 -48t-20.5 -48.5t-48.5 -20.5z" />
    <glyph glyph-name="ellipsis" unicode="&#x2026;" horiz-adv-x="489" 
d="M102 0q-19 0 -32.5 13.5t-13.5 32.5t13.5 32t32.5 13t32.5 -13t13.5 -32t-13.5 -32.5t-32.5 -13.5zM248 0q-19 0 -32.5 13.5t-13.5 32.5t13.5 32t32.5 13t32.5 -13t13.5 -32t-13.5 -32.5t-32.5 -13.5zM388 0q-19 0 -32.5 13.5t-13.5 32.5t13.5 32t32.5 13t32.5 -13
t13.5 -32t-13.5 -32.5t-32.5 -13.5z" />
    <glyph glyph-name="perthousand" unicode="&#x2030;" horiz-adv-x="374" 
d="M73 0h-68l294 732h68z" />
    <glyph glyph-name="guilsinglleft" unicode="&#x2039;" horiz-adv-x="185" 
d="M143 135h-55l-70 154v26l71 155h54l-76 -168z" />
    <glyph glyph-name="guilsinglright" unicode="&#x203a;" horiz-adv-x="185" 
d="M97 135h-55l76 167l-76 168h54l71 -155v-26z" />
    <glyph glyph-name="fraction" unicode="&#x2044;" horiz-adv-x="372" 
d="M73 0h-68l294 732h68z" />
    <glyph glyph-name="Euro" unicode="&#x20ac;" horiz-adv-x="379" 
d="M334 1l-99 -7q-80 0 -104.5 42.5t-26.5 154.5l5 12q-47 3 -67 -1l-13 2v21q0 23 7.5 26.5t51.5 3.5h20l-4 12v26l4 9q-44 3 -63 -1l-13 2v21q0 22 7.5 26t51.5 4h17l-4 15q3 99 28.5 137.5t102.5 38.5l99 -7q0 -34 -6 -40t-44 -6h-49q-41 0 -56 -27.5t-17 -98.5l-6 -16
q111 -10 138 -4l13 -2v-21q0 -23 -7.5 -26.5t-51.5 -3.5q-33 0 -90 5l4 -10v-25l-4 -13q109 -8 133 -3l13 -2v-21q0 -22 -7.5 -26t-51.5 -4q-21 0 -87 4l4 -12q2 -77 16.5 -108t56.5 -31h99v-46z" />
    <glyph glyph-name="trademark" unicode="&#x2122;" horiz-adv-x="540" 
d="M479 372h-43v278l-56 -128h-50l-57 128v-278h-43v360h43l78 -160h8l77 160h43v-360zM144 372h-45v295l2 18h-55v47h151v-47h-55l2 -18v-295z" />
    <glyph glyph-name="partialdiff" unicode="&#x2202;" 
 />
    <glyph glyph-name="product" unicode="&#x220f;" 
 />
    <glyph glyph-name="summation" unicode="&#x2211;" 
 />
    <glyph glyph-name="minus" unicode="&#x2212;" horiz-adv-x="336" 
d="M274 300h-214v51h214v-51z" />
    <glyph glyph-name="radical" unicode="&#x221a;" 
 />
    <glyph glyph-name="infinity" unicode="&#x221e;" 
 />
    <glyph glyph-name="integral" unicode="&#x222b;" 
 />
    <glyph glyph-name="approxequal" unicode="&#x2248;" 
 />
    <glyph glyph-name="notequal" unicode="&#x2260;" 
 />
    <glyph glyph-name="lessequal" unicode="&#x2264;" 
 />
    <glyph glyph-name="greaterequal" unicode="&#x2265;" 
 />
    <glyph glyph-name="lozenge" unicode="&#x25ca;" 
 />
    <glyph glyph-name="apple" 
 />
    </font>
</defs>
</svg>
