<?xml version="1.0" standalone="no"?>
<!DOCTYPE svg PUBLIC "-//W3C//DTD SVG 1.1//EN" "http://www.w3.org/Graphics/SVG/1.1/DTD/svg11.dtd" >
<svg>
<metadata>
Created by FontForge 20090622 at Fri Nov 11 10:50:59 2016
 By deploy user
Copyright (c) 2012, Vicente Lamonaca (produccion.taller@gmail.com www.tipografia-montevideo.info www.tipotype.com)
</metadata>
<defs>
<font id="Economica-Bold" horiz-adv-x="500" >
  <font-face 
    font-family="Economica"
    font-weight="700"
    font-stretch="normal"
    units-per-em="1000"
    panose-1="2 0 5 6 3 0 0 2 0 4"
    ascent="800"
    descent="-200"
    x-height="537"
    cap-height="720"
    bbox="-46 -191 727 937"
    underline-thickness="24"
    underline-position="-25"
    unicode-range="U+0020-U+FB04"
  />
<missing-glyph horiz-adv-x="190" 
 />
    <glyph glyph-name="fi" unicode="fi" horiz-adv-x="422" 
d="M155 560l-10 -23h135q67 0 78 -7.5t11 -52.5v-481q-67 0 -78 7.5t-11 52.5v397h-136l10 -29v-541q-1 -53 -11.5 -61.5t-77.5 -8.5l1 611l9 29h-55v84h55l-9 25v50.5t3 37t6 29t13.5 18t20.5 13.5t32.5 6t44.5 4h60h124v-71h-124q-68 0 -79.5 -11t-11.5 -78z" />
    <glyph glyph-name="fl" unicode="fl" horiz-adv-x="434" 
d="M246 649q-68 0 -79.5 -11t-11.5 -78l-10 -23h99v-84h-100l10 -29v-541q-1 -53 -11.5 -61.5t-77.5 -8.5l1 611l9 29h-55v84h55l-9 25v50.5t3 37t6 29t13.5 18t20.5 13.5t32.5 6t44.5 4h60h51q66 0 77.5 -7.5t11.5 -53.5v-663q-67 0 -78 7.5t-11 52.5v593h-51z" />
    <glyph glyph-name="f_f_i" unicode="ffi" horiz-adv-x="661" 
d="M515 56v397h-150l10 -29v-541v-30t-4 -19t-7 -13t-16 -5t-24 -3h-38l1 611l9 29h-152l10 -29v-541q-1 -53 -11.5 -61.5t-77.5 -8.5l1 611l9 29h-55v84h55l-9 25v50.5t3 37t6 29t13.5 18t20.5 13.5t32.5 6t44.5 4h60v-71q-68 0 -79.5 -11t-11.5 -78l-10 -23h151l-9 25
v50.5t3 37t6 29t13.5 18t20.5 13.5t32.5 6t44.5 4h60h137v-71h-138q-67 0 -78.5 -11.5t-11.5 -77.5l-10 -23h149q67 0 78 -7.5t11 -52.5v-481q-67 0 -78 7.5t-11 52.5z" />
    <glyph glyph-name="f_f_l" unicode="ffl" horiz-adv-x="676" 
d="M626 659v-663q-67 0 -78 7.5t-11 52.5v593h-68q-68 0 -79.5 -11t-11.5 -78l-10 -23h99v-84h-100l10 -29v-541v-30t-4 -19t-7 -13t-16 -5t-24 -3h-38l1 611l9 29h-154l10 -29v-541q-1 -53 -11.5 -61.5t-77.5 -8.5l1 611l9 29h-55v84h55l-9 25v50.5t3 37t6 29t13.5 18
t20.5 13.5t32.5 6t44.5 4h60v-71q-68 0 -79.5 -11t-11.5 -78l-10 -23h153l-9 25v50.5t3 37t6 29t13.5 18t20.5 13.5t32.5 6t44.5 4h60h68q66 0 77.5 -7.5t11.5 -53.5z" />
    <glyph glyph-name="E_s" unicode="Es" horiz-adv-x="681" 
d="M158 320v-206l-9 -25l358 -11q14 0 23 5t13.5 10.5t6.5 20t2.5 23t0.5 30.5q0 15 -28.5 41t-62 51t-62 62.5t-28.5 72.5q0 31 1 47t8.5 39.5t22 34.5t43 20t69.5 9l117 -24q-8 -58 -18 -66.5t-57 -1.5l-39 7q-20 0 -32.5 -4t-17.5 -14t-6 -18t-1 -24q0 -18 29 -44
t64.5 -50t64.5 -59.5t29 -70.5t-1 -53t-8.5 -47t-21.5 -44t-42.5 -26.5t-69.5 -11.5l-446 7v720h284v-85h-195l9 -25v-153l-9 -25h183v-89h-182z" />
    <glyph glyph-name="E_S" unicode="ES" horiz-adv-x="756" 
d="M158 320v-206l-9 -25h388q26 0 43.5 7t26.5 16.5t13 28.5t4.5 32t0.5 37q0 25 -17 51t-31.5 39l-50.5 44l-55.5 49.5t-43.5 45.5t-39.5 59t-11.5 58q0 35 1 51.5t5.5 41.5t15.5 36.5t30.5 24.5t50.5 17.5t75 4.5l136 -29q-8 -57 -23 -67.5t-70 0.5l-38 7
q-30 0 -47.5 -5.5t-25 -18.5t-9 -24t-1.5 -33q0 -39 74 -104l37 -31q40 -31 66 -56t50 -62t24 -70t-0.5 -50.5t-4 -48t-10.5 -47.5t-21 -39t-34 -33t-51 -19.5t-71 -8.5l-475 7v720h284v-85h-195l9 -25v-153l-9 -25h183v-89h-182z" />
    <glyph glyph-name="c_s" unicode="cs" horiz-adv-x="628" 
d="M489 452l-39 7q-20 0 -32.5 -4t-17.5 -14t-6 -18t-1 -24q0 -18 29 -44t64.5 -50t64.5 -59.5t29 -70.5t-1 -53t-8.5 -47t-21.5 -44t-42.5 -26.5t-69.5 -11.5l-133 17l-109 -17q-25 0 -44.5 3.5t-35 8t-26.5 17l-18.5 21.5t-12.5 31t-7.5 36t-4 46.5t-1.5 52v62.5v61.5
t1.5 51.5t4 45.5t7.5 35.5t12.5 30.5l18.5 20.5t26.5 16.5t35 8t44.5 3.5l93 -24q-5 -33 -8 -47t-11.5 -23.5t-20.5 -8t-35 10.5l-18 7q-41 0 -53 -40q-8 -30 -8 -148q0 -129 11 -159q13 -34 50 -34l109 10l134 -10q14 0 23 5t13.5 10.5t6.5 20t2.5 23t0.5 30.5
q0 15 -28.5 41t-62 51t-62 62.5t-28.5 72.5q0 31 1 47t8.5 39.5t22 34.5t43 20t69.5 9l117 -24q-8 -58 -18 -66.5t-57 -1.5z" />
    <glyph glyph-name="o_t" unicode="ot" horiz-adv-x="673" 
d="M45 271v56.5t1 47.5t3 43t6 34.5t9.5 30t14 22.5t19.5 18t26 11t33.5 8t41.5 2h274l-8 30v51q67 0 78.5 -6.5t11.5 -47.5l-8 -27h100q0 -57 -10.5 -71t-61.5 -14h-29l9 -25v-204q0 -85 6.5 -116.5t27.5 -35.5h76v-78l-81 -5q-23 0 -39.5 2t-29.5 10t-21 14t-14 24.5
t-9 30t-4.5 42t-1.5 50v62.5v204l8 25h-131q12 -44 12 -188v-56t-1 -48.5t-3 -43.5t-6 -35t-9.5 -30.5t-14 -23t-20 -19t-26.5 -12t-33.5 -8.5t-41.5 -2q-29 0 -50.5 3t-38 13t-27.5 19t-18.5 30.5t-11.5 36.5t-5.5 49t-2 57t-0.5 70zM199 459q-44 0 -56 -40q-9 -30 -9 -148
q0 -128 11 -158q13 -35 54 -35q44 0 56 42q9 31 9 151q0 125 -11 154q-13 34 -54 34z" />
    <glyph glyph-name="x_t" unicode="xt" horiz-adv-x="652" 
d="M164 208l-65 -208q-23 0 -33.5 0.5t-23 2t-17.5 6t-5 12.5q0 5 3 11v-1l97 259l-98 247q69 0 84 -6.5t29 -44.5l36 -124h9l51 175h19h186l-8 37v51q68 0 79 -6.5t11 -47.5l-8 -34h100q0 -57 -10.5 -70.5t-61.5 -13.5h-29l9 -25v-198q0 -85 6.5 -116.5t27.5 -35.5h76v-78
l-81 -5q-23 0 -39.5 2t-29.5 10t-21 14t-14 24.5t-9 30t-4.5 42t-1.5 50v62.5v198l8 25h-147l-63 -172l113 -281h-93l-74 208h-8z" />
    <glyph glyph-name="f_u" unicode="fu" horiz-adv-x="608" 
d="M485 143v394q67 0 78.5 -7.5t11.5 -52.5v-477q-59 0 -74 3.5t-16 23.5l-64 -34q-100 0 -131 52q-25 41 -26 166v60v182h-120l10 -29v-541q-1 -53 -11.5 -61.5t-77.5 -8.5l1 611l9 29h-55v84h55l-9 25v50.5t3 37t6 29t13.5 18t20.5 13.5t32.5 6t44.5 4h60v-71
q-68 0 -79.5 -11t-11.5 -78l-10 -23h119q67 0 78 -7.5t11 -52.5v-204q0 -39 0.5 -57.5t2 -46t5 -39.5t9.5 -26t16.5 -19.5t24.5 -6.5l84 35q-1 2 -3 8.5l-4 12.5z" />
    <glyph glyph-name="f_t" unicode="ft" horiz-adv-x="529" 
d="M155 560l-10 -23h149l-8 37v51q68 0 79 -6.5t11 -47.5l-8 -34h100q0 -57 -10.5 -70.5t-61.5 -13.5h-29l9 -25v-198q0 -85 6.5 -116.5t27.5 -35.5h76v-78l-81 -5q-23 0 -39.5 2t-29.5 10t-21 14t-14 24.5t-9 30t-4.5 42t-1.5 50v62.5v198l8 25h-150l10 -29v-541
q-1 -53 -11.5 -61.5t-77.5 -8.5l1 611l9 29h-55v84h55l-9 25v50.5t3 37t6 29t13.5 18t20.5 13.5t32.5 6t44.5 4h60v-71q-68 0 -79.5 -11t-11.5 -78z" />
    <glyph glyph-name=".notdef" horiz-adv-x="190" 
 />
    <glyph glyph-name=".null" horiz-adv-x="0" 
 />
    <glyph glyph-name="nonmarkingreturn" horiz-adv-x="333" 
 />
    <glyph glyph-name="space" unicode=" " horiz-adv-x="190" 
 />
    <glyph glyph-name="exclam" unicode="!" horiz-adv-x="243" 
d="M34 63q2 24 21.5 40.5t43.5 14.5t40 -21.5t14 -43.5t-21 -39.5t-43 -13.5t-40 20.5t-15 42.5zM63 175l14 476q1 42 17.5 50t81.5 3l-23 -478q-2 -21 -2 -25.5t-4.5 -15t-6.5 -10.5t-15.5 -2.5t-24 -1t-37.5 3.5z" />
    <glyph glyph-name="quotedbl" unicode="&#x22;" horiz-adv-x="347" 
d="M33 527l-5 17q22 56 22 88q0 7 -4.5 20t-4.5 21q0 25 18 42t43 17q54 0 54 -54q0 -20 -18.5 -65t-37.5 -79l-18 -35zM192 527l-5 17q22 56 22 88q0 7 -4.5 20t-4.5 21q0 25 18 42t43 17q54 0 54 -54q0 -20 -18.5 -65t-36.5 -79l-19 -35z" />
    <glyph glyph-name="numbersign" unicode="#" horiz-adv-x="644" 
d="M59 508h177l87 218h82l-86 -218h124l87 218h82l-87 -218h102v-77h-134l-48 -122h141v-77h-172l-93 -232h-82l92 232h-124l-93 -232h-82l92 232h-106v77h137l49 122h-145v77zM287 431l-49 -122h124l49 122h-124z" />
    <glyph glyph-name="dollar" unicode="$" horiz-adv-x="392" 
d="M230 455l-39 7q-21 4 -34 0.5t-18 -15t-6.5 -20.5t-1.5 -26q0 -25 29.5 -54.5t65 -52.5t65 -56t29.5 -65q0 -36 -2 -56.5t-9.5 -48.5t-27.5 -45t-52 -25l-1 -113q-55 0 -64 7.5t-10 50.5l-1 54q-16 3 -48 7t-48 7v71q8 -1 53.5 -5.5t69.5 -4.5q15 0 24.5 5t14.5 10.5
t7 19.5t2.5 21.5t0.5 26.5q0 23 -28.5 53t-63 56t-63 62.5t-28.5 69.5q0 28 0.5 41.5t6 35t15.5 32.5t31 21.5t51 14.5l1 85q55 0 64 -7t9 -51l1 -39l60 -12q-9 -49 -17.5 -58t-37.5 -4z" />
    <glyph glyph-name="percent" unicode="%" horiz-adv-x="636" 
d="M65 569q0 88 21 120t69 32q47 0 66.5 -32t19.5 -120q0 -89 -20 -123t-66 -34q-47 0 -68.5 34.5t-21.5 122.5zM155 660q-11 0 -17.5 -6t-9 -21t-3 -27t-0.5 -38q0 -27 0.5 -39t3 -27t9 -20.5t17.5 -5.5t17 5.5t8.5 20.5t3 27t0.5 39q0 26 -0.5 38t-3 27t-9 21t-16.5 6z
M381 157q0 88 21 120t69 32q47 0 66.5 -32t19.5 -120q0 -89 -20 -123t-66 -34q-47 0 -68.5 34.5t-21.5 122.5zM471 248q-11 0 -17.5 -6t-9 -21t-3 -27t-0.5 -38q0 -27 0.5 -39t3 -27t9 -20.5t17.5 -5.5t17 5.5t8.5 20.5t3 27t0.5 39q0 26 -0.5 38t-3 27t-9 21t-16.5 6z
M503 720l-288 -720h-100l289 720h99z" />
    <glyph glyph-name="ampersand" unicode="&#x26;" horiz-adv-x="551" 
d="M429 211q0 -110 -46 -164t-148 -54q-103 0 -149 53.5t-46 165.5q0 108 72 176q-26 22 -39.5 50t-13.5 79q0 175 147 175l129 -10q0 -46 -7 -57.5t-37 -12.5l-85 -2q-29 0 -44 -18.5t-15 -74.5t19 -71t68 -15v-85q-45 -2 -75.5 -38.5t-30.5 -96.5q0 -68 25.5 -102
t81.5 -34q106 0 106 136v108l5 27h-51v80h51l-5 21v44q63 0 75.5 -8.5t12.5 -54.5l89 -2q0 -26 -1.5 -37.5t-10 -23.5t-26.5 -15.5t-51 -3.5h-13l13 -29v-106z" />
    <glyph glyph-name="quotesingle" unicode="'" horiz-adv-x="184" 
d="M32 527l-5 17q22 56 22 88q0 7 -4.5 20t-4.5 21q0 25 18 42t43 17q54 0 54 -54q0 -20 -18.5 -65t-36.5 -79l-19 -35z" />
    <glyph glyph-name="parenleft" unicode="(" horiz-adv-x="271" 
d="M35 321q0 212 14 282q22 106 96 137q41 17 103 17q0 -58 -8 -68t-56 -10q-38 0 -47 -74.5t-9 -271.5v-12q0 -231 11 -286q12 -62 45 -62q48 0 56 -10t8 -68q-126 0 -171 71q-37 60 -41 221q-1 40 -1 134z" />
    <glyph glyph-name="parenright" unicode=")" horiz-adv-x="269" 
d="M234 321q0 -209 -13 -276q-21 -102 -92 -132q-41 -18 -107 -18q0 58 8 68t56 10q38 0 46.5 72.5t8.5 275.5q0 237 -11 295q-12 63 -44 63q-48 0 -56 10t-8 68q127 0 171 -77q37 -64 40 -234q1 -39 1 -125z" />
    <glyph glyph-name="asterisk" unicode="*" horiz-adv-x="321" 
d="M195 460l-34 76l-36 -74l-72 40l55 64l-81 -10v82l82 -10l-56 66l71 41l37 -75l33 76l72 -41l-53 -67l80 10l1 -82l-83 10l57 -66z" />
    <glyph glyph-name="plus" unicode="+" horiz-adv-x="270" 
d="M175 262v-68h-81v66l5 25h-81v74h81l-5 25v65h81v-65l-6 -25h83v-74h-83z" />
    <glyph glyph-name="comma" unicode="," horiz-adv-x="173" 
d="M31 -86l-5 17q22 56 22 88q0 7 -4.5 20t-4.5 21q0 25 18 42t43 17q54 0 54 -54q0 -20 -18.5 -64.5t-37.5 -79.5l-18 -35z" />
    <glyph glyph-name="hyphen" unicode="-" horiz-adv-x="326" 
d="M45 363h235v-82h-235v82z" />
    <glyph glyph-name="period" unicode="." horiz-adv-x="182" 
d="M31 60q0 25 18 42t42 17t42 -17t18 -42q0 -24 -18 -42t-42 -18t-42 18t-18 42z" />
    <glyph glyph-name="slash" unicode="/" horiz-adv-x="398" 
d="M388 720l-287 -907h-95l286 907h96z" />
    <glyph glyph-name="zero" unicode="0" horiz-adv-x="410" 
d="M60 359q0 190 13 248q18 83 82 104q28 9 68 9q99 0 132 -64q28 -53 30 -210v-87q0 -191 -13 -251q-20 -86 -86 -107q-26 -8 -63 -8q-100 0 -134 69q-27 55 -29 216v81zM153 359q0 -176 13 -223q15 -55 57 -55q47 0 58 60.5t11 217.5q0 173 -12 219q-15 54 -57 54
q-48 0 -59 -58t-11 -215z" />
    <glyph glyph-name="one" unicode="1" horiz-adv-x="410" 
d="M265 648v-545l-6 -14h114v-89h-313q0 64 9.5 76.5t62.5 12.5h46l-6 14v519l-60 -10v85l75 11h7q52 0 61.5 -7.5t9.5 -52.5z" />
    <glyph glyph-name="two" unicode="2" horiz-adv-x="410" 
d="M158 87h213v-87h-309v231q0 36 21.5 72t52.5 65.5l62 58.5t52.5 62t21.5 65q0 21 -1.5 32t-8.5 23.5t-24.5 17.5t-46.5 5h-66q-49 0 -57 10t-8 67l134 11q44 0 74.5 -4.5t50 -17t30.5 -24t15.5 -36t5.5 -40.5t1 -51q0 -36 -22 -72t-53 -66l-62 -59t-53 -62t-22 -64v-131z
" />
    <glyph glyph-name="three" unicode="3" horiz-adv-x="410" 
d="M346 708l-93 -223q28 -4 45.5 -14.5t27.5 -22.5t14.5 -41t5.5 -53.5t1 -75.5v-35q0 -144 -12 -182q-15 -50 -67 -62q-26 -6 -70 -6q-21 0 -43.5 2.5t-51.5 7.5t-43 7v78q8 -1 57.5 -5.5t75.5 -4.5q43 0 51.5 28.5t8.5 136.5t-8.5 134.5t-51.5 26.5h-71l92 220h-153v84
h285z" />
    <glyph glyph-name="four" unicode="4" horiz-adv-x="410" 
d="M367 232h-44q0 -7 6 -13l-2 -219q-65 0 -76.5 7.5t-11.5 52.5v157l6 15h-235l222 476h97v-378l-6 -14h44v-84zM239 330v201l-91 -215h97z" />
    <glyph glyph-name="five" unicode="5" horiz-adv-x="410" 
d="M154 611v-109l-5 -15h74q19 0 33.5 -1.5t27 -7t21 -10t15.5 -16l11.5 -19.5t7.5 -27t4.5 -30.5t2.5 -38.5t1 -43v-51v-56.5t-1 -46t-3 -40l-5.5 -31.5t-9 -26.5t-14 -18.5t-19 -15.5l-25.5 -8.5t-32.5 -6t-40.5 -1l-137 7v78h133q43 0 52 28.5t9 136.5t-8.5 134.5
t-52.5 26.5h-133v305l277 -1v-84h-189q0 -7 6 -13z" />
    <glyph glyph-name="six" unicode="6" horiz-adv-x="410" 
d="M220 410l-66 -19l-1 -96q0 -135 10 -168q12 -43 53 -43q44 0 53 28t9 138q0 100 -9.5 129.5t-48.5 30.5zM162 479l49 15q100 0 130 -33q27 -30 29 -128q1 -24 1 -83v-56.5t-1 -46t-3 -40t-6 -31.5t-9.5 -26.5l-14.5 -19t-20 -15l-26 -8.5t-33 -6t-42 -1q-29 0 -51 4
t-38 15t-27.5 21.5t-19 33t-11.5 40.5t-6 52t-2.5 59t-0.5 70v70t1 64.5t3.5 62.5l6.5 54.5t10.5 50.5l15.5 41t21.5 35.5t28 24.5t36 17t45.5 5l129 -12q0 -56 -8 -66t-56 -10h-65q-31 0 -44.5 -34.5t-21.5 -118.5z" />
    <glyph glyph-name="seven" unicode="7" horiz-adv-x="410" 
d="M378 641l-242 -641h-96l231 624h-205v84h312v-67z" />
    <glyph glyph-name="eight" unicode="8" horiz-adv-x="410" 
d="M198 -7q-75 0 -121.5 57t-46.5 162q0 109 73 176q-54 60 -54 153q0 99 42.5 142.5t106.5 43.5t107 -44t43 -142t-52 -160q70 -65 70 -169t-46.5 -161.5t-121.5 -57.5zM198 81q34 0 54 34t20 96q0 60 -23.5 96t-50.5 36q-28 0 -51.5 -36.5t-23.5 -95.5q0 -62 20.5 -96
t54.5 -34zM198 432q57 0 57 109q0 99 -57 99q-55 0 -55 -99q0 -109 55 -109z" />
    <glyph glyph-name="nine" unicode="9" horiz-adv-x="410" 
d="M214 310l63 24l1 90q0 148 -8 176q-8 31 -39 35q-7 1 -16 1q-44 0 -53 -28t-9 -138q0 -97 11 -128t50 -32zM269 249l-51 -24q-98 0 -128 33q-27 31 -29 129q-1 24 -1 83q0 41 0.5 61.5t1.5 50t4 42.5t8 32t13 26l19 17t27 13t36 5.5t46 2.5q30 0 51 -2t38 -10.5t27.5 -16
t18.5 -28.5t12 -37t6 -53t2.5 -65.5t0.5 -83.5q0 -50 -0.5 -77.5t-2 -71t-4.5 -67.5t-9.5 -57.5t-15.5 -52.5t-22.5 -40.5t-31 -32t-41.5 -18t-53 -7.5l-127 12v75h129q33 0 50.5 38.5t25.5 123.5z" />
    <glyph glyph-name="colon" unicode=":" horiz-adv-x="192" 
d="M34 60q0 25 18 42t42 17t42 -17t18 -42q0 -24 -18 -42t-42 -18t-42 18t-18 42zM40 478q0 25 18 42t42 17q25 0 43 -17t18 -42q0 -24 -18.5 -42t-42.5 -18t-42 18t-18 42z" />
    <glyph glyph-name="semicolon" unicode=";" horiz-adv-x="189" 
d="M45 478q0 25 18 42t43 17q24 0 42 -17t18 -42q0 -24 -18 -42t-42 -18q-25 0 -43 18t-18 42zM31 -86l-5 17q22 56 22 88q0 7 -4.5 20t-4.5 21q0 25 18 42t43 17q54 0 54 -54q0 -20 -18.5 -64.5t-37.5 -79.5l-18 -35z" />
    <glyph glyph-name="less" unicode="&#x3c;" horiz-adv-x="267" 
d="M12 282v34l131 221h92l-140 -238l141 -246h-93z" />
    <glyph glyph-name="equal" unicode="=" horiz-adv-x="368" 
d="M45 411h289v-83h-289v83zM45 279h289v-83h-289v83z" />
    <glyph glyph-name="greater" unicode="&#x3e;" horiz-adv-x="265" 
d="M253 316v-34l-131 -229h-91l139 246l-139 238h91z" />
    <glyph glyph-name="question" unicode="?" horiz-adv-x="340" 
d="M46 60q0 25 18 42t42 17t42 -17t18 -42q0 -24 -18 -42t-42 -18t-42 18t-18 42zM63 188v43q1 45 25 92t52.5 80.5t52 75t23.5 75.5q0 20 -2 31.5t-10 23.5t-26 17.5t-48 5.5h-36q-48 0 -56 10t-8 66l104 12q33 0 58.5 -2.5t44 -10t31 -13.5t20.5 -21l12.5 -23.5t6.5 -31
t2 -33v-38.5q0 -47 -23.5 -93.5t-51.5 -78.5t-53 -71.5t-28 -72.5v-43h-90z" />
    <glyph glyph-name="at" unicode="@" horiz-adv-x="543" 
d="M292 331l-43 -4l-11 -63q-1 -24 9 -39l45 21v85zM369 409v-182h2q40 0 47.5 10t7.5 49v157q0 21 -22 19l-231 -14q-23 -1 -34.5 -10t-13 -17.5t-1.5 -27.5q0 -195 10 -257.5t56 -62.5h171q45 0 54 -15.5t9 -72.5h-237q-86 0 -116 61q-28 55 -30 228v117q0 72 23.5 103.5
t107.5 36.5l228 13q64 2 85.5 -25t21.5 -81v-150q0 -35 -0.5 -51t-5 -35.5t-12 -26.5t-23.5 -15t-38 -9.5t-57 -1.5h-10q-18 0 -30.5 5.5t-17.5 11.5t-11 17l-50 -39q-24 0 -35 0.5t-22.5 6.5t-15.5 11.5t-7.5 25t-3.5 37.5v57v35q0 90 143 92h58z" />
    <glyph glyph-name="A" unicode="A" horiz-adv-x="452" 
d="M432 0h-33q-51 0 -61.5 8t-19.5 53l-34 169h-126l-41 -230h-23q-48 0 -61 5.5t-13 31.5q0 15 152 683h96zM215 538l-37 -195l-8 -17h103q-1 1 -5 9.5t-4 9.5l-39 193h-10z" />
    <glyph glyph-name="B" unicode="B" horiz-adv-x="443" 
d="M60 1v720l137 11q29 0 53 -3.5t41.5 -8t31 -14.5t22 -18t14.5 -24.5t9.5 -27.5t5 -33.5t1.5 -36v-40.5q0 -54 -5 -79.5t-22 -49.5q36 -31 50.5 -70.5t14.5 -122.5q0 -26 -0.5 -40.5t-2 -36.5t-5 -34t-10.5 -28.5t-16.5 -25t-24.5 -19t-34 -15.5t-45 -8.5t-58 -3.5z
M150 645l7 -21v-176l-9 -20h48q60 0 75 17t15 81q0 68 -16.5 93.5t-73.5 25.5h-46zM147 73h69q71 0 90.5 26.5t19.5 97.5q0 38 -3 62.5t-13.5 49t-34 36.5t-59.5 12h-69l9 -21v-242z" />
    <glyph glyph-name="C" unicode="C" horiz-adv-x="402" 
d="M255 627l-28 7q-57 0 -71 -90q-8 -47 -8 -178q0 -161 15 -210q17 -58 64 -58q30 0 80 4.5t65 5.5v-97q-9 -1 -59.5 -9.5t-80.5 -8.5t-54 6.5t-42 16t-32 29t-23 35.5t-15 46.5t-9 50.5t-5 59.5t-2 62v67.5v67t2 60.5t5 58.5t9 50t15 45.5t23 34.5t32 28t42 15.5t54 6.5
l139 -32q-8 -58 -30 -71.5t-86 -1.5z" />
    <glyph glyph-name="D" unicode="D" horiz-adv-x="480" 
d="M60 722l190 10q120 0 156 -103q24 -64 24 -234v-29v-67.5t-2 -62t-5 -59.5t-9 -50.5t-15 -46.5t-22.5 -35.5t-31 -29t-41.5 -16t-54 -6.5l-190 7v722zM147 643l8 -25v-511l-9 -25h104q16 0 28 5t21 18t15.5 25t10 36l6 41t3.5 49.5t1 51.5v58v57t-1 51t-3.5 48l-6 39.5
t-10 35t-15.5 24t-21 17.5t-28 5h-103z" />
    <glyph glyph-name="E" unicode="E" horiz-adv-x="404" 
d="M158 320v-206l-9 -25h225v-89h-314v720h304v-85h-215l9 -25v-153l-9 -25h203v-89h-202z" />
    <glyph glyph-name="F" unicode="F" horiz-adv-x="394" 
d="M158 610v-153l-9 -25h203v-89h-202l8 -23v-320h-25q-54 0 -63.5 7.5t-9.5 53.5v659h304v-85h-215z" />
    <glyph glyph-name="G" unicode="G" horiz-adv-x="459" 
d="M278 636l-38 7q-16 0 -28 -5t-21 -17.5t-15.5 -24t-10 -35l-6 -39.5t-3.5 -48t-1 -51v-57v-58t1 -51.5t3.5 -49.5l6 -41t10 -36t15.5 -25t21 -18t28 -5t47 4.5t37 5.5l-8 25v192q0 55 7.5 64t52.5 9h33v-372q-17 -2 -52.5 -7t-63.5 -7.5t-53 -2.5q-30 0 -54 6.5t-41.5 16
t-31 29t-22.5 35.5t-15 46.5t-9 50.5t-5 59.5t-2 62v67.5q0 174 16 238q27 107 119 124q21 4 45 4l149 -32q-8 -57 -27.5 -67t-83.5 3z" />
    <glyph glyph-name="H" unicode="H" horiz-adv-x="465" 
d="M311 322l8 21h-174l8 -23v-259q0 -46 -9.5 -53.5t-62.5 -7.5h-21v720h21q53 0 62.5 -7.5t9.5 -53.5v-202l-4 -25h165l-3 25v263h22q53 0 62.5 -7.5t9.5 -53.5v-659h-20q-55 0 -64.5 7.5t-9.5 53.5v261z" />
    <glyph glyph-name="I" unicode="I" horiz-adv-x="215" 
d="M60 61v659h21q55 0 64.5 -7.5t9.5 -53.5v-659h-23q-54 0 -63 7.5t-9 53.5z" />
    <glyph glyph-name="J" unicode="J" horiz-adv-x="214" 
d="M60 720h22q54 0 63 -7.5t9 -53.5v-509v-60.5t-1.5 -54t-4 -51t-7 -43.5t-11.5 -40l-17.5 -31t-25 -27t-32.5 -18t-41.5 -12.5t-52.5 -3.5v79q24 0 41.5 7.5t28 27t17 37t9 55t3 61.5t0.5 74v570z" />
    <glyph glyph-name="K" unicode="K" horiz-adv-x="464" 
d="M444 0h-30q-49 0 -67.5 9.5t-34.5 45.5l-145 308l168 357h15q29 0 40.5 -1t19.5 -7t8 -20q0 -8 -93 -207l-57 -122zM153 659v-598q0 -46 -9.5 -53.5t-62.5 -7.5h-21v720h21q53 0 62.5 -7.5t9.5 -53.5z" />
    <glyph glyph-name="L" unicode="L" horiz-adv-x="371" 
d="M149 89h129q54 0 63.5 -8t9.5 -54v-27h-291v720h25q54 0 63.5 -7.5t9.5 -53.5v-545z" />
    <glyph glyph-name="M" unicode="M" horiz-adv-x="556" 
d="M416 61l-1 455h-3l-74 -179l-27 -50h-66l-27 50l-76 180h-3v-456q0 -46 -9.5 -53.5t-62.5 -7.5h-22v720h23q48 0 60 -7t31 -48l109 -249h20l134 304h15q54 0 63.5 -7.5t9.5 -53.5v-659h-22q-54 0 -63 7.5t-9 53.5z" />
    <glyph glyph-name="N" unicode="N" horiz-adv-x="436" 
d="M154 664l137 -444h5v500h22q54 0 63 -7.5t9 -53.5v-659h-30q-50 0 -62 7.5t-26 48.5l-129 432h-5v-427q0 -46 -9 -53.5t-63 -7.5h-21v720h22q49 0 60 -7t27 -49z" />
    <glyph glyph-name="O" unicode="O" horiz-adv-x="487" 
d="M50 366q0 195 43 280.5t152 85.5q108 0 150 -85t42 -281q0 -202 -39.5 -287.5t-152.5 -85.5q-114 0 -154.5 86t-40.5 287zM145 366q0 -143 22 -213.5t78 -70.5q55 0 77 70.5t22 212.5q0 278 -99 278q-100 0 -100 -277z" />
    <glyph glyph-name="P" unicode="P" horiz-adv-x="467" 
d="M154 61q0 -46 -9 -53.5t-63 -7.5h-22v721l162 11q32 0 58 -3.5t45.5 -8t34 -14.5t24 -18t16 -24.5t10 -27t5 -33t2 -35.5t0.5 -40q0 -39 -1 -58.5t-6.5 -47.5t-17.5 -42t-33 -28.5t-55 -20t-81 -5.5h-69v-265zM146 415h77q29 0 47.5 5t28.5 11t14.5 23t5.5 30.5t1 43.5
q0 31 -1 44.5t-5.5 31t-14.5 23.5t-28.5 11t-47.5 5h-77l8 -25v-180z" />
    <glyph glyph-name="Q" unicode="Q" horiz-adv-x="485" 
d="M576 -98v-44q0 -32 -8 -37.5t-58 -5.5q-24 0 -190.5 24t-195.5 19l-22 2v24q0 15 0.5 22.5t5.5 16t15 12.5l76 63q-83 17 -116 104.5t-33 263.5q0 198 41.5 282t153.5 84t153 -84t41 -282q0 -157 -25.5 -242.5t-87.5 -114.5h1l-102 -73q30 -3 117.5 -13.5t141.5 -16
t69 -2.5zM145 366q0 -143 22 -213.5t78 -70.5t77.5 70t21.5 213t-21 210.5t-78 67.5q-58 0 -79 -66.5t-21 -210.5z" />
    <glyph glyph-name="R" unicode="R" horiz-adv-x="470" 
d="M155 301l1 -240q0 -46 -9 -53.5t-63 -7.5h-24v721l143 11q29 0 52.5 -3.5t41 -8t30.5 -14.5t22 -18t14.5 -24.5l9 -27t5 -33t1.5 -35.5v-40q0 -45 -3 -75.5t-11.5 -59.5t-26.5 -45t-47 -19l159 -329h-33q-50 0 -68 9.5t-33 43.5l-123 273h-47zM155 618v-180l-8 -23h58
q54 0 65.5 22t11.5 91q0 31 -0.5 44.5t-4.5 31t-12 23.5t-22.5 11t-37.5 5h-59z" />
    <glyph glyph-name="S" unicode="S" horiz-adv-x="436" 
d="M266 636l-38 7q-30 0 -47.5 -5.5t-25 -18.5t-9 -24t-1.5 -33q0 -39 74 -104l37 -31q40 -31 66 -56t50 -62t24 -70t-0.5 -50.5t-4 -48t-10.5 -47.5t-21 -39t-34 -33t-51 -19.5t-71 -8.5q-24 0 -51.5 3.5t-61 9.5t-51.5 8v85q10 -1 72 -5.5t94 -4.5q26 0 43.5 7t26.5 16.5
t13 28.5t4.5 32t0.5 37q0 25 -17 51t-31.5 39l-50.5 44l-55.5 49.5t-43.5 45.5t-39.5 59t-11.5 58q0 35 1 51.5t5.5 41.5t15.5 36.5t30.5 24.5t50.5 17.5t75 4.5l136 -29q-8 -57 -23 -67.5t-70 0.5z" />
    <glyph glyph-name="T" unicode="T" horiz-adv-x="363" 
d="M343 635h-122l9 -25v-549q0 -46 -9.5 -53.5t-63.5 -7.5h-24v610l7 25h-120v85h323v-85z" />
    <glyph glyph-name="U" unicode="U" horiz-adv-x="471" 
d="M324 300v420h25q53 0 62.5 -7.5t9.5 -53.5v-359q0 -49 -0.5 -73.5t-2.5 -61.5t-7 -54.5t-13.5 -41.5t-21.5 -34.5t-32 -22t-45 -15.5t-60 -4q-27 0 -48.5 2.5t-38.5 10t-30 14t-23 22.5l-16.5 26t-10.5 34.5t-6.5 38.5t-3.5 47.5t-1 51.5v60v420h24q54 0 63 -7.5t9 -53.5
v-391q0 -109 13.5 -147.5t68.5 -38.5q57 0 73 49q12 35 12 169z" />
    <glyph glyph-name="V" unicode="V" horiz-adv-x="446" 
d="M232 163l105 557h28q39 0 50 -4.5t11 -26.5q0 -14 -154 -689h-90l-162 720h36q46 0 55 -7.5t19 -51.5l91 -498h11z" />
    <glyph glyph-name="W" unicode="W" horiz-adv-x="638" 
d="M218 185l36 240l22 82h96l20 -82l37 -238h8l68 533h41q39 0 50.5 -4.5t11.5 -26.5q0 -12 -124 -689h-90l-65 341h-10l-67 -341h-89l-133 720h48q46 0 55.5 -7.5t18.5 -51.5l59 -476h7z" />
    <glyph glyph-name="X" unicode="X" horiz-adv-x="422" 
d="M207 269l-68 -214q-16 -41 -25 -48t-48 -7h-46l141 355l-132 365h47q40 0 49.5 -7t24.5 -50l66 -228h16l80 285h20q40 0 52.5 -4t12.5 -24q0 -10 -127 -336l132 -356h-44q-39 0 -51 10t-22 47l-62 212h-16z" />
    <glyph glyph-name="Y" unicode="Y" horiz-adv-x="409" 
d="M219 463l85 257h26q36 0 47.5 -4t11.5 -23q0 -13 -131 -348v-345h-22q-54 0 -63.5 7.5t-9.5 53.5v285l-143 374h39q43 0 53 -7t26 -49l66 -201h15z" />
    <glyph glyph-name="Z" unicode="Z" horiz-adv-x="376" 
d="M133 89h138q53 0 62.5 -12.5t9.5 -76.5h-313v74l208 561h-208q0 63 7.5 73.5t52.5 10.5l256 1v-68z" />
    <glyph glyph-name="bracketleft" unicode="[" horiz-adv-x="226" 
d="M204 680h-75v-668h8q50 0 58.5 -9.5t8.5 -67.5h-92q-50 0 -58.5 7.5t-8.5 52.5v762h92q50 0 58.5 -9.5t8.5 -67.5z" />
    <glyph glyph-name="backslash" unicode="\" horiz-adv-x="398" 
d="M291 -187l-286 907h100l287 -907h-101z" />
    <glyph glyph-name="bracketright" unicode="]" horiz-adv-x="229" 
d="M98 680h-76q0 58 8.5 67.5t58.5 9.5h93v-762q0 -45 -8.5 -52.5t-58.5 -7.5h-93q0 58 8.5 67.5t58.5 9.5h9v668z" />
    <glyph glyph-name="asciicircum" unicode="^" horiz-adv-x="411" 
d="M190 732h30l159 -73v-88l-175 79l-173 -79v89z" />
    <glyph glyph-name="underscore" unicode="_" horiz-adv-x="585" 
d="M45 81h494v-82h-494v82z" />
    <glyph glyph-name="grave" unicode="`" horiz-adv-x="213" 
d="M10 686l27 27q19 19 34 19q8 0 16 -4.5t15 -11t21 -21.5l75 -83l-56 -58z" />
    <glyph glyph-name="a" unicode="a" horiz-adv-x="362" 
d="M234 389v24q0 6 0.5 14.5t0.5 12t-1 9.5t-3 6.5t-6 4t-10.5 1.5t-15.5 -1l-54 -7q-47 -7 -57 2t-18 66l116 23q34 0 56 -2t36.5 -10.5t22.5 -15.5t11.5 -27.5t4 -34.5t0.5 -48v-406q-58 0 -73 6t-16 29l-83 -42q-28 0 -41.5 0.5t-27 8.5t-18 16t-8.5 33.5t-4.5 50.5
t-0.5 77v69q0 113 197 117zM230 145v119l8 23q-41 -1 -72 -8t-31 -19l-1 -132q0 -50 5 -50l101 38z" />
    <glyph glyph-name="b" unicode="b" horiz-adv-x="404" 
d="M55 0v726q66 0 77 -7.5t11 -53.5v-141l58 20q29 0 51.5 -3t39 -13t28 -19t19 -30t11.5 -37t6 -49t2.5 -56.5t0.5 -69.5q0 -148 -12 -192q-17 -60 -76 -75q-27 -7 -67 -7l-61 41q-1 -24 -14.5 -29t-73.5 -5zM143 412v-268l-9 -31l78 -35q39 1 49 43q8 30 8 146
q0 105 -9 147t-47 45l-79 -19z" />
    <glyph glyph-name="c" unicode="c" horiz-adv-x="334" 
d="M233 452l-38 7q-41 0 -53 -40q-8 -30 -8 -148q0 -129 11 -159q13 -34 50 -34q18 0 35.5 3.5t38.5 9t35 7.5v-78q-9 -2 -47 -14.5t-62 -12.5q-25 0 -44.5 3.5t-35 8t-26.5 17l-18.5 21.5t-12.5 31t-7.5 36t-4 46.5t-1.5 52v62.5v61.5t1.5 51.5t4 45.5t7.5 35.5t12.5 30.5
l18.5 20.5t26.5 16.5t35 8t44.5 3.5l113 -24q-8 -57 -18 -66t-57 -2z" />
    <glyph glyph-name="d" unicode="d" horiz-adv-x="403" 
d="M259 34l-61 -41q-97 0 -127 50q-25 40 -26 164v60q0 149 13 194q18 61 80 76q26 7 65 7l56 -20v196q67 0 78 -7.5t11 -53.5v-659q-60 0 -74 5t-15 29zM268 439l-78 20q-38 -3 -47 -42t-9 -138q0 -133 9 -163q11 -37 48 -38l78 33l-5 15.5t-5 16.5v268z" />
    <glyph glyph-name="e" unicode="e" horiz-adv-x="379" 
d="M345 260l-218 -5l8 -23q0 -99 9.5 -126.5t56.5 -27.5q68 0 138 10v-78q-93 -17 -138 -17q-33 0 -56.5 5.5t-40.5 13t-28 25.5t-17 33.5t-9 47.5t-3.5 56.5t-0.5 70.5v38v60t1 49.5t4 43.5l8 33.5t13 29l19.5 20t27 15t36 7t46.5 3.5q38 0 64.5 -11.5t41 -28.5t22.5 -47.5
t10.5 -58t2.5 -70.5zM140 363l-8 -22h131l-10 22q-1 55 -10.5 75.5t-41.5 20.5q-40 0 -50.5 -18t-10.5 -78z" />
    <glyph glyph-name="f" unicode="f" horiz-adv-x="262" 
d="M155 560l-10 -23h99v-84h-100l10 -29v-541q-1 -53 -11.5 -61.5t-77.5 -8.5l1 611l9 29h-55v84h55l-9 25v50.5t3 37t6 29t13.5 18t20.5 13.5t32.5 6t44.5 4h60v-71q-68 0 -79.5 -11t-11.5 -78z" />
    <glyph glyph-name="g" unicode="g" horiz-adv-x="426" 
d="M103 -112l123 7q39 0 50 13.5t11 44.5q0 22 -10.5 31t-46.5 9q-127 0 -153 9q-27 10 -30 47q-2 14 -2 52q0 55 43 91q-23 21 -33 50.5t-10 101.5q0 34 0.5 50t2 41t5.5 35.5t11.5 26.5t18.5 22t27.5 13.5t38.5 9.5t51 2h181q0 -48 -9 -64t-36 -18q18 -39 18 -118v-45
t-1.5 -38t-4 -34.5t-8 -27.5t-13 -24l-19 -17t-27 -13.5t-35.5 -6.5t-46 -3q-48 0 -59 -6t-11 -28q0 -10 5 -14t26.5 -6.5t68.5 -2.5q90 0 116 -21t26 -104q0 -78 -29.5 -109t-115.5 -31h-60q-48 0 -56 9.5t-8 65.5zM200 218q19 0 31 6t18.5 13.5t9.5 27t3.5 33.5t0.5 46
q0 31 -0.5 44.5t-3.5 31t-9.5 23.5t-18.5 11t-31 5q-45 0 -55 -22.5t-10 -92.5q0 -71 11.5 -98.5t53.5 -27.5z" />
    <glyph glyph-name="h" unicode="h" horiz-adv-x="421" 
d="M149 404v-344q0 -45 -11 -52.5t-78 -7.5v720q66 0 77 -7.5t11 -53.5v-142l78 27q92 0 121 -52q23 -42 24 -171v-55v-266q-67 0 -78.5 7.5t-11.5 52.5v207q0 130 -12 162q-11 29 -37 30l-92 -27z" />
    <glyph glyph-name="i" unicode="i" horiz-adv-x="230" 
d="M55 649q0 25 18 42t42 17t42 -17t18 -42q0 -24 -18 -42.5t-42 -18.5t-42 18.5t-18 42.5zM71 56v481q67 0 78 -7.5t11 -52.5v-481q-67 0 -78 7.5t-11 52.5z" />
    <glyph glyph-name="j" unicode="j" horiz-adv-x="209" 
d="M39 649q0 25 18 42t42 17t42 -17t18 -42q0 -24 -18 -42.5t-42 -18.5t-42 18.5t-18 42.5zM145 477v-460q0 -35 -0.5 -51.5t-4 -43t-10.5 -39t-20.5 -29t-34 -23.5t-51 -12.5t-70.5 -5.5v77q21 0 37 3.5t27 8t18 15t11 18t5.5 24t2 27t0.5 31.5v520q68 0 79 -7.5t11 -52.5z
" />
    <glyph glyph-name="k" unicode="k" horiz-adv-x="440" 
d="M149 0h-14q-56 0 -65.5 7.5t-9.5 52.5v660q67 0 78 -7.5t11 -53.5v-659zM260 291l160 -291h-103l-153 291l141 246h98z" />
    <glyph glyph-name="l" unicode="l" horiz-adv-x="199" 
d="M149 659v-663q-67 0 -78 7.5t-11 52.5v664q66 0 77.5 -7.5t11.5 -53.5z" />
    <glyph glyph-name="m" unicode="m" horiz-adv-x="614" 
d="M354 408v-408q-67 0 -78 7.5t-11 52.5l-1 245v39.5t0.5 34.5t-0.5 27.5t-3.5 23t-6.5 15.5t-11.5 11t-18.5 3l-89 -26l9 -29v-404q-67 0 -78 7.5t-11 52.5v477q55 0 70 -3t18 -18l75 28q44 0 67 -7.5t41 -28.5l92 36q28 0 47 -1.5t36 -8.5t26.5 -13t17 -25t11 -34
t5.5 -50t2.5 -63t0.5 -83v-266q-68 0 -79 7.5t-11 52.5v207q0 138 -3 154q-5 29 -28 35q-8 2 -20 3l-78 -23z" />
    <glyph glyph-name="n" unicode="n" horiz-adv-x="415" 
d="M144 404v-404q-67 0 -78 7.5t-11 52.5v477q58 0 73 -3t16 -18l74 28q28 0 47 -1t35.5 -8t26.5 -13t18 -24.5t11 -34t5.5 -50t3 -64t0.5 -83.5v-266q-67 0 -78.5 7.5t-11.5 52.5v207q0 138 -1 149q-5 35 -28 41q-8 2 -19 2l-92 -27z" />
    <glyph glyph-name="o" unicode="o" horiz-adv-x="399" 
d="M45 271v56.5t1 47.5t3 43t6 34.5t9.5 30t14 22.5t19.5 18t26 11t33.5 8t41.5 2q98 0 129 -49q24 -40 26 -162v-62v-56t-1 -48.5t-3 -43.5t-6 -35t-9.5 -30.5t-14 -23t-20 -19t-26.5 -12t-33.5 -8.5t-41.5 -2q-29 0 -50.5 3t-38 13t-27.5 19t-18.5 30.5t-11.5 36.5
t-5.5 49t-2 57t-0.5 70zM199 459q-44 0 -56 -40q-9 -30 -9 -148q0 -128 11 -158q13 -35 54 -35q44 0 56 42q9 31 9 151q0 125 -11 154q-13 34 -54 34z" />
    <glyph glyph-name="p" unicode="p" horiz-adv-x="415" 
d="M60 -127v664q65 0 76 -3t11 -20l73 30q25 0 44.5 -4t34.5 -8.5t26.5 -17.5t19 -22.5t12.5 -32t7.5 -36.5t4 -46t1.5 -51v-60q0 -47 -0.5 -69.5t-2 -56t-5.5 -48.5t-11.5 -36t-18 -29.5t-27 -18t-38 -12.5t-49.5 -3l-70 35v-215q-66 0 -77 7.5t-11 52.5zM149 413v-270
l-11 -31l84 -34q39 1 50 43q8 30 8 146q0 107 -9 148t-47 44l-84 -19z" />
    <glyph glyph-name="q" unicode="q" horiz-adv-x="410" 
d="M266 514v23q67 0 78 -7.5t11 -52.5v-664q-67 0 -78 7.5t-11 52.5v154l-70 -34q-95 0 -125 49q-24 41 -26 165v59q0 148 13 194q18 65 82 79q23 5 54 5zM265 411l10 27l-86 21q-38 -3 -46.5 -44t-8.5 -148q0 -127 11 -156q12 -32 47 -33l84 34l-11 30v269z" />
    <glyph glyph-name="r" unicode="r" horiz-adv-x="296" 
d="M145 403v-403q-67 0 -78.5 7.5t-11.5 52.5v477q66 0 77 -4t11 -27l64 38q29 0 53 -6l16 -1q0 -57 -8 -67.5t-51 -10.5l-82 -28z" />
    <glyph glyph-name="s" unicode="s" horiz-adv-x="347" 
d="M221 452l-39 7q-20 0 -32.5 -4t-17.5 -14t-6 -18t-1 -24q0 -18 29 -44t64.5 -50t64.5 -59.5t29 -70.5t-1 -53t-8.5 -47t-21.5 -44t-42.5 -26.5t-69.5 -11.5q-20 0 -41.5 2.5t-50 7.5t-41.5 7v78q9 -1 58.5 -5.5t75.5 -4.5q14 0 23 5t13.5 10.5t6.5 20t2.5 23t0.5 30.5
q0 15 -28.5 41t-62 51t-62 62.5t-28.5 72.5q0 31 1 47t8.5 39.5t22 34.5t43 20t69.5 9l117 -24q-8 -58 -18 -66.5t-57 -1.5z" />
    <glyph glyph-name="t" unicode="t" horiz-adv-x="285" 
d="M155 571l-8 -34h100q0 -57 -10.5 -70.5t-61.5 -13.5h-29l9 -25v-198q0 -85 6.5 -116.5t27.5 -35.5h76v-78l-81 -5q-23 0 -39.5 2t-29.5 10t-21 14t-14 24.5t-9 30t-4.5 42t-1.5 50v62.5v198l8 25h-53v84h53l-8 37v51q67 0 78.5 -6.5t11.5 -47.5z" />
    <glyph glyph-name="u" unicode="u" horiz-adv-x="411" 
d="M271 143v394q67 0 78.5 -7.5t11.5 -52.5v-477q-59 0 -74 3.5t-16 23.5l-64 -34q-100 0 -131 52q-25 41 -26 166v60v266q67 0 78 -7.5t11 -52.5v-204q0 -39 0.5 -57.5t2 -46t5 -39.5t9.5 -26t16.5 -19.5t24.5 -6.5l84 35z" />
    <glyph glyph-name="v" unicode="v" horiz-adv-x="365" 
d="M119 480l67 -361h3l74 418q25 0 37 -0.5t24 -3t16.5 -8t4.5 -14.5q0 -1 -0.5 -3.5l-2.5 -12l-5 -23.5l-96 -472h-111l-110 537q44 0 62 -4.5t24.5 -14.5t12.5 -38z" />
    <glyph glyph-name="w" unicode="w" horiz-adv-x="559" 
d="M390 132l69 405q26 0 37 -0.5t23.5 -3t16 -7.5t3.5 -15q0 -3 -6 -34l-93 -477h-111l-45 340l-45 -340h-112l-107 537q68 0 80.5 -7t20.5 -50l60 -347h3l43 282l19 72h78l18 -73l45 -282h3z" />
    <glyph glyph-name="x" unicode="x" horiz-adv-x="359" 
d="M164 208l-65 -208q-23 0 -33.5 0.5t-23 2t-17.5 6t-5 12.5q0 5 3 11v-1l97 259l-98 247q69 0 84 -6.5t29 -44.5l36 -124h9l51 175q40 0 58 -4t18 -18q0 -17 -81 -234l113 -281h-93l-74 208h-8z" />
    <glyph glyph-name="y" unicode="y" horiz-adv-x="356" 
d="M193 120l61 417q53 0 67.5 -4.5t14.5 -27.5l-106 -521q-5 -26 -8 -38.5t-10 -34t-15 -33t-22.5 -26t-32 -21.5t-43.5 -12.5t-59 -5.5v72q39 0 66.5 24.5t27.5 56.5q0 8 -1 13l-113 558h39t25 -2.5t17.5 -4.5t9 -10t6.5 -15.5t4 -24.5l57 -360h15z" />
    <glyph glyph-name="z" unicode="z" horiz-adv-x="361" 
d="M326 0h-291v70l172 383h-153q0 63 7.5 73.5t52.5 10.5h200v-71l-180 -382h120q54 0 63 -10.5t9 -73.5z" />
    <glyph glyph-name="braceleft" unicode="{" horiz-adv-x="268" 
d="M81 192l-66 143v30l66 145v247h92q50 0 58.5 -9.5t8.5 -67.5h-75v-175l-70 -154l70 -154v-185h8q50 0 58.5 -9.5t8.5 -67.5h-92q-50 0 -58.5 7.5t-8.5 52.5v197z" />
    <glyph glyph-name="bar" unicode="|" horiz-adv-x="186" 
d="M138 -174l-13 -13q-60 0 -70 7.5t-10 52.5v847q66 0 79.5 -8t13.5 -53v-833z" />
    <glyph glyph-name="braceright" unicode="}" horiz-adv-x="268" 
d="M253 335l-67 -143v-197q0 -45 -8 -52.5t-58 -7.5h-92q0 58 8.5 67.5t58.5 9.5h7v185l69 154l-69 154v175h-74q0 58 8.5 67.5t58.5 9.5h91v-247l67 -145v-30z" />
    <glyph glyph-name="asciitilde" unicode="~" horiz-adv-x="374" 
d="M331 361v-37q0 -34 -9 -39.5t-63 -5.5q-26 0 -79.5 4.5t-82.5 4.5q-17 0 -24 -2l-33 2v37q0 34 9 39.5t63 5.5q25 0 78.5 -4.5t82.5 -4.5q18 0 25 2z" />
    <glyph glyph-name="uni00A0" unicode="&#xa0;" horiz-adv-x="190" 
 />
    <glyph glyph-name="exclamdown" unicode="&#xa1;" horiz-adv-x="161" 
d="M145 489q0 -25 -18 -43t-42 -18q-25 0 -43 18t-18 43t18 42.5t43 17.5q24 0 42 -17.5t18 -42.5zM128 379l-9 -476q-1 -44 -15.5 -52.5t-82.5 -8.5l19 486q1 38 12 44.5t76 6.5z" />
    <glyph glyph-name="cent" unicode="&#xa2;" horiz-adv-x="317" 
d="M124 541v88q57 0 66.5 -7.5t9.5 -50.5v-29l83 -5q0 -54 -7.5 -63t-53.5 -9h-56q-44 0 -56 -40q-9 -31 -9 -154q0 -130 11 -162q13 -37 54 -37q23 0 66 4.5t51 5.5v-71q-5 -1 -34.5 -8t-48.5 -8v-107q-57 0 -66.5 7t-9.5 51v50q-26 4 -44.5 13t-30 28t-18 36t-9.5 53.5
t-3.5 63t-0.5 81.5q0 54 0.5 80.5t3.5 62.5t9.5 52.5t18.5 35t30 27t44 12.5z" />
    <glyph glyph-name="sterling" unicode="&#xa3;" horiz-adv-x="406" 
d="M260 200q-24 0 -40 1l4 -20v-81l-6 -19h111q51 0 60 -7t9 -50v-25h-257v190l5 19q-17 1 -42 1q-13 0 -27 -2l-29 2v34q0 33 10 38t76 5h12l-5 21v254q61 0 72 -7.5t11 -50.5v-205l-5 -21h5q16 -1 47 -1q14 0 30 2l29 -1v-35q0 -32 -9 -37t-61 -5z" />
    <glyph glyph-name="currency" unicode="&#xa4;" horiz-adv-x="499" 
d="M178 372q0 -28 19.5 -46.5t47.5 -18.5q27 0 46.5 19t19.5 46q0 26 -20 45.5t-46 19.5q-28 0 -47.5 -19.5t-19.5 -45.5zM336 224l-26 26q-32 -16 -65 -16t-65 15l-73 -64q-36 36 -36 50q0 3 0.5 5t1.5 4.5t1.5 4.5t2.5 4.5t3 4t4 5t5 5t6 5.5l6 6l24 24q-20 35 -20 69
q0 39 18 68l-63 72q36 36 50 36q17 0 45 -29l24 -26q29 17 66 17q36 0 70 -20l73 64q33 -34 35 -44q1 -3 1 -6q0 -16 -30 -45l-24 -23q15 -30 15 -64q0 -35 -19 -68l64 -73q-34 -36 -50 -36q-15 0 -44 29z" />
    <glyph glyph-name="yen" unicode="&#xa5;" horiz-adv-x="412" 
d="M230 0h-19q-49 0 -57 5t-8 33l4 12q-9 0 -25 0.5t-23 0.5q-19 0 -28 -1l-29 2v34q0 32 9 37.5t62 5.5q19 0 34 -1l-4 10v27l4 9q-9 0 -25 0.5t-23 0.5q-19 0 -28 -1l-29 2v34q0 32 9 37.5t62 5.5q19 0 34 -1v17l-141 268h37q35 0 47 -8t29 -43l65 -140l87 191h23
q24 0 33.5 -1t16 -6.5t6.5 -17.5q0 -10 -127 -249v-20q24 -2 36 -2q22 0 39 4l30 -2v-34q0 -31 -9 -36.5t-62 -5.5q-19 0 -34 1l4 -31v-8l-4 -10q7 0 19.5 -0.5t18.5 -0.5q19 0 37 3l30 -2v-34q0 -31 -9 -36.5t-62 -5.5q-19 0 -34 1l4 -12v-32z" />
    <glyph glyph-name="brokenbar" unicode="&#xa6;" horiz-adv-x="186" 
d="M138 301h-14q-59 0 -69 7.5t-10 52.5v359q66 0 79.5 -8t13.5 -53v-358zM138 -184h-14q-59 0 -69 7.5t-10 53.5v358q66 0 79.5 -8t13.5 -52v-359z" />
    <glyph glyph-name="section" unicode="&#xa7;" horiz-adv-x="345" 
d="M181 719l117 -24q-8 -59 -18 -68.5t-57 0.5l-39 8q-39 0 -48 -11.5t-9 -39.5q0 -16 19.5 -37t46.5 -43l54.5 -46t47 -53t19.5 -57q0 -87 -17 -120q15 -30 15 -55q0 -35 -1 -53t-8 -46.5t-21.5 -43t-42.5 -26t-69 -11.5q-20 0 -42 2.5t-50 7.5t-42 7v78q9 -1 58.5 -5.5
t75.5 -4.5q18 0 29 6t15.5 21t5.5 26.5t1 35.5q0 16 -29 43t-63.5 53.5t-63.5 65t-29 75.5v11q0 57 10 75q5 11 14 19q-23 35 -23 70q0 31 1 46.5t8.5 37t22 31.5t42.5 17.5t70 7.5zM106 424q0 -40 94 -113q6 -5 20 -14.5t22 -16.5v51q0 5 -2.5 11t-8.5 14t-11 13.5
t-16 15.5l-17.5 15.5l-21 18l-20.5 17.5l-35 28q-4 -17 -4 -40z" />
    <glyph glyph-name="dieresis" unicode="&#xa8;" horiz-adv-x="372" 
d="M39 649q0 25 18 42t42 17t42 -17t18 -42q0 -24 -18 -42.5t-42 -18.5q-23 0 -41.5 18.5t-18.5 42.5zM212 649q0 25 18 42t43 17q24 0 42 -17t18 -42q0 -24 -18 -42.5t-42 -18.5t-42.5 18.5t-18.5 42.5z" />
    <glyph glyph-name="copyright" unicode="&#xa9;" horiz-adv-x="630" 
d="M345 384h-37q-15 0 -18.5 -17.5t-3.5 -68.5t3.5 -68.5t18.5 -17.5q16 0 45 4.5t35 5.5v-66l-34.5 -7t-45.5 -6q-27 0 -44.5 8t-27 18t-14 33.5t-5 41t-0.5 54.5t0.5 54t5 40t14 32.5t27 17t44.5 7.5l79 -4q0 -46 -5.5 -53.5t-36.5 -7.5zM31 293q0 123 81 208.5t203 85.5
q121 0 202.5 -85.5t81.5 -208.5t-81.5 -208t-202.5 -85q-122 0 -203 85t-81 208zM113 293q0 -88 58 -149.5t144 -61.5t144 61.5t58 149.5q0 89 -58 150.5t-144 61.5t-144 -61.5t-58 -150.5z" />
    <glyph glyph-name="ordfeminine" unicode="&#xaa;" horiz-adv-x="275" 
d="M108 434q3 0 49 23v75q-18 0 -34.5 -7.5t-16.5 -13.5l1 -66q0 -11 1 -11zM159 403l-31 -39q-24 0 -34 0.5t-22.5 5.5t-16 12t-7.5 25t-4.5 39t-0.5 60q0 47 31 65.5t84 21.5v31q0 9 -1 13t-6.5 7.5t-17.5 3.5h-42q-38 0 -44 8t-6 54l90 11q36 0 57 -6t30 -22.5
t10.5 -29.5t1.5 -43v-251q-63 0 -71 34z" />
    <glyph glyph-name="guillemotleft" unicode="&#xab;" horiz-adv-x="354" 
d="M29 285v30l73 159h88l-80 -174l80 -174h-89zM165 285v30l73 159h87l-79 -174l79 -174h-88z" />
    <glyph glyph-name="logicalnot" unicode="&#xac;" horiz-adv-x="340" 
d="M218 208v75h-206v84h283v-92q0 -50 -9.5 -58.5t-67.5 -8.5z" />
    <glyph glyph-name="registered" unicode="&#xae;" horiz-adv-x="630" 
d="M340 191l-35 55v-44q0 -31 -8.5 -36t-61.5 -5v285l77 4q37 0 57 -3t29 -15t10.5 -23.5t1.5 -39.5q0 -36 -1.5 -50t-12 -27.5t-34.5 -18.5l69 -112q-51 0 -65.5 5.5t-25.5 24.5zM311 387l-8 2v-62l8 3q23 0 27.5 4t4.5 25t-4 24.5t-28 3.5zM31 293q0 123 81 208.5
t203 85.5q121 0 202.5 -85.5t81.5 -208.5t-81.5 -208t-202.5 -85q-122 0 -203 85t-81 208zM113 293q0 -88 58 -149.5t144 -61.5t144 61.5t58 149.5q0 89 -58 150.5t-144 61.5t-144 -61.5t-58 -150.5z" />
    <glyph glyph-name="macron" unicode="&#xaf;" horiz-adv-x="326" 
d="M45 732h235v-82h-235v82z" />
    <glyph glyph-name="degree" unicode="&#xb0;" horiz-adv-x="346" 
d="M31 597q0 56 42 95.5t100 39.5t100 -39.5t42 -95.5t-42 -96t-100 -40t-100 40t-42 96zM106 597q0 -25 17 -40.5t50 -15.5t49.5 15.5t16.5 40.5q0 55 -66 55q-34 0 -50.5 -15t-16.5 -40z" />
    <glyph glyph-name="plusminus" unicode="&#xb1;" horiz-adv-x="296" 
d="M188 389v-74h-82v72l6 15h-81v82h81l-6 15v71h82v-71l-6 -15h83v-82h-83zM31 275h234v-83h-234v83z" />
    <glyph glyph-name="twosuperior" unicode="&#xb2;" horiz-adv-x="264" 
d="M117 513v-41h97v-58h-159v102q0 21 14.5 41t32.5 33.5t32.5 29t14.5 27.5q0 9 -1 14t-7 9t-18 4h-30q-29 0 -34 6.5t-5 47.5l71 5q57 -1 72 -21.5t15 -67.5q0 -23 -15 -44t-32.5 -33.5t-32.5 -27t-15 -26.5z" />
    <glyph glyph-name="threesuperior" unicode="&#xb3;" horiz-adv-x="258" 
d="M61 726h154l-54 -94q28 -10 38.5 -31.5t10.5 -73.5q0 -74 -14 -98t-64 -24q-7 0 -71 8v55q58 -5 70 -5q11 0 14 7.5t3 32.5q0 73 -5 80q-3 5 -12 5h-46l39 80h-63v58z" />
    <glyph glyph-name="acute" unicode="&#xb4;" horiz-adv-x="213" 
d="M184 704l19 -18l-132 -132l-56 58l73 83q16 16 22 21.5t14.5 10.5t17.5 5q12 0 35 -21z" />
    <glyph glyph-name="mu" unicode="&#xb5;" horiz-adv-x="376" 
d="M265 272v207q0 45 11.5 52.5t78.5 7.5v-266v-62.5t-1.5 -52t-4.5 -46.5l-8 -36t-12.5 -31t-19 -21.5t-27 -17t-35.5 -8t-46 -3.5l-68 27v-142q0 -46 -11 -53.5t-77 -7.5v720q67 0 78 -7.5t11 -52.5v-352l-6 -18l80 -29q39 2 48 43t9 149z" />
    <glyph glyph-name="paragraph" unicode="&#xb6;" horiz-adv-x="507" 
d="M24 580q0 56 41.5 97t97.5 43l316 -1v-94h-102l5 -22v-603h-93v603l5 22h-60l5 -22v-603h-93v440q-51 6 -86.5 46t-35.5 94z" />
    <glyph glyph-name="periodcentered" unicode="&#xb7;" horiz-adv-x="198" 
d="M31 298q0 29 20 48t48 19q27 0 47.5 -19.5t20.5 -47.5q0 -27 -21 -47.5t-47 -20.5q-27 0 -47.5 20.5t-20.5 47.5z" />
    <glyph glyph-name="cedilla" unicode="&#xb8;" horiz-adv-x="212" 
d="M15 -103h83v103h72v-117q0 -38 -9.5 -48t-47.5 -10h-33q-49 0 -57 9t-8 63z" />
    <glyph glyph-name="onesuperior" unicode="&#xb9;" horiz-adv-x="212" 
d="M85 727h29q29 0 34 -6t5 -43v-267h-63v254l-43 -11v61z" />
    <glyph glyph-name="ordmasculine" unicode="&#xba;" horiz-adv-x="308" 
d="M54 555q0 103 20 140t80 37q59 0 78.5 -37t19.5 -140q0 -104 -19 -143t-79 -39t-80 39t-20 143zM154 658q-37 0 -37 -104t37 -104q23 0 29.5 28t6.5 76q0 104 -36 104z" />
    <glyph glyph-name="guillemotright" unicode="&#xbb;" horiz-adv-x="353" 
d="M324 315v-30l-71 -159h-88l79 174l-79 174h87zM189 315v-30l-72 -159h-88l79 174l-79 174h87z" />
    <glyph glyph-name="onequarter" unicode="&#xbc;" horiz-adv-x="319" 
d="M113 727h29q29 0 34 -6t5 -43v-247h-63v234l-43 -11v61zM40 400h212v-55h-212v55zM206 125v-52h-29l7 -23v-50h-55v50l7 23h-127l115 240h60v-169l-7 -19h29zM126 219l-34 -94h51l-7 19v75h-10z" />
    <glyph glyph-name="onehalf" unicode="&#xbd;" horiz-adv-x="366" 
d="M139 99v-41h97v-58h-159v102q0 21 14.5 41t32.5 33.5t32.5 29t14.5 27.5q0 9 -1 14t-7 9t-18 4h-30q-29 0 -34 6.5t-5 47.5l71 5q57 -1 72 -21.5t15 -67.5q0 -23 -15 -44t-32.5 -33.5t-32.5 -27t-15 -26.5zM126 727h29q29 0 34 -6t5 -43v-247h-63v234l-43 -11v61zM50 400
h212v-55h-212v55z" />
    <glyph glyph-name="threequarters" unicode="&#xbe;" horiz-adv-x="314" 
d="M30 400h213v-55h-213v55zM206 125v-52h-29l7 -23v-50h-55v50l7 23h-127l115 240h60v-169l-7 -19h29zM126 219l-34 -94h51l-7 19v75h-10zM61 726h154l-54 -94q29 -10 39 -27.5t10 -67.5q0 -72 -13 -92t-65 -20q-7 0 -71 8v55q58 -5 70 -5q14 0 15.5 6.5t1.5 47.5
q0 39 -2 45t-15 6h-46l39 80h-63v58z" />
    <glyph glyph-name="questiondown" unicode="&#xbf;" horiz-adv-x="340" 
d="M294 482q0 -25 -18 -42t-42 -17t-42 17t-18 42q0 24 18 42t42 18t42 -18t18 -42zM277 354v-43q-1 -45 -25 -92t-52.5 -80.5t-52 -75t-23.5 -75.5q0 -20 2 -31.5t10 -23.5t26 -17.5t48 -5.5h36q48 0 56 -10t8 -66l-104 -12q-33 0 -58.5 2.5t-44 10t-31 13.5t-20.5 21
l-12.5 23.5t-6.5 31t-2 33v38.5q0 47 23.5 93.5t51.5 78.5t53 71.5t28 72.5v43h90z" />
    <glyph glyph-name="Agrave" unicode="&#xc0;" horiz-adv-x="452" 
d="M432 0h-33q-51 0 -61.5 8t-19.5 53l-34 169h-126l-41 -230h-23q-48 0 -61 5.5t-13 31.5q0 15 152 683h96zM215 538l-37 -195l-8 -17h103q-1 1 -5 9.5t-4 9.5l-39 193h-10zM124 881l27 27q19 19 34 19q8 0 16 -4.5t15 -11t21 -21.5l75 -83l-56 -58z" />
    <glyph glyph-name="Aacute" unicode="&#xc1;" horiz-adv-x="452" 
d="M432 0h-33q-51 0 -61.5 8t-19.5 53l-34 169h-126l-41 -230h-23q-48 0 -61 5.5t-13 31.5q0 15 152 683h96zM215 538l-37 -195l-8 -17h103q-1 1 -5 9.5t-4 9.5l-39 193h-10zM346 899l19 -18l-132 -132l-56 58l73 83q16 16 22 21.5t14.5 10.5t17.5 5q12 0 35 -21z" />
    <glyph glyph-name="Acircumflex" unicode="&#xc2;" horiz-adv-x="452" 
d="M432 0h-33q-51 0 -61.5 8t-19.5 53l-34 169h-126l-41 -230h-23q-48 0 -61 5.5t-13 31.5q0 15 152 683h96zM215 538l-37 -195l-8 -17h103q-1 1 -5 9.5t-4 9.5l-39 193h-10zM205 927h34l130 -73v-90l-146 80l-146 -80v91z" />
    <glyph glyph-name="Atilde" unicode="&#xc3;" horiz-adv-x="452" 
d="M432 0h-33q-51 0 -61.5 8t-19.5 53l-34 169h-126l-41 -230h-23q-48 0 -61 5.5t-13 31.5q0 15 152 683h96zM215 538l-37 -195l-8 -17h103q-1 1 -5 9.5t-4 9.5l-39 193h-10zM351 890v-37q0 -35 -9 -40.5t-63 -5.5q-26 0 -69.5 5t-72.5 5q-17 0 -24 -2l-33 2v37q0 34 9 39.5
t63 5.5q24 0 67 -4.5t74 -4.5q19 0 26 1z" />
    <glyph glyph-name="Adieresis" unicode="&#xc4;" horiz-adv-x="452" 
d="M432 0h-33q-51 0 -61.5 8t-19.5 53l-34 169h-126l-41 -230h-23q-48 0 -61 5.5t-13 31.5q0 15 152 683h96zM215 538l-37 -195l-8 -17h103q-1 1 -5 9.5t-4 9.5l-39 193h-10zM75 844q0 25 18 42t42 17t42 -17t18 -42q0 -24 -18 -42.5t-42 -18.5q-23 0 -41.5 18.5t-18.5 42.5
zM248 844q0 25 18 42t43 17q24 0 42 -17t18 -42q0 -24 -18 -42.5t-42 -18.5t-42.5 18.5t-18.5 42.5z" />
    <glyph glyph-name="Aring" unicode="&#xc5;" horiz-adv-x="452" 
d="M122 829q0 39 28.5 66.5t66.5 27.5t66 -27.5t28 -66.5q0 -38 -28 -65.5t-66 -27.5t-66.5 28t-28.5 65zM186 829q0 -11 10 -21t21 -10q12 0 22 10t10 21q0 12 -10 21t-22 9t-21.5 -9t-9.5 -21zM432 0h-33q-51 0 -61.5 8t-19.5 53l-34 169h-126l-41 -230h-23q-48 0 -61 5.5
t-13 31.5q0 15 152 683h96zM215 538l-37 -195l-8 -17h103q-1 1 -5 9.5t-4 9.5l-39 193h-10z" />
    <glyph glyph-name="AE" unicode="&#xc6;" horiz-adv-x="635" 
d="M279 0v230h-106l-48 -230h-24q-47 0 -60 5.5t-13 31.5q0 15 5 32l147 651h409v-94h-211l7 -19v-151l-6 -20h196v-97h-197l7 -19v-200l-8 -22h221v-98h-319zM279 325l1 -7l-1 8v-1zM196 321l1 5q-1 -2 -1 -5zM251 626l-54 -300h82v300h-28z" />
    <glyph glyph-name="Ccedilla" unicode="&#xc7;" horiz-adv-x="412" 
d="M255 627l-28 7q-57 0 -71 -90q-8 -47 -8 -178q0 -161 15 -210q17 -58 64 -58q30 0 80 4.5t65 5.5v-97q-18 -2 -51 -8t-50 -8v-112q0 -38 -9.5 -48t-47.5 -10h-33q-49 0 -57 9t-8 63h83v98q-31 4 -55 17.5t-39.5 29.5t-26.5 47.5t-16.5 54.5t-8 68.5t-3 72.5t-0.5 81v67
t2 60.5t5 58.5t9 50t15 45.5t23 34.5t32 28t42 15.5t54 6.5l139 -32q-8 -58 -30 -71.5t-86 -1.5z" />
    <glyph glyph-name="Egrave" unicode="&#xc8;" horiz-adv-x="404" 
d="M158 320v-206l-9 -25h225v-89h-314v720h304v-85h-215l9 -25v-153l-9 -25h203v-89h-202zM118 881l27 27q19 19 34 19q8 0 16 -4.5t15 -11t21 -21.5l75 -83l-56 -58z" />
    <glyph glyph-name="Eacute" unicode="&#xc9;" horiz-adv-x="404" 
d="M158 320v-206l-9 -25h225v-89h-314v720h304v-85h-215l9 -25v-153l-9 -25h203v-89h-202zM323 899l19 -18l-132 -132l-56 58l73 83q16 16 22 21.5t14.5 10.5t17.5 5q12 0 35 -21z" />
    <glyph glyph-name="Ecircumflex" unicode="&#xca;" horiz-adv-x="404" 
d="M158 320v-206l-9 -25h225v-89h-314v720h304v-85h-215l9 -25v-153l-9 -25h203v-89h-202zM200 927h34l130 -73v-90l-146 80l-146 -80v91z" />
    <glyph glyph-name="Edieresis" unicode="&#xcb;" horiz-adv-x="404" 
d="M158 320v-206l-9 -25h225v-89h-314v720h304v-85h-215l9 -25v-153l-9 -25h203v-89h-202zM72 844q0 25 18 42t42 17t42 -17t18 -42q0 -24 -18 -42.5t-42 -18.5q-23 0 -41.5 18.5t-18.5 42.5zM245 844q0 25 18 42t43 17q24 0 42 -17t18 -42q0 -24 -18 -42.5t-42 -18.5
t-42.5 18.5t-18.5 42.5z" />
    <glyph glyph-name="Igrave" unicode="&#xcc;" horiz-adv-x="215" 
d="M60 61v659h21q55 0 64.5 -7.5t9.5 -53.5v-659h-23q-54 0 -63 7.5t-9 53.5zM-23 881l27 27q19 19 34 19q8 0 16 -4.5t15 -11t21 -21.5l75 -83l-56 -58z" />
    <glyph glyph-name="Iacute" unicode="&#xcd;" horiz-adv-x="215" 
d="M60 61v659h21q55 0 64.5 -7.5t9.5 -53.5v-659h-23q-54 0 -63 7.5t-9 53.5zM239 899l19 -18l-132 -132l-56 58l73 83q16 16 22 21.5t14.5 10.5t17.5 5q12 0 35 -21z" />
    <glyph glyph-name="Icircumflex" unicode="&#xce;" horiz-adv-x="215" 
d="M60 61v659h21q55 0 64.5 -7.5t9.5 -53.5v-659h-23q-54 0 -63 7.5t-9 53.5zM92 927h34l130 -73v-90l-146 80l-146 -80v91z" />
    <glyph glyph-name="Idieresis" unicode="&#xcf;" horiz-adv-x="215" 
d="M60 61v659h21q55 0 64.5 -7.5t9.5 -53.5v-659h-23q-54 0 -63 7.5t-9 53.5zM-37 844q0 25 18 42t42 17t42 -17t18 -42q0 -24 -18 -42.5t-42 -18.5q-23 0 -41.5 18.5t-18.5 42.5zM136 844q0 25 18 42t43 17q24 0 42 -17t18 -42q0 -24 -18 -42.5t-42 -18.5t-42.5 18.5
t-18.5 42.5z" />
    <glyph glyph-name="Eth" unicode="&#xd0;" horiz-adv-x="453" 
d="M45 722l189 10q30 0 54 -6.5t42 -15.5t31.5 -28t22.5 -34t15 -45t9 -50t5 -58.5t2 -61v-67.5q0 -58 -0.5 -86.5t-4 -76.5t-10 -71.5t-19.5 -55t-32 -46.5t-48 -26t-67 -11l-189 7v722zM139 616v-159l-10 -23h127v-83h-127l10 -22v-227l-10 -20h105q16 0 28.5 5t21.5 18
t15 25t10 36t6.5 41t3.5 49.5t1 51.5v58v57t-1 51t-3.5 48t-6.5 39.5t-10 35t-15 24t-21.5 17.5t-28.5 5h-105z" />
    <glyph glyph-name="Ntilde" unicode="&#xd1;" horiz-adv-x="436" 
d="M154 664l137 -444h5v500h22q54 0 63 -7.5t9 -53.5v-659h-30q-50 0 -62 7.5t-26 48.5l-129 432h-5v-427q0 -46 -9 -53.5t-63 -7.5h-21v720h22q49 0 60 -7t27 -49zM351 890v-37q0 -35 -9 -40.5t-63 -5.5q-26 0 -69.5 5t-72.5 5q-17 0 -24 -2l-33 2v37q0 34 9 39.5t63 5.5
q24 0 67 -4.5t74 -4.5q19 0 26 1z" />
    <glyph glyph-name="Ograve" unicode="&#xd2;" horiz-adv-x="487" 
d="M50 366q0 195 43 280.5t152 85.5q108 0 150 -85t42 -281q0 -202 -39.5 -287.5t-152.5 -85.5q-114 0 -154.5 86t-40.5 287zM145 366q0 -143 22 -213.5t78 -70.5q55 0 77 70.5t22 212.5q0 278 -99 278q-100 0 -100 -277zM108 891l27 27q19 19 34 19q8 0 16 -4.5t15 -11
t21 -21.5l75 -83l-56 -58z" />
    <glyph glyph-name="Oacute" unicode="&#xd3;" horiz-adv-x="487" 
d="M50 366q0 195 43 280.5t152 85.5q108 0 150 -85t42 -281q0 -202 -39.5 -287.5t-152.5 -85.5q-114 0 -154.5 86t-40.5 287zM145 366q0 -143 22 -213.5t78 -70.5q55 0 77 70.5t22 212.5q0 278 -99 278q-100 0 -100 -277zM354 909l19 -18l-132 -132l-56 58l73 83
q16 16 22 21.5t14.5 10.5t17.5 5q12 0 35 -21z" />
    <glyph glyph-name="Ocircumflex" unicode="&#xd4;" horiz-adv-x="487" 
d="M50 366q0 195 43 280.5t152 85.5q108 0 150 -85t42 -281q0 -202 -39.5 -287.5t-152.5 -85.5q-114 0 -154.5 86t-40.5 287zM145 366q0 -143 22 -213.5t78 -70.5q55 0 77 70.5t22 212.5q0 278 -99 278q-100 0 -100 -277zM234 927h34l130 -73v-90l-146 80l-146 -80v91z" />
    <glyph glyph-name="Otilde" unicode="&#xd5;" horiz-adv-x="487" 
d="M50 366q0 195 43 280.5t152 85.5q108 0 150 -85t42 -281q0 -202 -39.5 -287.5t-152.5 -85.5q-114 0 -154.5 86t-40.5 287zM145 366q0 -143 22 -213.5t78 -70.5q55 0 77 70.5t22 212.5q0 278 -99 278q-100 0 -100 -277zM382 890v-37q0 -34 -9 -40t-63 -6q-26 0 -69.5 5
t-72.5 5q-17 0 -24 -2l-33 2v37q0 34 9 39.5t63 5.5q25 0 68 -4.5t73 -4.5q19 0 26 1z" />
    <glyph glyph-name="Odieresis" unicode="&#xd6;" horiz-adv-x="487" 
d="M50 366q0 195 43 280.5t152 85.5q108 0 150 -85t42 -281q0 -202 -39.5 -287.5t-152.5 -85.5q-114 0 -154.5 86t-40.5 287zM145 366q0 -143 22 -213.5t78 -70.5q55 0 77 70.5t22 212.5q0 278 -99 278q-100 0 -100 -277zM97 844q0 25 18 42t42 17t42 -17t18 -42
q0 -24 -18 -42.5t-42 -18.5q-23 0 -41.5 18.5t-18.5 42.5zM270 844q0 25 18 42t43 17q24 0 42 -17t18 -42q0 -24 -18 -42.5t-42 -18.5t-42.5 18.5t-18.5 42.5z" />
    <glyph glyph-name="multiply" unicode="&#xd7;" horiz-adv-x="281" 
d="M205 308l48 -48l-57 -58l-47 47l-14 21l-64 -64l-52 52l64 65l-21 14l-46 46l57 57l46 -46l14 -22l65 66l53 -53l-66 -65z" />
    <glyph glyph-name="Oslash" unicode="&#xd8;" horiz-adv-x="469" 
d="M54 366q0 200 37 283t146 83q21 0 38 -4l29 71h97l-46 -113q37 -39 51 -115t14 -205q0 -202 -37.5 -287.5t-145.5 -85.5q-36 0 -69 13l-23 -54h-96l48 117q-43 82 -43 297zM143 366q0 -147 20.5 -218t73.5 -71t73 70.5t20 217.5q0 144 -20.5 213.5t-72.5 69.5t-73 -69
t-21 -213z" />
    <glyph glyph-name="Ugrave" unicode="&#xd9;" horiz-adv-x="471" 
d="M324 300v420h25q53 0 62.5 -7.5t9.5 -53.5v-359q0 -49 -0.5 -73.5t-2.5 -61.5t-7 -54.5t-13.5 -41.5t-21.5 -34.5t-32 -22t-45 -15.5t-60 -4q-27 0 -48.5 2.5t-38.5 10t-30 14t-23 22.5l-16.5 26t-10.5 34.5t-6.5 38.5t-3.5 47.5t-1 51.5v60v420h24q54 0 63 -7.5t9 -53.5
v-391q0 -109 13.5 -147.5t68.5 -38.5q57 0 73 49q12 35 12 169zM121 881l27 27q19 19 34 19q8 0 16 -4.5t15 -11t21 -21.5l75 -83l-56 -58z" />
    <glyph glyph-name="Uacute" unicode="&#xda;" horiz-adv-x="471" 
d="M324 300v420h25q53 0 62.5 -7.5t9.5 -53.5v-359q0 -49 -0.5 -73.5t-2.5 -61.5t-7 -54.5t-13.5 -41.5t-21.5 -34.5t-32 -22t-45 -15.5t-60 -4q-27 0 -48.5 2.5t-38.5 10t-30 14t-23 22.5l-16.5 26t-10.5 34.5t-6.5 38.5t-3.5 47.5t-1 51.5v60v420h24q54 0 63 -7.5t9 -53.5
v-391q0 -109 13.5 -147.5t68.5 -38.5q57 0 73 49q12 35 12 169zM360 899l19 -18l-132 -132l-56 58l73 83q16 16 22 21.5t14.5 10.5t17.5 5q12 0 35 -21z" />
    <glyph glyph-name="Ucircumflex" unicode="&#xdb;" horiz-adv-x="471" 
d="M324 300v420h25q53 0 62.5 -7.5t9.5 -53.5v-359q0 -49 -0.5 -73.5t-2.5 -61.5t-7 -54.5t-13.5 -41.5t-21.5 -34.5t-32 -22t-45 -15.5t-60 -4q-27 0 -48.5 2.5t-38.5 10t-30 14t-23 22.5l-16.5 26t-10.5 34.5t-6.5 38.5t-3.5 47.5t-1 51.5v60v420h24q54 0 63 -7.5t9 -53.5
v-391q0 -109 13.5 -147.5t68.5 -38.5q57 0 73 49q12 35 12 169zM221 927h34l130 -73v-90l-146 80l-146 -80v91z" />
    <glyph glyph-name="Udieresis" unicode="&#xdc;" horiz-adv-x="471" 
d="M324 300v420h25q53 0 62.5 -7.5t9.5 -53.5v-359q0 -49 -0.5 -73.5t-2.5 -61.5t-7 -54.5t-13.5 -41.5t-21.5 -34.5t-32 -22t-45 -15.5t-60 -4q-27 0 -48.5 2.5t-38.5 10t-30 14t-23 22.5l-16.5 26t-10.5 34.5t-6.5 38.5t-3.5 47.5t-1 51.5v60v420h24q54 0 63 -7.5t9 -53.5
v-391q0 -109 13.5 -147.5t68.5 -38.5q57 0 73 49q12 35 12 169zM93 844q0 25 18 42t42 17t42 -17t18 -42q0 -24 -18 -42.5t-42 -18.5q-23 0 -41.5 18.5t-18.5 42.5zM266 844q0 25 18 42t43 17q24 0 42 -17t18 -42q0 -24 -18 -42.5t-42 -18.5t-42.5 18.5t-18.5 42.5z" />
    <glyph glyph-name="Yacute" unicode="&#xdd;" horiz-adv-x="409" 
d="M219 463l85 257h26q36 0 47.5 -4t11.5 -23q0 -13 -131 -348v-345h-22q-54 0 -63.5 7.5t-9.5 53.5v285l-143 374h39q43 0 53 -7t26 -49l66 -201h15zM344 899l19 -18l-132 -132l-56 58l73 83q16 16 22 21.5t14.5 10.5t17.5 5q12 0 35 -21z" />
    <glyph glyph-name="Thorn" unicode="&#xde;" horiz-adv-x="373" 
d="M45 -129v803q0 46 11.5 54t78.5 8v-147l72 20q99 0 129 -63q23 -46 24 -183v-45q0 -48 -0.5 -72t-2 -62t-6 -57t-11.5 -45.5t-18 -39t-27 -26t-38.5 -18.5t-50.5 -5l-71 35v-219q-67 0 -78.5 7.5t-11.5 54.5zM136 487v-351l-8 -23l81 -35q15 1 25.5 8.5t17 25.5t10 34.5
t5 50t2 55.5t0.5 67q0 130 -10 163q-13 41 -48 42l-82 -20z" />
    <glyph glyph-name="germandbls" unicode="&#xdf;" horiz-adv-x="472" 
d="M210 720h50q5 0 14 -0.5t32 -5.5t40.5 -13.5t32 -27t14.5 -43.5q0 -112 -12 -141.5t-71 -29.5q-20 0 -32 -4t-17 -14t-6 -18t-1 -24q0 -18 29 -44t64.5 -50t64.5 -59.5t29 -70.5t-1 -53t-8.5 -47t-21.5 -44t-42.5 -26.5t-69.5 -11.5q-20 0 -41.5 2.5t-50 7.5t-41.5 7v78
q9 -1 58.5 -5.5t75.5 -4.5q14 0 23 4.5t13.5 10t7 18t2.5 20v25.5v11q0 15 -28.5 40.5t-62 51t-62 62.5t-28.5 73q0 33 4.5 56t17 46t41.5 35t73 12q6 0 7 11t1 65q0 20 -53 20h-45q-56 0 -65 -10t-9 -71l-1 -487q0 -53 -11.5 -62t-78.5 -9l1 558v50t2.5 37t6 29.5
t12.5 19.5t19 14.5t29.5 6.5t40.5 4.5t54 0.5z" />
    <glyph glyph-name="agrave" unicode="&#xe0;" horiz-adv-x="362" 
d="M234 389v24q0 6 0.5 14.5t0.5 12t-1 9.5t-3 6.5t-6 4t-10.5 1.5t-15.5 -1l-54 -7q-47 -7 -57 2t-18 66l116 23q34 0 56 -2t36.5 -10.5t22.5 -15.5t11.5 -27.5t4 -34.5t0.5 -48v-406q-58 0 -73 6t-16 29l-83 -42q-28 0 -41.5 0.5t-27 8.5t-18 16t-8.5 33.5t-4.5 50.5
t-0.5 77v69q0 113 197 117zM230 145v119l8 23q-41 -1 -72 -8t-31 -19l-1 -132q0 -50 5 -50l101 38zM96 731l27 27q19 19 34 19q8 0 16 -4.5t15 -11t21 -21.5l75 -83l-56 -58z" />
    <glyph glyph-name="aacute" unicode="&#xe1;" horiz-adv-x="362" 
d="M234 389v24q0 6 0.5 14.5t0.5 12t-1 9.5t-3 6.5t-6 4t-10.5 1.5t-15.5 -1l-54 -7q-47 -7 -57 2t-18 66l116 23q34 0 56 -2t36.5 -10.5t22.5 -15.5t11.5 -27.5t4 -34.5t0.5 -48v-406q-58 0 -73 6t-16 29l-83 -42q-28 0 -41.5 0.5t-27 8.5t-18 16t-8.5 33.5t-4.5 50.5
t-0.5 77v69q0 113 197 117zM230 145v119l8 23q-41 -1 -72 -8t-31 -19l-1 -132q0 -50 5 -50l101 38zM284 749l19 -18l-132 -132l-56 58l73 83q16 16 22 21.5t14.5 10.5t17.5 5q12 0 35 -21z" />
    <glyph glyph-name="acircumflex" unicode="&#xe2;" horiz-adv-x="362" 
d="M234 389v24q0 6 0.5 14.5t0.5 12t-1 9.5t-3 6.5t-6 4t-10.5 1.5t-15.5 -1l-54 -7q-47 -7 -57 2t-18 66l116 23q34 0 56 -2t36.5 -10.5t22.5 -15.5t11.5 -27.5t4 -34.5t0.5 -48v-406q-58 0 -73 6t-16 29l-83 -42q-28 0 -41.5 0.5t-27 8.5t-18 16t-8.5 33.5t-4.5 50.5
t-0.5 77v69q0 113 197 117zM230 145v119l8 23q-41 -1 -72 -8t-31 -19l-1 -132q0 -50 5 -50l101 38zM170 777h34l130 -73v-90l-146 80l-146 -80v91z" />
    <glyph glyph-name="atilde" unicode="&#xe3;" horiz-adv-x="362" 
d="M234 389v24q0 6 0.5 14.5t0.5 12t-1 9.5t-3 6.5t-6 4t-10.5 1.5t-15.5 -1l-54 -7q-47 -7 -57 2t-18 66l116 23q34 0 56 -2t36.5 -10.5t22.5 -15.5t11.5 -27.5t4 -34.5t0.5 -48v-406q-58 0 -73 6t-16 29l-83 -42q-28 0 -41.5 0.5t-27 8.5t-18 16t-8.5 33.5t-4.5 50.5
t-0.5 77v69q0 113 197 117zM230 145v119l8 23q-41 -1 -72 -8t-31 -19l-1 -132q0 -50 5 -50l101 38zM322 707v-37q0 -34 -9 -40t-63 -6q-26 0 -69.5 5t-72.5 5q-17 0 -24 -2l-33 2v37q0 34 9 39.5t63 5.5q25 0 68 -4.5t73 -4.5q19 0 26 1z" />
    <glyph glyph-name="adieresis" unicode="&#xe4;" horiz-adv-x="362" 
d="M234 389v24q0 6 0.5 14.5t0.5 12t-1 9.5t-3 6.5t-6 4t-10.5 1.5t-15.5 -1l-54 -7q-47 -7 -57 2t-18 66l116 23q34 0 56 -2t36.5 -10.5t22.5 -15.5t11.5 -27.5t4 -34.5t0.5 -48v-406q-58 0 -73 6t-16 29l-83 -42q-28 0 -41.5 0.5t-27 8.5t-18 16t-8.5 33.5t-4.5 50.5
t-0.5 77v69q0 113 197 117zM230 145v119l8 23q-41 -1 -72 -8t-31 -19l-1 -132q0 -50 5 -50l101 38zM44 673q0 25 18 42t42 17t42 -17t18 -42q0 -24 -18 -42.5t-42 -18.5q-23 0 -41.5 18.5t-18.5 42.5zM217 673q0 25 18 42t43 17q24 0 42 -17t18 -42q0 -24 -18 -42.5
t-42 -18.5t-42.5 18.5t-18.5 42.5z" />
    <glyph glyph-name="aring" unicode="&#xe5;" horiz-adv-x="362" 
d="M94 666q0 39 28.5 66.5t66.5 27.5t66 -27.5t28 -66.5q0 -38 -28 -65.5t-66 -27.5t-66.5 28t-28.5 65zM158 666q0 -11 10 -21t21 -10q12 0 22 10t10 21q0 12 -10 21t-22 9t-21.5 -9t-9.5 -21zM234 389v24q0 6 0.5 14.5t0.5 12t-1 9.5t-3 6.5t-6 4t-10.5 1.5t-15.5 -1
l-54 -7q-47 -7 -57 2t-18 66l116 23q34 0 56 -2t36.5 -10.5t22.5 -15.5t11.5 -27.5t4 -34.5t0.5 -48v-406q-58 0 -73 6t-16 29l-83 -42q-28 0 -41.5 0.5t-27 8.5t-18 16t-8.5 33.5t-4.5 50.5t-0.5 77v69q0 113 197 117zM230 145v119l8 23q-41 -1 -72 -8t-31 -19l-1 -132
q0 -50 5 -50l101 38z" />
    <glyph glyph-name="ae" unicode="&#xe6;" horiz-adv-x="576" 
d="M319 357l-5 -16h111l-5 16q0 57 -7.5 79.5t-33.5 22.5q-39 0 -49.5 -22t-10.5 -80zM225 116l-1 142q-95 -2 -95 -23l-1 -107q0 -44 6 -50zM64 521l116 23q71 0 101 -24q37 24 98 24q28 0 48.5 -5t34.5 -11.5t23.5 -23.5t14.5 -29.5t7 -41t2.5 -47t0.5 -58.5v-68l-202 -5
q0 -1 3 -9t3 -9q0 -97 11 -128t54 -31q28 0 75.5 4.5t61.5 5.5v-78q-17 -2 -44 -6.5t-49 -7.5t-44 -3q-97 0 -126 56l-113 -56q-25 0 -41 3t-27.5 13.5t-17.5 21t-9 37.5t-3.5 49.5t-0.5 68.5v42q0 113 183 117v68q0 13 -1 19t-4.5 13.5t-13 10.5t-24.5 3l-42 -6
q-47 -7 -57 2t-18 66z" />
    <glyph glyph-name="ccedilla" unicode="&#xe7;" horiz-adv-x="334" 
d="M233 452l-38 7q-41 0 -53 -40q-8 -30 -8 -148q0 -129 11 -159q13 -34 50 -34q18 0 35.5 3.5t38.5 9t35 7.5v-78q-13 -3 -40.5 -12.5t-42.5 -11.5v-113q0 -38 -9.5 -48t-47.5 -10h-33q-49 0 -57 9t-8 63h83v100q-22 3 -38.5 11.5t-27.5 18t-18.5 30.5t-11.5 36.5t-5.5 50
t-2 57t-0.5 70.5v61.5t1.5 51.5t4 45.5t7.5 35.5t12.5 30.5l18.5 20.5t26.5 16.5t35 8t44.5 3.5l113 -24q-8 -57 -18 -66t-57 -2z" />
    <glyph glyph-name="egrave" unicode="&#xe8;" horiz-adv-x="369" 
d="M345 260l-218 -5l8 -23q0 -99 9.5 -126.5t56.5 -27.5q68 0 138 10v-78q-93 -17 -138 -17q-33 0 -56.5 5.5t-40.5 13t-28 25.5t-17 33.5t-9 47.5t-3.5 56.5t-0.5 70.5v38v60t1 49.5t4 43.5l8 33.5t13 29l19.5 20t27 15t36 7t46.5 3.5q38 0 64.5 -11.5t41 -28.5t22.5 -47.5
t10.5 -58t2.5 -70.5zM140 363l-8 -22h131l-10 22q-1 55 -10.5 75.5t-41.5 20.5q-40 0 -50.5 -18t-10.5 -78zM105 725l27 27q19 19 34 19q8 0 16 -4.5t15 -11t21 -21.5l75 -83l-56 -58z" />
    <glyph glyph-name="eacute" unicode="&#xe9;" horiz-adv-x="369" 
d="M345 260l-218 -5l8 -23q0 -99 9.5 -126.5t56.5 -27.5q68 0 138 10v-78q-93 -17 -138 -17q-33 0 -56.5 5.5t-40.5 13t-28 25.5t-17 33.5t-9 47.5t-3.5 56.5t-0.5 70.5v38v60t1 49.5t4 43.5l8 33.5t13 29l19.5 20t27 15t36 7t46.5 3.5q38 0 64.5 -11.5t41 -28.5t22.5 -47.5
t10.5 -58t2.5 -70.5zM140 363l-8 -22h131l-10 22q-1 55 -10.5 75.5t-41.5 20.5q-40 0 -50.5 -18t-10.5 -78zM325 745l19 -18l-132 -132l-56 58l73 83q16 16 22 21.5t14.5 10.5t17.5 5q12 0 35 -21z" />
    <glyph glyph-name="ecircumflex" unicode="&#xea;" horiz-adv-x="369" 
d="M345 260l-218 -5l8 -23q0 -99 9.5 -126.5t56.5 -27.5q68 0 138 10v-78q-93 -17 -138 -17q-33 0 -56.5 5.5t-40.5 13t-28 25.5t-17 33.5t-9 47.5t-3.5 56.5t-0.5 70.5v38v60t1 49.5t4 43.5l8 33.5t13 29l19.5 20t27 15t36 7t46.5 3.5q38 0 64.5 -11.5t41 -28.5t22.5 -47.5
t10.5 -58t2.5 -70.5zM140 363l-8 -22h131l-10 22q-1 55 -10.5 75.5t-41.5 20.5q-40 0 -50.5 -18t-10.5 -78zM200 769h34l130 -73v-90l-146 80l-146 -80v91z" />
    <glyph glyph-name="edieresis" unicode="&#xeb;" horiz-adv-x="369" 
d="M345 260l-218 -5l8 -23q0 -99 9.5 -126.5t56.5 -27.5q68 0 138 10v-78q-93 -17 -138 -17q-33 0 -56.5 5.5t-40.5 13t-28 25.5t-17 33.5t-9 47.5t-3.5 56.5t-0.5 70.5v38v60t1 49.5t4 43.5l8 33.5t13 29l19.5 20t27 15t36 7t46.5 3.5q38 0 64.5 -11.5t41 -28.5t22.5 -47.5
t10.5 -58t2.5 -70.5zM140 363l-8 -22h131l-10 22q-1 55 -10.5 75.5t-41.5 20.5q-40 0 -50.5 -18t-10.5 -78zM68 661q0 25 18 42t42 17t42 -17t18 -42q0 -24 -18 -42.5t-42 -18.5q-23 0 -41.5 18.5t-18.5 42.5zM241 661q0 25 18 42t43 17q24 0 42 -17t18 -42q0 -24 -18 -42.5
t-42 -18.5t-42.5 18.5t-18.5 42.5z" />
    <glyph glyph-name="igrave" unicode="&#xec;" horiz-adv-x="216" 
d="M57 56v481q67 0 78 -7.5t11 -52.5v-481q-67 0 -78 7.5t-11 52.5zM-2 731l27 27q19 19 34 19q8 0 16 -4.5t15 -11t21 -21.5l75 -83l-56 -58z" />
    <glyph glyph-name="iacute" unicode="&#xed;" horiz-adv-x="194" 
d="M45 56v481q67 0 78 -7.5t11 -52.5v-481q-67 0 -78 7.5t-11 52.5zM179 747l19 -18l-132 -132l-56 58l73 83q16 16 22 21.5t14.5 10.5t17.5 5q12 0 35 -21z" />
    <glyph glyph-name="icircumflex" unicode="&#xee;" horiz-adv-x="324" 
d="M116 56v481q67 0 78 -7.5t11 -52.5v-481q-67 0 -78 7.5t-11 52.5zM146 766h34l130 -73v-90l-146 80l-146 -80v91z" />
    <glyph glyph-name="idieresis" unicode="&#xef;" horiz-adv-x="331" 
d="M105 56v481q67 0 78 -7.5t11 -52.5v-481q-67 0 -78 7.5t-11 52.5zM-1 667q0 25 18 42t42 17t42 -17t18 -42q0 -24 -18 -42.5t-42 -18.5q-23 0 -41.5 18.5t-18.5 42.5zM172 667q0 25 18 42t43 17q24 0 42 -17t18 -42q0 -24 -18 -42.5t-42 -18.5t-42.5 18.5t-18.5 42.5z
" />
    <glyph glyph-name="eth" unicode="&#xf0;" horiz-adv-x="374" 
d="M179 410h1l-3 1zM242 385l-63 25q-40 -1 -50 -30t-10 -130q0 -110 9 -138t52 -28q40 0 52 27q13 29 11 169v15zM183 494l51 -23q-8 85 -28.5 123t-63.5 38v88q28 0 52 -5t42 -17t32.5 -24.5t25 -35.5t17.5 -41t12 -50.5t7.5 -55t3.5 -62t1.5 -64.5t0.5 -70
q0 -171 -12 -217q-15 -55 -64 -69q-28 -9 -80 -9q-96 0 -125 35q-26 32 -28 136q-1 25 -1 79q0 139 11 176q15 49 67 61q29 7 79 7z" />
    <glyph glyph-name="ntilde" unicode="&#xf1;" horiz-adv-x="415" 
d="M144 404v-404q-67 0 -78 7.5t-11 52.5v477q58 0 73 -3t16 -18l74 28q28 0 47 -1t35.5 -8t26.5 -13t18 -24.5t11 -34t5.5 -50t3 -64t0.5 -83.5v-266q-67 0 -78.5 7.5t-11.5 52.5v207q0 138 -1 149q-5 35 -28 41q-8 2 -19 2l-92 -27zM355 707v-37q0 -34 -9 -40t-63 -6
q-26 0 -69.5 5t-72.5 5q-17 0 -24 -2l-33 2v37q0 34 9 39.5t63 5.5q25 0 68 -4.5t73 -4.5q19 0 26 1z" />
    <glyph glyph-name="ograve" unicode="&#xf2;" horiz-adv-x="399" 
d="M45 271v56.5t1 47.5t3 43t6 34.5t9.5 30t14 22.5t19.5 18t26 11t33.5 8t41.5 2q98 0 129 -49q24 -40 26 -162v-62v-56t-1 -48.5t-3 -43.5t-6 -35t-9.5 -30.5t-14 -23t-20 -19t-26.5 -12t-33.5 -8.5t-41.5 -2q-29 0 -50.5 3t-38 13t-27.5 19t-18.5 30.5t-11.5 36.5
t-5.5 49t-2 57t-0.5 70zM199 459q-44 0 -56 -40q-9 -30 -9 -148q0 -128 11 -158q13 -35 54 -35q44 0 56 42q9 31 9 151q0 125 -11 154q-13 34 -54 34zM105 731l27 27q19 19 34 19q8 0 16 -4.5t15 -11t21 -21.5l75 -83l-56 -58z" />
    <glyph glyph-name="oacute" unicode="&#xf3;" horiz-adv-x="399" 
d="M45 271v56.5t1 47.5t3 43t6 34.5t9.5 30t14 22.5t19.5 18t26 11t33.5 8t41.5 2q98 0 129 -49q24 -40 26 -162v-62v-56t-1 -48.5t-3 -43.5t-6 -35t-9.5 -30.5t-14 -23t-20 -19t-26.5 -12t-33.5 -8.5t-41.5 -2q-29 0 -50.5 3t-38 13t-27.5 19t-18.5 30.5t-11.5 36.5
t-5.5 49t-2 57t-0.5 70zM199 459q-44 0 -56 -40q-9 -30 -9 -148q0 -128 11 -158q13 -35 54 -35q44 0 56 42q9 31 9 151q0 125 -11 154q-13 34 -54 34zM332 745l19 -18l-132 -132l-56 58l73 83q16 16 22 21.5t14.5 10.5t17.5 5q12 0 35 -21z" />
    <glyph glyph-name="ocircumflex" unicode="&#xf4;" horiz-adv-x="399" 
d="M45 271v56.5t1 47.5t3 43t6 34.5t9.5 30t14 22.5t19.5 18t26 11t33.5 8t41.5 2q98 0 129 -49q24 -40 26 -162v-62v-56t-1 -48.5t-3 -43.5t-6 -35t-9.5 -30.5t-14 -23t-20 -19t-26.5 -12t-33.5 -8.5t-41.5 -2q-29 0 -50.5 3t-38 13t-27.5 19t-18.5 30.5t-11.5 36.5
t-5.5 49t-2 57t-0.5 70zM199 459q-44 0 -56 -40q-9 -30 -9 -148q0 -128 11 -158q13 -35 54 -35q44 0 56 42q9 31 9 151q0 125 -11 154q-13 34 -54 34zM181 777h34l130 -73v-90l-146 80l-146 -80v91z" />
    <glyph glyph-name="otilde" unicode="&#xf5;" horiz-adv-x="399" 
d="M45 271v56.5t1 47.5t3 43t6 34.5t9.5 30t14 22.5t19.5 18t26 11t33.5 8t41.5 2q98 0 129 -49q24 -40 26 -162v-62v-56t-1 -48.5t-3 -43.5t-6 -35t-9.5 -30.5t-14 -23t-20 -19t-26.5 -12t-33.5 -8.5t-41.5 -2q-29 0 -50.5 3t-38 13t-27.5 19t-18.5 30.5t-11.5 36.5
t-5.5 49t-2 57t-0.5 70zM199 459q-44 0 -56 -40q-9 -30 -9 -148q0 -128 11 -158q13 -35 54 -35q44 0 56 42q9 31 9 151q0 125 -11 154q-13 34 -54 34zM341 707v-37q0 -34 -9 -40t-63 -6q-26 0 -69.5 5t-72.5 5q-17 0 -24 -2l-33 2v37q0 34 9 39.5t63 5.5q24 0 67 -4.5
t74 -4.5q19 0 26 1z" />
    <glyph glyph-name="odieresis" unicode="&#xf6;" horiz-adv-x="399" 
d="M45 271v56.5t1 47.5t3 43t6 34.5t9.5 30t14 22.5t19.5 18t26 11t33.5 8t41.5 2q98 0 129 -49q24 -40 26 -162v-62v-56t-1 -48.5t-3 -43.5t-6 -35t-9.5 -30.5t-14 -23t-20 -19t-26.5 -12t-33.5 -8.5t-41.5 -2q-29 0 -50.5 3t-38 13t-27.5 19t-18.5 30.5t-11.5 36.5
t-5.5 49t-2 57t-0.5 70zM199 459q-44 0 -56 -40q-9 -30 -9 -148q0 -128 11 -158q13 -35 54 -35q44 0 56 42q9 31 9 151q0 125 -11 154q-13 34 -54 34zM54 669q0 25 18 42t42 17t42 -17t18 -42q0 -24 -18 -42.5t-42 -18.5q-23 0 -41.5 18.5t-18.5 42.5zM227 669q0 25 18 42
t43 17q24 0 42 -17t18 -42q0 -24 -18 -42.5t-42 -18.5t-42.5 18.5t-18.5 42.5z" />
    <glyph glyph-name="divide" unicode="&#xf7;" horiz-adv-x="275" 
d="M78 60q0 25 18 42t42 17t42 -17t18 -42q0 -24 -18 -42t-42 -18t-42 18t-18 42zM84 478q0 25 18 42t42 17q25 0 43 -17t18 -42q0 -24 -18.5 -42t-42.5 -18t-42 18t-18 42zM26 333h235v-82h-235v82z" />
    <glyph glyph-name="oslash" unicode="&#xf8;" horiz-adv-x="394" 
d="M49 272v62.5t1.5 51.5t4 45.5t7 35.5t12 30.5l18 20.5t25 16t33.5 7.5t43 3.5q20 0 29 -1l36 90h95l-52 -127q23 -29 29 -79t6 -156q0 -152 -12 -196q-16 -62 -74 -76q-24 -6 -57 -6q-13 0 -31 2l-33 -84h-94l49 121q-24 29 -29.5 79t-5.5 160zM193 466q-15 0 -25 -3.5
t-16.5 -15t-10 -22.5t-5 -36t-2 -44.5t-0.5 -59.5q0 -139 8 -170q11 -42 51 -42t49.5 35.5t9.5 138.5q0 144 -6 172q-9 42 -43 46q-5 1 -10 1z" />
    <glyph glyph-name="ugrave" unicode="&#xf9;" horiz-adv-x="411" 
d="M271 143v394q67 0 78.5 -7.5t11.5 -52.5v-477q-59 0 -74 3.5t-16 23.5l-64 -34q-100 0 -131 52q-25 41 -26 166v60v266q67 0 78 -7.5t11 -52.5v-204q0 -39 0.5 -57.5t2 -46t5 -39.5t9.5 -26t16.5 -19.5t24.5 -6.5l84 35zM103 727l27 27q19 19 34 19q8 0 16 -4.5t15 -11
t21 -21.5l75 -83l-56 -58z" />
    <glyph glyph-name="uacute" unicode="&#xfa;" horiz-adv-x="411" 
d="M271 143v394q67 0 78.5 -7.5t11.5 -52.5v-477q-59 0 -74 3.5t-16 23.5l-64 -34q-100 0 -131 52q-25 41 -26 166v60v266q67 0 78 -7.5t11 -52.5v-204q0 -39 0.5 -57.5t2 -46t5 -39.5t9.5 -26t16.5 -19.5t24.5 -6.5l84 35zM287 745l19 -18l-132 -132l-56 58l73 83
q16 16 22 21.5t14.5 10.5t17.5 5q12 0 35 -21z" />
    <glyph glyph-name="ucircumflex" unicode="&#xfb;" horiz-adv-x="411" 
d="M271 143v394q67 0 78.5 -7.5t11.5 -52.5v-477q-59 0 -74 3.5t-16 23.5l-64 -34q-100 0 -131 52q-25 41 -26 166v60v266q67 0 78 -7.5t11 -52.5v-204q0 -39 0.5 -57.5t2 -46t5 -39.5t9.5 -26t16.5 -19.5t24.5 -6.5l84 35zM184 771h34l130 -73v-90l-146 80l-146 -80v91z
" />
    <glyph glyph-name="udieresis" unicode="&#xfc;" horiz-adv-x="411" 
d="M271 143v394q67 0 78.5 -7.5t11.5 -52.5v-477q-59 0 -74 3.5t-16 23.5l-64 -34q-100 0 -131 52q-25 41 -26 166v60v266q67 0 78 -7.5t11 -52.5v-204q0 -39 0.5 -57.5t2 -46t5 -39.5t9.5 -26t16.5 -19.5t24.5 -6.5l84 35zM62 671q0 25 18 42t42 17t42 -17t18 -42
q0 -24 -18 -42.5t-42 -18.5q-23 0 -41.5 18.5t-18.5 42.5zM235 671q0 25 18 42t43 17q24 0 42 -17t18 -42q0 -24 -18 -42.5t-42 -18.5t-42.5 18.5t-18.5 42.5z" />
    <glyph glyph-name="yacute" unicode="&#xfd;" horiz-adv-x="356" 
d="M193 120l61 417q53 0 67.5 -4.5t14.5 -27.5l-106 -521q-5 -26 -8 -38.5t-10 -34t-15 -33t-22.5 -26t-32 -21.5t-43.5 -12.5t-59 -5.5v72q39 0 66.5 24.5t27.5 56.5q0 8 -1 13l-113 558h39t25 -2.5t17.5 -4.5t9 -10t6.5 -15.5t4 -24.5l57 -360h15zM259 743l19 -18
l-132 -132l-56 58l73 83q16 16 22 21.5t14.5 10.5t17.5 5q12 0 35 -21z" />
    <glyph glyph-name="thorn" unicode="&#xfe;" horiz-adv-x="358" 
d="M133 441v-329l68 -34q39 1 50 43q8 30 8 146q0 105 -9 147t-47 45zM45 -187v907q65 0 76.5 -7.5t11.5 -53.5v-135l57 20q30 0 52 -3t39 -13t28.5 -19t19 -30t11.5 -37t6 -49t2.5 -56.5t0.5 -69.5q0 -148 -12 -192q-18 -60 -77 -75q-27 -7 -67 -7l-60 41v-154
q0 -50 -11 -58.5t-77 -8.5z" />
    <glyph glyph-name="ydieresis" unicode="&#xff;" horiz-adv-x="356" 
d="M193 120l61 417q53 0 67.5 -4.5t14.5 -27.5l-106 -521q-5 -26 -8 -38.5t-10 -34t-15 -33t-22.5 -26t-32 -21.5t-43.5 -12.5t-59 -5.5v72q39 0 66.5 24.5t27.5 56.5q0 8 -1 13l-113 558h39t25 -2.5t17.5 -4.5t9 -10t6.5 -15.5t4 -24.5l57 -360h15zM40 665q0 25 18 42
t42 17t42 -17t18 -42q0 -24 -18 -42.5t-42 -18.5q-23 0 -41.5 18.5t-18.5 42.5zM213 665q0 25 18 42t43 17q24 0 42 -17t18 -42q0 -24 -18 -42.5t-42 -18.5t-42.5 18.5t-18.5 42.5z" />
    <glyph glyph-name="dotlessi" unicode="&#x131;" horiz-adv-x="221" 
d="M90 378h-75q0 57 8.5 66.5t58.5 9.5h92v-335h-84v259z" />
    <glyph glyph-name="Lslash" unicode="&#x141;" horiz-adv-x="371" 
d="M149 89h129q54 0 63.5 -8t9.5 -54v-27h-291v720h25q54 0 63.5 -7.5t9.5 -53.5v-545zM-19 363h289v-82h-289v82z" />
    <glyph glyph-name="lslash" unicode="&#x142;" horiz-adv-x="199" 
d="M149 659v-663q-67 0 -78 7.5t-11 52.5v664q66 0 77.5 -7.5t11.5 -53.5zM-27 378h289v-82h-289v82z" />
    <glyph glyph-name="OE" unicode="&#x152;" horiz-adv-x="650" 
d="M234 82l71 7v545l-71 9q-23 -1 -40 -9t-27.5 -26.5t-17 -37.5t-9.5 -55.5t-3.5 -66t-0.5 -82.5q0 -164 13 -213q21 -70 85 -71zM609 635h-214l8 -36v-131l-8 -36h201v-89h-201l8 -35v-184l-8 -35h223v-89h-293l-89 -7q-119 0 -160 69q-32 54 -34 206q-1 30 -1 98
q0 183 13 242q20 85 88 110q37 14 96 14l87 -12h284v-85z" />
    <glyph glyph-name="oe" unicode="&#x153;" horiz-adv-x="612" 
d="M196 544q74 0 109 -29q35 29 116 29q26 0 46.5 -3t35 -11t25 -15.5t17 -25t10 -29t5 -38t2 -43t0.5 -51.5l10 -68l-225 -5q0 -100 13 -138.5t61 -38.5q29 0 83 4.5t64 5.5v-78q-15 -2 -46 -7t-55 -7.5t-46 -2.5q-78 0 -116 33q-33 -33 -109 -33q-29 0 -50.5 3t-38 13
t-27.5 19t-18.5 30.5t-11.5 36.5t-5.5 49t-2 57t-0.5 70v56.5t1 47.5t3 43t6 34.5t9.5 30t14 22.5t19.5 18t26 11t33.5 8t41.5 2zM343 341h130q0 69 -9 93.5t-43 24.5q-45 0 -56.5 -16.5t-11.5 -70.5zM261 271q0 125 -11 154q-13 34 -54 34q-44 0 -56 -40q-9 -30 -9 -148
q0 -128 11 -158q13 -35 54 -35q44 0 56 42q9 31 9 151z" />
    <glyph glyph-name="Scaron" unicode="&#x160;" horiz-adv-x="436" 
d="M228 643l38 -7q55 -11 70 -0.5t23 67.5l-136 29q-44 0 -75 -4.5t-50.5 -17.5t-30.5 -24.5t-15.5 -36.5t-5.5 -41.5t-1 -51.5q0 -30 11.5 -58t39.5 -59t43.5 -45.5l55.5 -49.5l50.5 -44t31.5 -39t17 -51q0 -24 -0.5 -37t-4.5 -32t-13 -28.5t-26.5 -16.5t-43.5 -7
q-32 0 -94 4.5t-72 5.5v-85q18 -2 51.5 -8t61 -9.5t51.5 -3.5q40 0 71 8.5t51 19.5t34 33t21 39t10.5 47.5t4 48t0.5 50.5q0 47 -38.5 92.5t-101.5 95.5q-73 62 -92 87q-19 26 -19 48t1.5 33t9 24t25 18.5t47.5 5.5zM230 763h-34l-128 72v92l146 -81l146 81v-91z" />
    <glyph glyph-name="scaron" unicode="&#x161;" horiz-adv-x="347" 
d="M221 452l-39 7q-20 0 -32.5 -4t-17.5 -14t-6 -18t-1 -24q0 -18 29 -44t64.5 -50t64.5 -59.5t29 -70.5t-1 -53t-8.5 -47t-21.5 -44t-42.5 -26.5t-69.5 -11.5q-20 0 -41.5 2.5t-50 7.5t-41.5 7v78q9 -1 58.5 -5.5t75.5 -4.5q14 0 23 5t13.5 10.5t6.5 20t2.5 23t0.5 30.5
q0 15 -28.5 41t-62 51t-62 62.5t-28.5 72.5q0 31 1 47t8.5 39.5t22 34.5t43 20t69.5 9l117 -24q-8 -58 -18 -66.5t-57 -1.5zM189 577h-34l-128 72v92l146 -81l146 81v-91z" />
    <glyph glyph-name="Ydieresis" unicode="&#x178;" horiz-adv-x="409" 
d="M219 463l85 257h26q36 0 47.5 -4t11.5 -23q0 -13 -131 -348v-345h-22q-54 0 -63.5 7.5t-9.5 53.5v285l-143 374h39q43 0 53 -7t26 -49l66 -201h15zM63 832q0 25 18 42t42 17t42 -17t18 -42q0 -24 -18 -42.5t-42 -18.5q-23 0 -41.5 18.5t-18.5 42.5zM236 832q0 25 18 42
t43 17q24 0 42 -17t18 -42q0 -24 -18 -42.5t-42 -18.5t-42.5 18.5t-18.5 42.5z" />
    <glyph glyph-name="Zcaron" unicode="&#x17d;" horiz-adv-x="376" 
d="M133 89h138q53 0 62.5 -12.5t9.5 -76.5h-313v74l208 561h-208q0 63 7.5 73.5t52.5 10.5l256 1v-68zM207 763h-34l-128 72v92l146 -81l146 81v-91z" />
    <glyph glyph-name="zcaron" unicode="&#x17e;" horiz-adv-x="361" 
d="M326 0h-291v70l172 383h-153q0 63 7.5 73.5t52.5 10.5h200v-71l-180 -382h120q54 0 63 -10.5t9 -73.5zM210 568h-34l-128 72v92l146 -81l146 81v-91z" />
    <glyph glyph-name="florin" unicode="&#x192;" horiz-adv-x="292" 
d="M176 540l95 -4q0 -49 -8 -58t-54 -10l-26 -1q-7 0 -7 -91l-6 -25h96v-79h-97l6 -18v-358q-29 0 -40.5 1t-24.5 7t-16.5 19t-3.5 36l1 294l6 19h-52v79h52l-6 25q0 37 0.5 55t5 43.5t13 36.5t25 20t41.5 9z" />
    <glyph glyph-name="circumflex" unicode="&#x2c6;" horiz-adv-x="356" 
d="M160 732h34l130 -73v-90l-146 80l-146 -80v91z" />
    <glyph glyph-name="caron" unicode="&#x2c7;" horiz-adv-x="354" 
d="M193 568h-34l-128 72v92l146 -81l146 81v-91z" />
    <glyph glyph-name="breve" unicode="&#x2d8;" horiz-adv-x="356" 
d="M160 732h34l130 -73v-90l-146 80l-146 -80v91z" />
    <glyph glyph-name="dotaccent" unicode="&#x2d9;" horiz-adv-x="182" 
d="M31 666q0 29 20 48t48 19q27 0 47.5 -19.5t20.5 -47.5q0 -27 -21 -47.5t-47 -20.5q-27 0 -47.5 20.5t-20.5 47.5z" />
    <glyph glyph-name="ring" unicode="&#x2da;" horiz-adv-x="251" 
d="M31 638q0 39 28.5 66.5t66.5 27.5t66 -27.5t28 -66.5q0 -38 -28 -65.5t-66 -27.5t-66.5 28t-28.5 65zM99 638q0 -10 8.5 -18.5t18.5 -8.5t18 8.5t8 18.5q0 11 -8 19.5t-18 8.5t-18.5 -9t-8.5 -19z" />
    <glyph glyph-name="ogonek" unicode="&#x2db;" horiz-adv-x="251" 
d="M25 -95v34l45 95h87l-48 -107l126 -114h-111z" />
    <glyph glyph-name="tilde" unicode="&#x2dc;" horiz-adv-x="375" 
d="M322 707v-37q0 -34 -9 -40t-63 -6q-26 0 -69.5 5t-72.5 5q-17 0 -24 -2l-33 2v37q0 34 9 39.5t63 5.5q25 0 68 -4.5t73 -4.5q19 0 26 1z" />
    <glyph glyph-name="hungarumlaut" unicode="&#x2dd;" horiz-adv-x="405" 
d="M216 686l-132 -132l-57 58l74 83q34 37 54 37q16 0 39 -25zM364 711l26 -25l-132 -132l-56 58l73 83q32 37 54 37q12 0 35 -21z" />
    <glyph glyph-name="Delta" unicode="&#x394;" 
 />
    <glyph glyph-name="Delta" unicode="&#x2206;" 
 />
    <glyph glyph-name="Omega" unicode="&#x3a9;" 
 />
    <glyph glyph-name="Omega" unicode="&#x2126;" 
 />
    <glyph glyph-name="pi" unicode="&#x3c0;" 
 />
    <glyph glyph-name="endash" unicode="&#x2013;" horiz-adv-x="380" 
d="M45 363h289v-82h-289v82z" />
    <glyph glyph-name="emdash" unicode="&#x2014;" horiz-adv-x="585" 
d="M45 363h494v-82h-494v82z" />
    <glyph glyph-name="quoteleft" unicode="&#x2018;" horiz-adv-x="188" 
d="M153 699l8 -17q-8 -23 -12.5 -38.5t-6.5 -30.5t-2.5 -21t0 -25.5t0.5 -28.5q0 -25 -18 -42t-42 -17q-25 0 -42.5 17.5t-17.5 43.5q0 20 20 68t40 86l20 38z" />
    <glyph glyph-name="quoteright" unicode="&#x2019;" horiz-adv-x="186" 
d="M35 511l-8 18q19 67 22 99.5t-2 43.5q0 25 18 42.5t42 17.5q25 0 43 -17.5t18 -44.5q0 -19 -20 -67t-40 -87l-20 -38z" />
    <glyph glyph-name="quotesinglbase" unicode="&#x201a;" horiz-adv-x="171" 
d="M31 -103l-5 12l8.5 30.5t5.5 25.5t3.5 18.5t2 18t0.5 15v19v21.5q0 22 16 37.5t38 15.5t38 -15.5t16 -39.5q0 -19 -19.5 -66t-38.5 -84l-19 -37z" />
    <glyph glyph-name="quotedblleft" unicode="&#x201c;" horiz-adv-x="340" 
d="M310 699l7 -17q-20 -65 -20 -144q0 -25 -18 -42t-42 -17q-25 0 -42.5 17.5t-17.5 43.5q0 20 19.5 68t39.5 86l20 38zM164 699l7 -17q-20 -65 -20 -144q0 -25 -18 -42t-42 -17q-25 0 -42.5 17.5t-17.5 43.5q0 20 19.5 68t39.5 86l20 38z" />
    <glyph glyph-name="quotedblright" unicode="&#x201d;" horiz-adv-x="340" 
d="M43 511l-7 18q20 72 20 143q0 25 18 42.5t42 17.5t42 -18t18 -44q0 -19 -20 -67t-40 -87l-19 -38zM186 512l-5 17q20 72 20 143q0 25 18 42.5t42 17.5q25 0 42.5 -18t17.5 -44q0 -19 -19.5 -67t-39.5 -87l-20 -38z" />
    <glyph glyph-name="quotedblbase" unicode="&#x201e;" horiz-adv-x="334" 
d="M40 -103l-5 12q14 48 17 73.5t3 74.5q0 22 16 37.5t38 15.5t38 -15.5t16 -39.5q0 -19 -19.5 -66t-38.5 -84l-19 -37zM180 -103l-4 12l6 19.5t5 16.5t3.5 15.5t2.5 13.5t1.5 13.5t1 12t0.5 13.5v13v15v16q0 22 16 37.5t38 15.5t38 -15.5t16 -39.5q0 -19 -19 -66t-39 -84
l-19 -37z" />
    <glyph glyph-name="dagger" unicode="&#x2020;" horiz-adv-x="297" 
d="M178 342l10 -33v-306h-80v306l10 33h-110v69h110l-10 33v284h80v-284l-10 -33h112v-69h-112z" />
    <glyph glyph-name="daggerdbl" unicode="&#x2021;" horiz-adv-x="302" 
d="M110 274l10 32h-110v69h111l-8 37l7 31h-110v68h110l-10 34v183h80v-183l-10 -34h112v-68h-113l8 -34l-7 -34h112v-69h-112l10 -33v-270h-80v271z" />
    <glyph glyph-name="bullet" unicode="&#x2022;" horiz-adv-x="226" 
d="M32 299q0 34 24 57.5t57 23.5t57.5 -24t24.5 -57t-24.5 -57t-57.5 -24t-57 24t-24 57z" />
    <glyph glyph-name="ellipsis" unicode="&#x2026;" horiz-adv-x="465" 
d="M41 57q0 22 16 37.5t38 15.5t38 -15.5t16 -37.5t-16 -38t-38 -16t-38 16t-16 38zM182 57q0 22 16 37.5t37 15.5q22 0 38 -15.5t16 -37.5t-16 -38t-38 -16q-21 0 -37 16t-16 38zM316 57q0 22 16.5 37.5t37.5 15.5q22 0 38 -15.5t16 -37.5t-16 -38t-38 -16q-21 0 -37.5 16
t-16.5 38z" />
    <glyph glyph-name="perthousand" unicode="&#x2030;" horiz-adv-x="374" 
d="M394 720l-288 -720h-100l289 720h99z" />
    <glyph glyph-name="guilsinglleft" unicode="&#x2039;" horiz-adv-x="212" 
d="M18 285v30l74 159h86l-78 -174l78 -174h-87z" />
    <glyph glyph-name="guilsinglright" unicode="&#x203a;" horiz-adv-x="212" 
d="M194 315v-30l-72 -159h-87l79 174l-79 174h86z" />
    <glyph glyph-name="fraction" unicode="&#x2044;" horiz-adv-x="399" 
d="M394 720l-288 -720h-100l289 720h99z" />
    <glyph glyph-name="Euro" unicode="&#x20ac;" horiz-adv-x="445" 
d="M269 466h-46q-30 0 -41 -17t-13 -66l-8 -17h7q69 -6 73 -6q17 0 35 3l29 -2v-34q0 -32 -8.5 -37.5t-61.5 -5.5q-39 0 -67 3h-5l5 -13l-4 -17h4q55 -5 69 -5q18 0 36 3l29 -2v-34q0 -31 -9 -36.5t-61 -5.5q-24 0 -64 3h-4l4 -10q2 -55 13.5 -76t41.5 -21h108v-71l-108 -8
q-83 0 -109.5 38.5t-29.5 143.5l4 10h-4q-33 0 -40 -2l-31 2v34q0 32 9 37.5t62 5.5h5l-5 12v6l5 13h-5q-30 0 -38 -2l-30 2v34q0 32 8.5 37.5t59.5 5.5h6l-5 17q5 90 32.5 123.5t105.5 33.5l108 -8q0 -53 -7.5 -62t-54.5 -9z" />
    <glyph glyph-name="trademark" unicode="&#x2122;" horiz-adv-x="559" 
d="M346 488l-17 60h-8v-199h-75v371h68l59 -140h13l60 140h67v-371h-74v199h-9l-16 -60h-68zM213 641h-56q0 -1 2.5 -8.5t2.5 -8.5v-275h-75v274l6 18h-56v79h176v-79z" />
    <glyph glyph-name="partialdiff" unicode="&#x2202;" 
 />
    <glyph glyph-name="product" unicode="&#x220f;" 
 />
    <glyph glyph-name="summation" unicode="&#x2211;" 
 />
    <glyph glyph-name="minus" unicode="&#x2212;" horiz-adv-x="326" 
d="M45 363h235v-82h-235v82z" />
    <glyph glyph-name="radical" unicode="&#x221a;" 
 />
    <glyph glyph-name="infinity" unicode="&#x221e;" 
 />
    <glyph glyph-name="integral" unicode="&#x222b;" 
 />
    <glyph glyph-name="approxequal" unicode="&#x2248;" 
 />
    <glyph glyph-name="notequal" unicode="&#x2260;" 
 />
    <glyph glyph-name="lessequal" unicode="&#x2264;" 
 />
    <glyph glyph-name="greaterequal" unicode="&#x2265;" 
 />
    <glyph glyph-name="lozenge" unicode="&#x25ca;" 
 />
    <glyph glyph-name="apple" 
 />
    </font>
</defs>
</svg>
